<svg width="120" height="109" fill="none" xmlns="http://www.w3.org/2000/svg"><g filter="url(#filter0_d)"><path fill-rule="evenodd" clip-rule="evenodd" d="M30 15c-5.523 0-10 4.477-10 10v17.39c2.509.394 4.46 3.427 4.46 7.11 0 3.683-1.951 6.716-4.46 7.11V74c0 5.523 4.477 10 10 10h60c5.523 0 10-4.477 10-10V25c0-5.523-4.477-10-10-10H30z" fill="#fff"/></g><path d="M66.042 70.784a.608.608 0 01-.444-.192l-2.919-3.113a.608.608 0 01-.165-.416v-1.476a.607.607 0 01.214-.463l1.034-.883-.951-1.01a.608.608 0 01-.013-.82l1.001-1.132-.844-.909a.608.608 0 01-.017-.81l.902-1.051-1.105-.913a.61.61 0 01-.221-.47v-3.653a7.629 7.629 0 116.7.106v13.337a.608.608 0 01-.13.376l-2.564 3.26a.607.607 0 01-.454.232h-.024zm-2.31-3.962l2.27 2.421L68 66.706V53.181a.609.609 0 01.38-.564 6.423 6.423 0 10-5.011-.085.608.608 0 01.365.556v3.754l1.36 1.123a.607.607 0 01.074.865l-.951 1.11.85.915a.608.608 0 01.011.817l-.999 1.13 1.01 1.07a.608.608 0 01-.05.88l-1.306 1.116-.002.954z" fill="#212D55"/><path d="M68.604 53.785a.608.608 0 01-.608-.604v-.007a.608.608 0 11.608.611zm-2.634-5.982a2.973 2.973 0 110-5.946 2.973 2.973 0 010 5.946zm0-4.731a1.757 1.757 0 100 3.515 1.757 1.757 0 000-3.515z" fill="#212D55"/><path d="M46.907 66.983a.608.608 0 01-.595-.48l-.904-4.172a.608.608 0 01.074-.443l.765-1.267a.607.607 0 01.422-.286l1.338-.22-.291-1.362a.608.608 0 01.411-.707l1.438-.453-.251-1.216a.608.608 0 01.405-.701l1.311-.432-.474-1.353a.607.607 0 01.052-.515l1.88-3.132A7.633 7.633 0 0162.905 39.66l.087.053c.075.046.147.09.22.138a.61.61 0 01-.215 1.104.608.608 0 01-.457-.09 4.468 4.468 0 00-.183-.111l-.089-.055a6.417 6.417 0 00-8.562 9.183.607.607 0 01.024.662l-1.93 3.213.586 1.669a.607.607 0 01-.384.779l-1.385.456.253 1.222a.608.608 0 01-.412.703l-1.436.452.31 1.444a.609.609 0 01-.496.73l-1.693.28-.495.819.703 3.243 3.02-1.143 6.968-11.59a.604.604 0 01.615-.287 6.352 6.352 0 003.831-.585.61.61 0 01.882.502.61.61 0 01-.34.587 7.558 7.558 0 01-4.15.75l-6.871 11.433a.608.608 0 01-.304.255l-3.878 1.468a.595.595 0 01-.217.04z" fill="#212D55"/><path d="M57.863 53.742a.608.608 0 01-.519-.921l.005-.007a.609.609 0 11.815.849.616.616 0 01-.301.079zm10.38-8.96a.608.608 0 01-.288-1.148 7.76 7.76 0 10-11.685-3.858.607.607 0 11-1.146.406 8.983 8.983 0 1113.457 4.5c-.1.066-.218.1-.338.1z" fill="#212D55"/><defs><filter id="filter0_d" x="0" y="0" width="120" height="109" filterUnits="userSpaceOnUse" color-interpolation-filters="sRGB"><feFlood flood-opacity="0" result="BackgroundImageFix"/><feColorMatrix in="SourceAlpha" values="0 0 0 0 0 0 0 0 0 0 0 0 0 0 0 0 0 0 127 0" result="hardAlpha"/><feOffset dy="5"/><feGaussianBlur stdDeviation="10"/><feComposite in2="hardAlpha" operator="out"/><feColorMatrix values="0 0 0 0 0.129412 0 0 0 0 0.176471 0 0 0 0 0.333333 0 0 0 0.2 0"/><feBlend in2="BackgroundImageFix" result="effect1_dropShadow"/><feBlend in="SourceGraphic" in2="effect1_dropShadow" result="shape"/></filter></defs></svg>