<svg width="120" height="109" fill="none" xmlns="http://www.w3.org/2000/svg"><g filter="url(#filter0_d)"><path fill-rule="evenodd" clip-rule="evenodd" d="M30 15c-5.523 0-10 4.477-10 10v17.39c2.509.394 4.46 3.427 4.46 7.11 0 3.683-1.951 6.716-4.46 7.11V74c0 5.523 4.477 10 10 10h60c5.523 0 10-4.477 10-10V25c0-5.523-4.477-10-10-10H30z" fill="#fff"/></g><path d="M68.066 65.969a.608.608 0 01-.608-.608V33.057l-7.707-3.234-6.472 2.547v32.99a.609.609 0 01-1.217 0V31.956a.608.608 0 01.386-.566l7.087-2.788a.608.608 0 01.458.004l8.308 3.487a.608.608 0 01.373.56v32.709a.609.609 0 01-.608.608z" fill="#212D55"/><path d="M59.757 65.969a.609.609 0 01-.609-.608V29.167a.608.608 0 011.217 0V65.36a.608.608 0 01-.608.608zm18.126 0a.609.609 0 01-.608-.608V46.248l-5.946-3.46h-3.264a.609.609 0 010-1.216h3.428c.107 0 .212.029.304.083l6.39 3.718a.608.608 0 01.305.525v19.46a.609.609 0 01-.609.61z" fill="#212D55"/><path d="M71.495 65.969a.608.608 0 01-.608-.608V42.18a.608.608 0 011.216 0v23.18a.608.608 0 01-.608.608zm-31.317 0a.608.608 0 01-.608-.608V46.42a.608.608 0 01.608-.608H52.67a.608.608 0 010 1.216H40.786V65.36a.608.608 0 01-.608.608z" fill="#212D55"/><path d="M43.53 49.365h-1.293a.608.608 0 110-1.216h1.292a.608.608 0 010 1.216zm3.543 0H45.78a.608.608 0 110-1.216h1.293a.608.608 0 010 1.216zm3.542 0h-1.292a.608.608 0 110-1.216h1.292a.608.608 0 010 1.216zm-7.085 2.854h-1.293a.608.608 0 110-1.216h1.292a.608.608 0 010 1.216zm3.543 0H45.78a.608.608 0 110-1.216h1.293a.608.608 0 010 1.216zm3.542 0h-1.292a.608.608 0 110-1.216h1.292a.608.608 0 010 1.216zm-7.085 2.853h-1.293a.608.608 0 010-1.216h1.292a.608.608 0 010 1.216zm3.543 0H45.78a.608.608 0 010-1.216h1.293a.608.608 0 010 1.216zm3.542 0h-1.292a.608.608 0 010-1.216h1.292a.608.608 0 010 1.216zm-7.085 2.854h-1.293a.608.608 0 110-1.216h1.292a.608.608 0 010 1.216zm3.543 0H45.78a.608.608 0 110-1.216h1.293a.608.608 0 010 1.216zm3.542 0h-1.292a.608.608 0 110-1.216h1.292a.608.608 0 010 1.216zM43.53 60.78h-1.293a.608.608 0 010-1.216h1.292a.608.608 0 010 1.216zm3.543 0H45.78a.608.608 0 010-1.216h1.293a.608.608 0 010 1.216zm3.542 0h-1.292a.608.608 0 010-1.216h1.292a.608.608 0 010 1.216zm-7.085 2.854h-1.293a.608.608 0 110-1.217h1.292a.608.608 0 010 1.217zm3.543 0H45.78a.608.608 0 110-1.217h1.293a.608.608 0 010 1.217zm3.542 0h-1.292a.608.608 0 110-1.217h1.292a.608.608 0 010 1.217zm7.001-28.514a.608.608 0 01-.608-.609v-1.147a.609.609 0 011.216 0v1.147a.608.608 0 01-.608.608zm-2.773.707a.608.608 0 01-.609-.608V34.07a.608.608 0 111.217 0v1.148a.609.609 0 01-.608.608zm2.773 3.867a.608.608 0 01-.608-.608v-1.148a.608.608 0 011.216 0v1.148a.608.608 0 01-.608.608zm-2.773.706a.608.608 0 01-.609-.607v-1.148a.608.608 0 111.217 0v1.148a.608.608 0 01-.608.608zm2.773 3.87a.608.608 0 01-.608-.608v-1.15a.608.608 0 011.216 0v1.15a.608.608 0 01-.608.608zm-2.773.705a.608.608 0 01-.609-.608v-1.148a.608.608 0 111.217 0v1.148a.608.608 0 01-.608.608zm2.773 3.866a.608.608 0 01-.608-.608v-1.147a.609.609 0 011.216 0v1.147a.608.608 0 01-.608.608zm-2.773.708a.608.608 0 01-.609-.608v-1.148a.608.608 0 111.217 0v1.148a.608.608 0 01-.608.608zm2.773 3.867a.608.608 0 01-.608-.608V51.66a.608.608 0 011.216 0v1.148a.608.608 0 01-.608.608zm-2.773.706a.608.608 0 01-.609-.608v-1.147a.608.608 0 111.217 0v1.147a.608.608 0 01-.608.608zm2.773 3.868a.608.608 0 01-.608-.608v-1.148a.608.608 0 011.216 0v1.148a.608.608 0 01-.608.608zm-2.773.707a.608.608 0 01-.609-.608V56.94a.608.608 0 111.217 0v1.148a.608.608 0 01-.608.608zm2.773 3.866a.608.608 0 01-.608-.608v-1.144a.608.608 0 011.216 0v1.147a.608.608 0 01-.608.605zm-2.773.708a.608.608 0 01-.609-.608v-1.148a.608.608 0 111.217 0v1.148a.608.608 0 01-.608.608zm6.968-28.731a.608.608 0 01-.608-.608v-1.146a.609.609 0 011.216 0v1.146a.608.608 0 01-.608.608zm2.055.776a.608.608 0 01-.608-.608V33.56a.608.608 0 011.216 0v1.147a.608.608 0 01-.608.608zm2.051.774a.608.608 0 01-.608-.608v-1.146a.608.608 0 011.216 0v1.147a.608.608 0 01-.608.608zm-4.106 3.011a.608.608 0 01-.608-.608v-1.15a.608.608 0 011.216 0v1.15a.608.608 0 01-.608.608zm2.055.773a.608.608 0 01-.608-.608v-1.147a.608.608 0 011.216 0v1.147a.608.608 0 01-.608.608zm2.051.774a.608.608 0 01-.608-.608v-1.147a.608.608 0 011.216 0v1.148a.608.608 0 01-.608.607zm-4.106 3.009a.609.609 0 01-.608-.608V41.9a.609.609 0 011.216 0v1.147a.608.608 0 01-.608.611zm2.055.775a.608.608 0 01-.608-.608v-1.148a.608.608 0 011.216 0v1.148a.608.608 0 01-.608.608zm2.051.774a.608.608 0 01-.608-.608v-1.147a.608.608 0 011.216 0V44.6a.608.608 0 01-.608.607zm-4.106 3.009a.609.609 0 01-.608-.608v-1.148a.608.608 0 011.216 0v1.148a.608.608 0 01-.608.608zm2.055.775a.608.608 0 01-.608-.608v-1.148a.608.608 0 011.216 0v1.148a.608.608 0 01-.608.608zm2.051.774a.608.608 0 01-.608-.608V48.01a.608.608 0 011.216 0v1.147a.608.608 0 01-.608.608zm-4.106 3.009a.609.609 0 01-.608-.608V51.02a.608.608 0 011.216 0v1.148a.608.608 0 01-.608.605zm2.055.774a.608.608 0 01-.608-.608v-1.147a.609.609 0 011.216 0v1.147a.608.608 0 01-.608.608zm2.051.775a.608.608 0 01-.608-.608v-1.147a.608.608 0 011.216 0v1.147a.609.609 0 01-.608.608zm-4.106 3.008a.608.608 0 01-.608-.608v-1.147a.608.608 0 011.216 0v1.147a.608.608 0 01-.608.609zm2.055.775a.608.608 0 01-.608-.608V56.35a.609.609 0 011.216 0v1.147a.608.608 0 01-.608.608zm2.051.775a.608.608 0 01-.608-.608v-1.148a.608.608 0 011.216 0v1.148a.609.609 0 01-.608.608zm-4.106 3.008a.609.609 0 01-.608-.608v-1.147a.608.608 0 011.216 0v1.147a.608.608 0 01-.608.608zm2.055.775a.608.608 0 01-.608-.608v-1.148a.608.608 0 011.216 0v1.148a.608.608 0 01-.608.608zm2.051.775a.608.608 0 01-.608-.608v-1.148a.608.608 0 011.216 0v1.148a.608.608 0 01-.608.608zm7.691-15.975a.608.608 0 01-.608-.608v-.615a.609.609 0 011.216 0v.615a.608.608 0 01-.608.608zm2.051 1.287a.608.608 0 01-.608-.607v-.615a.608.608 0 111.216 0v.615a.608.608 0 01-.608.608zm-2.051 1.716a.608.608 0 01-.608-.608v-.615a.608.608 0 011.216 0v.615a.608.608 0 01-.608.608zm2.051 1.288a.608.608 0 01-.608-.608v-.612a.608.608 0 111.216 0v.615a.608.608 0 01-.608.605zm-2.051 1.716a.608.608 0 01-.608-.61v-.615a.608.608 0 011.216 0v.615a.608.608 0 01-.608.608zm2.051 1.287a.608.608 0 01-.608-.608v-.615a.608.608 0 111.216 0v.615a.608.608 0 01-.608.608zm-2.051 1.715a.608.608 0 01-.608-.608v-.614a.608.608 0 011.216 0v.614a.608.608 0 01-.608.608zm2.051 1.288a.608.608 0 01-.608-.608v-.615a.608.608 0 111.216 0v.615a.608.608 0 01-.608.608zm-2.051 1.713a.608.608 0 01-.608-.608v-.613a.608.608 0 011.216 0v.613a.608.608 0 01-.608.608zm2.051 1.29a.608.608 0 01-.608-.608v-.614a.608.608 0 111.216 0v.614a.608.608 0 01-.608.608zm-2.051 1.716A.608.608 0 0173 61.87v-.615a.609.609 0 011.216 0v.615a.608.608 0 01-.608.608zm2.051 1.287a.608.608 0 01-.608-.608v-.615a.608.608 0 111.216 0v.615a.608.608 0 01-.608.608zm4.051 2.193H38.358a.608.608 0 010-1.216H79.71a.609.609 0 010 1.216z" fill="#212D55"/><defs><filter id="filter0_d" x="0" y="0" width="120" height="109" filterUnits="userSpaceOnUse" color-interpolation-filters="sRGB"><feFlood flood-opacity="0" result="BackgroundImageFix"/><feColorMatrix in="SourceAlpha" values="0 0 0 0 0 0 0 0 0 0 0 0 0 0 0 0 0 0 127 0" result="hardAlpha"/><feOffset dy="5"/><feGaussianBlur stdDeviation="10"/><feComposite in2="hardAlpha" operator="out"/><feColorMatrix values="0 0 0 0 0.129412 0 0 0 0 0.176471 0 0 0 0 0.333333 0 0 0 0.2 0"/><feBlend in2="BackgroundImageFix" result="effect1_dropShadow"/><feBlend in="SourceGraphic" in2="effect1_dropShadow" result="shape"/></filter></defs></svg>