<svg width="120" height="109" fill="none" xmlns="http://www.w3.org/2000/svg"><g filter="url(#filter0_d)"><path fill-rule="evenodd" clip-rule="evenodd" d="M30 15c-5.523 0-10 4.477-10 10v17.39c2.509.394 4.46 3.427 4.46 7.11 0 3.683-1.951 6.716-4.46 7.11V74c0 5.523 4.477 10 10 10h60c5.523 0 10-4.477 10-10V25c0-5.523-4.477-10-10-10H30z" fill="#fff"/></g><g clip-path="url(#clip0)" fill="#212D55"><path d="M37.75 72.087h36a.75.75 0 00.75-.75v-6.75h5.25a.75.75 0 00.75-.75v-7.5a.75.75 0 00-.75-.75H74.5v-6.75a.75.75 0 00-.75-.75h-1.376a1.735 1.735 0 00-.307-1.404l-3.389-4.518 1.565-1.174a2.593 2.593 0 001.035-2.222l-.076-1.35a1.1 1.1 0 01.437-.939l1.565-1.173.658.877a.75.75 0 001.05.15l6.188-4.642a2.25 2.25 0 00.45-3.15l-.417-.556a2.253 2.253 0 00-3.15-.449l-6.187 4.642a.75.75 0 00-.15 1.05l.658.878-1.564 1.174a2.59 2.59 0 00-1.035 2.221l.075 1.35c.02.367-.143.72-.437.94l-1.564 1.173-3.39-4.517a1.74 1.74 0 00-1.526-.702 1.664 1.664 0 00-1.346.873l-6.162 11.468H37.75a.75.75 0 00-.75.75v7.5c0 .414.336.75.75.75H43v6h-5.25a.75.75 0 00-.75.75v7.5c0 .414.336.75.75.75zm41.133-43.35a.75.75 0 011.05.15l.417.556a.75.75 0 01-.15 1.05l-5.588 4.192-1.317-1.756 5.588-4.192zM50.5 64.587H61v6H50.5v-6zm6-7.5H67v6H56.5v-6zm16.5 13.5H62.5v-6H73v6zm6-7.5H68.5v-6H79v6zm-6-7.5H62.5V51.22l7.677-1.633H73v6zM62.84 37.33a.157.157 0 01.136-.088h.015c.08.001.153.04.198.106l3.389 4.517-3.094 2.321a.75.75 0 00.9 1.2l3.094-2.32 3.39 4.517a.243.243 0 01.04.235.157.157 0 01-.122.107l-14.88 3.164a.244.244 0 01-.238-.102.24.24 0 01-.03-.257l7.201-13.4zm-8.371 14.557c.4.55 1.085.811 1.75.669L61 51.539v4.048H50.5v-6h4.048l-.232.432a1.724 1.724 0 00.153 1.868zm-15.969.7H40a.75.75 0 100-1.5h-1.5v-1.5H49v6H38.5v-3zm6 4.5H55v6H44.5v-6zm-6 7.5H49v6H38.5v-6z"/><path d="M46.75 51.837a.75.75 0 00-.75-.75h-3a.75.75 0 000 1.5h3a.75.75 0 00.75-.75z"/></g><defs><clipPath id="clip0"><path fill="#fff" transform="translate(37 27)" d="M0 0h45v45H0z"/></clipPath><filter id="filter0_d" x="0" y="0" width="120" height="109" filterUnits="userSpaceOnUse" color-interpolation-filters="sRGB"><feFlood flood-opacity="0" result="BackgroundImageFix"/><feColorMatrix in="SourceAlpha" values="0 0 0 0 0 0 0 0 0 0 0 0 0 0 0 0 0 0 127 0" result="hardAlpha"/><feOffset dy="5"/><feGaussianBlur stdDeviation="10"/><feComposite in2="hardAlpha" operator="out"/><feColorMatrix values="0 0 0 0 0.129412 0 0 0 0 0.176471 0 0 0 0 0.333333 0 0 0 0.2 0"/><feBlend in2="BackgroundImageFix" result="effect1_dropShadow"/><feBlend in="SourceGraphic" in2="effect1_dropShadow" result="shape"/></filter></defs></svg>