<svg width="120" height="109" fill="none" xmlns="http://www.w3.org/2000/svg"><g filter="url(#filter0_d)"><path fill-rule="evenodd" clip-rule="evenodd" d="M30 15c-5.523 0-10 4.477-10 10v17.39c2.509.394 4.46 3.427 4.46 7.11 0 3.683-1.951 6.716-4.46 7.11V74c0 5.523 4.477 10 10 10h60c5.523 0 10-4.477 10-10V25c0-5.523-4.477-10-10-10H30z" fill="#fff"/></g><g clip-path="url(#clip0)"><path d="M47.072 71.09a2.393 2.393 0 01-2.33-2.925l2.894-12.753-9.818-8.61a2.39 2.39 0 01-.7-2.54 2.391 2.391 0 012.056-1.645l12.99-1.18L57.3 29.42a2.391 2.391 0 014.4-.002l5.135 12.02 12.988 1.18a2.388 2.388 0 012.06 1.645 2.39 2.39 0 01-.7 2.54l-9.818 8.609 2.895 12.752a2.39 2.39 0 01-3.559 2.584L59.5 64.053 48.298 70.75c-.378.224-.8.34-1.226.34zM59.5 61.17c.426 0 .847.113 1.226.338l10.572 6.323-2.733-12.036a2.391 2.391 0 01.758-2.33l9.27-8.13L66.33 44.22a2.389 2.389 0 01-1.988-1.45L59.5 31.43l-4.847 11.344a2.382 2.382 0 01-1.982 1.444L40.404 45.33l9.27 8.13c.664.581.955 1.474.758 2.332l-2.73 12.036 10.572-6.32c.378-.226.8-.34 1.226-.34zm-7.435-19.5l-.002.004.002-.004zm14.866-.005l.002.004-.002-.004z" fill="#212D55"/></g><defs><clipPath id="clip0"><path fill="#fff" transform="translate(37 27)" d="M0 0h45v45H0z"/></clipPath><filter id="filter0_d" x="0" y="0" width="120" height="109" filterUnits="userSpaceOnUse" color-interpolation-filters="sRGB"><feFlood flood-opacity="0" result="BackgroundImageFix"/><feColorMatrix in="SourceAlpha" values="0 0 0 0 0 0 0 0 0 0 0 0 0 0 0 0 0 0 127 0" result="hardAlpha"/><feOffset dy="5"/><feGaussianBlur stdDeviation="10"/><feComposite in2="hardAlpha" operator="out"/><feColorMatrix values="0 0 0 0 0.129412 0 0 0 0 0.176471 0 0 0 0 0.333333 0 0 0 0.2 0"/><feBlend in2="BackgroundImageFix" result="effect1_dropShadow"/><feBlend in="SourceGraphic" in2="effect1_dropShadow" result="shape"/></filter></defs></svg>