<svg width="120" height="109" fill="none" xmlns="http://www.w3.org/2000/svg"><g filter="url(#filter0_d)"><path fill-rule="evenodd" clip-rule="evenodd" d="M30 15c-5.523 0-10 4.477-10 10v17.39c2.509.394 4.46 3.427 4.46 7.11 0 3.683-1.951 6.716-4.46 7.11V74c0 5.523 4.477 10 10 10h60c5.523 0 10-4.477 10-10V25c0-5.523-4.477-10-10-10H30z" fill="#fff"/></g><path d="M81.25 70.5h-4.5V45.75A.75.75 0 0076 45H65.5V27.75a.75.75 0 00-.75-.75h-19.5a.75.75 0 00-.75.75V70.5h-6.75a.75.75 0 000 1.5h43.5a.75.75 0 000-1.5zm-28.5 0h-3v-6.75a.75.75 0 01.75-.75H52a.75.75 0 01.75.75v6.75zm3-24.75V70.5h-1.5v-6.75A2.25 2.25 0 0052 61.5h-1.5a2.25 2.25 0 00-2.25 2.25v6.75H46v-42h18V45h-7.5a.75.75 0 00-.75.75zm19.5 24.75h-18v-24h18v24z" fill="#212D55"/><path d="M61 37.5h-4.5a.75.75 0 00-.75.75v4.5c0 .414.336.75.75.75H61a.75.75 0 00.75-.75v-4.5a.75.75 0 00-.75-.75zm-.75 4.5h-3v-3h3v3zM61 30h-4.5a.75.75 0 00-.75.75v4.5c0 .414.336.75.75.75H61a.75.75 0 00.75-.75v-4.5A.75.75 0 0061 30zm-.75 4.5h-3v-3h3v3zm-6.75 3H49a.75.75 0 00-.75.75v4.5c0 .414.336.75.75.75h4.5a.75.75 0 00.75-.75v-4.5a.75.75 0 00-.75-.75zm-.75 4.5h-3v-3h3v3zm.75-12H49a.75.75 0 00-.75.75v4.5c0 .414.336.75.75.75h4.5a.75.75 0 00.75-.75v-4.5a.75.75 0 00-.75-.75zm-.75 4.5h-3v-3h3v3zM53.5 45H49a.75.75 0 00-.75.75v4.5c0 .414.336.75.75.75h4.5a.75.75 0 00.75-.75v-4.5a.75.75 0 00-.75-.75zm-.75 4.5h-3v-3h3v3zm.75 3H49a.75.75 0 00-.75.75v4.5c0 .414.336.75.75.75h4.5a.75.75 0 00.75-.75v-4.5a.75.75 0 00-.75-.75zm-.75 4.5h-3v-3h3v3zm15 4.5h4.5a.75.75 0 00.75-.75v-4.5a.75.75 0 00-.75-.75h-4.5a.75.75 0 00-.75.75v4.5c0 .414.336.75.75.75zm.75-4.5h3v3h-3v-3zm-.75-3h4.5a.75.75 0 00.75-.75v-4.5a.75.75 0 00-.75-.75h-4.5a.75.75 0 00-.75.75v4.5c0 .414.336.75.75.75zm.75-4.5h3v3h-3v-3zM67.75 69h4.5a.75.75 0 00.75-.75v-4.5a.75.75 0 00-.75-.75h-4.5a.75.75 0 00-.75.75v4.5c0 .414.336.75.75.75zm.75-4.5h3v3h-3v-3zm-8.25-3h4.5a.75.75 0 00.75-.75v-4.5a.75.75 0 00-.75-.75h-4.5a.75.75 0 00-.75.75v4.5c0 .414.336.75.75.75zM61 57h3v3h-3v-3zm-.75-3h4.5a.75.75 0 00.75-.75v-4.5a.75.75 0 00-.75-.75h-4.5a.75.75 0 00-.75.75v4.5c0 .414.336.75.75.75zm.75-4.5h3v3h-3v-3zM60.25 69h4.5a.75.75 0 00.75-.75v-4.5a.75.75 0 00-.75-.75h-4.5a.75.75 0 00-.75.75v4.5c0 .414.336.75.75.75zm.75-4.5h3v3h-3v-3z" fill="#212D55"/><defs><filter id="filter0_d" x="0" y="0" width="120" height="109" filterUnits="userSpaceOnUse" color-interpolation-filters="sRGB"><feFlood flood-opacity="0" result="BackgroundImageFix"/><feColorMatrix in="SourceAlpha" values="0 0 0 0 0 0 0 0 0 0 0 0 0 0 0 0 0 0 127 0" result="hardAlpha"/><feOffset dy="5"/><feGaussianBlur stdDeviation="10"/><feComposite in2="hardAlpha" operator="out"/><feColorMatrix values="0 0 0 0 0.129412 0 0 0 0 0.176471 0 0 0 0 0.333333 0 0 0 0.2 0"/><feBlend in2="BackgroundImageFix" result="effect1_dropShadow"/><feBlend in="SourceGraphic" in2="effect1_dropShadow" result="shape"/></filter></defs></svg>