<svg width="120" height="109" fill="none" xmlns="http://www.w3.org/2000/svg"><g filter="url(#filter0_d)"><path fill-rule="evenodd" clip-rule="evenodd" d="M30 15c-5.523 0-10 4.477-10 10v17.39c2.509.394 4.46 3.427 4.46 7.11 0 3.683-1.951 6.716-4.46 7.11V74c0 5.523 4.477 10 10 10h60c5.523 0 10-4.477 10-10V25c0-5.523-4.477-10-10-10H30z" fill="#fff"/></g><path d="M61.745 37.919h-8.046V61.08h2.637v-7.34h5.409c4.287 0 7.774-3.488 7.774-7.775v-.27c0-4.288-3.487-7.775-7.774-7.775zm5.138 8.045a5.144 5.144 0 01-5.138 5.138h-5.41V40.555h5.41a5.144 5.144 0 015.138 5.138v.271z" fill="#212D55"/><path d="M75.41 33.59C71.16 29.34 65.51 27 59.5 27s-11.66 2.34-15.91 6.59S37 43.49 37 49.5s2.34 11.66 6.59 15.91S53.49 72 59.5 72s11.66-2.34 15.91-6.59S82 55.51 82 49.5s-2.34-11.66-6.59-15.91zm-1.864 29.955A19.734 19.734 0 0159.5 69.364a19.733 19.733 0 01-14.045-5.818A19.733 19.733 0 0139.637 49.5a19.734 19.734 0 015.818-14.045A19.733 19.733 0 0159.5 29.637a19.734 19.734 0 0114.046 5.818A19.734 19.734 0 0179.363 49.5a19.734 19.734 0 01-5.817 14.045z" fill="#212D55"/><defs><filter id="filter0_d" x="0" y="0" width="120" height="109" filterUnits="userSpaceOnUse" color-interpolation-filters="sRGB"><feFlood flood-opacity="0" result="BackgroundImageFix"/><feColorMatrix in="SourceAlpha" values="0 0 0 0 0 0 0 0 0 0 0 0 0 0 0 0 0 0 127 0" result="hardAlpha"/><feOffset dy="5"/><feGaussianBlur stdDeviation="10"/><feComposite in2="hardAlpha" operator="out"/><feColorMatrix values="0 0 0 0 0.129412 0 0 0 0 0.176471 0 0 0 0 0.333333 0 0 0 0.2 0"/><feBlend in2="BackgroundImageFix" result="effect1_dropShadow"/><feBlend in="SourceGraphic" in2="effect1_dropShadow" result="shape"/></filter></defs></svg>