<svg width="120" height="109" fill="none" xmlns="http://www.w3.org/2000/svg"><g filter="url(#filter0_d)"><path fill-rule="evenodd" clip-rule="evenodd" d="M30 15c-5.523 0-10 4.477-10 10v17.39c2.509.394 4.46 3.427 4.46 7.11 0 3.683-1.951 6.716-4.46 7.11V74c0 5.523 4.477 10 10 10h60c5.523 0 10-4.477 10-10V25c0-5.523-4.477-10-10-10H30z" fill="#fff"/></g><path d="M79.89 62.86h-2.366l-11.65-24.671.514-1.797a3.516 3.516 0 00-2.618-4.398l-.828-.184a3.52 3.52 0 00-4.142 2.466l-1.74 6.084h-1.41l-1.025-2.17.514-1.797a3.516 3.516 0 00-2.618-4.398l-.85-.189a3.526 3.526 0 00-4.135 2.436l-9.102 31.942a.703.703 0 001.353.384l1.051-3.708h9.796l-.95 3.323a.703.703 0 001.353.386l4.522-15.828 7.525 15.935a.703.703 0 00.636.403h16.172a.703.703 0 00.703-.703v-2.813a.703.703 0 00-.703-.703zM60.153 34.662a2.11 2.11 0 012.485-1.48l.828.184a2.11 2.11 0 011.57 2.639l-.44 1.54h-5.267l.824-2.883zm-11.268-.023a2.116 2.116 0 012.48-1.462l.85.189a2.11 2.11 0 011.571 2.639l-.44 1.54h-5.32l.86-2.907zm-5.256 18.376l.798-2.813h9.823l-.804 2.813h-9.817zm9.416 1.406l-.804 2.812h-9.808l.797-2.812h9.815zm-8.22-5.625l.798-2.813h7.69l1.328 2.813h-9.816zm1.197-4.219l.797-2.812h4.502l1.328 2.812h-6.627zm-4.785 16.875l.797-2.812h9.805l-.803 2.812h-9.799zm26.702 4.219h-3.773l-11.763-24.91a.703.703 0 00-.636-.403h-4.55l.4-1.406h5.814l11.763 24.91a.703.703 0 00.635.403h2.11v1.406zm1.406 0v-2.11a.703.703 0 00-.703-.703h-2.367l-9.961-21.093h6.257l11.29 23.906h-4.516zm9.844 0h-3.773l-11.763-24.91a.703.703 0 00-.636-.403h-4.492l.402-1.406h5.754l11.763 24.91a.703.703 0 00.635.403h2.11v1.406z" fill="#212D55"/><defs><filter id="filter0_d" x="0" y="0" width="120" height="109" filterUnits="userSpaceOnUse" color-interpolation-filters="sRGB"><feFlood flood-opacity="0" result="BackgroundImageFix"/><feColorMatrix in="SourceAlpha" values="0 0 0 0 0 0 0 0 0 0 0 0 0 0 0 0 0 0 127 0" result="hardAlpha"/><feOffset dy="5"/><feGaussianBlur stdDeviation="10"/><feComposite in2="hardAlpha" operator="out"/><feColorMatrix values="0 0 0 0 0.129412 0 0 0 0 0.176471 0 0 0 0 0.333333 0 0 0 0.2 0"/><feBlend in2="BackgroundImageFix" result="effect1_dropShadow"/><feBlend in="SourceGraphic" in2="effect1_dropShadow" result="shape"/></filter></defs></svg>