<svg width="120" height="109" fill="none" xmlns="http://www.w3.org/2000/svg"><g filter="url(#filter0_d)"><path fill-rule="evenodd" clip-rule="evenodd" d="M30 15c-5.523 0-10 4.477-10 10v17.39c2.509.394 4.46 3.427 4.46 7.11 0 3.683-1.951 6.716-4.46 7.11V74c0 5.523 4.477 10 10 10h60c5.523 0 10-4.477 10-10V25c0-5.523-4.477-10-10-10H30z" fill="#fff"/></g><path d="M37.703 66.375h43.594a.702.702 0 00.703-.703V51.61a2.818 2.818 0 00-2.815-2.814h-7.863a2.105 2.105 0 00-1.978-1.401h-2.799c-.005 0-.009-.003-.014-.003a2.112 2.112 0 01-2.11-2.11v-7.736a4.928 4.928 0 00-4.921-4.922 4.928 4.928 0 00-4.922 4.922v7.736c0 1.163-.946 2.11-2.11 2.11l-.013.002h-2.799c-.914 0-1.685.588-1.978 1.402h-7.863c-.007 0-.012.003-.019.003A2.815 2.815 0 0037 51.612v14.059c0 .389.314.703.703.703zm42.89-3.516H38.407v-5.626h42.188v5.626zm-42.187 2.11v-.703h42.188v.703H38.406zm17.578-19.686v-7.736A3.52 3.52 0 0159.5 34.03a3.52 3.52 0 013.516 3.516v7.736a3.518 3.518 0 003.488 3.513c.01 0 .017.006.027.006h2.813c.388 0 .703.315.703.703v3.513H48.953v-3.513c0-.388.315-.703.703-.703h2.813c.01 0 .017-.005.027-.006a3.518 3.518 0 003.488-3.513zm-16.172 4.922l.011-.002h7.724v3.518c0 .389.314.703.703.703h22.5a.702.702 0 00.703-.703v-3.518h7.732a1.41 1.41 0 011.409 1.408v4.216H38.406v-4.215c0-.776.631-1.407 1.407-1.407z" fill="#212D55"/><path d="M59.5 39.656c1.163 0 2.11-.947 2.11-2.11 0-1.163-.947-2.11-2.11-2.11-1.163 0-2.11.947-2.11 2.11 0 1.163.947 2.11 2.11 2.11zm0-2.813a.703.703 0 110 1.407.703.703 0 010-1.407z" fill="#212D55"/><defs><filter id="filter0_d" x="0" y="0" width="120" height="109" filterUnits="userSpaceOnUse" color-interpolation-filters="sRGB"><feFlood flood-opacity="0" result="BackgroundImageFix"/><feColorMatrix in="SourceAlpha" values="0 0 0 0 0 0 0 0 0 0 0 0 0 0 0 0 0 0 127 0" result="hardAlpha"/><feOffset dy="5"/><feGaussianBlur stdDeviation="10"/><feComposite in2="hardAlpha" operator="out"/><feColorMatrix values="0 0 0 0 0.129412 0 0 0 0 0.176471 0 0 0 0 0.333333 0 0 0 0.2 0"/><feBlend in2="BackgroundImageFix" result="effect1_dropShadow"/><feBlend in="SourceGraphic" in2="effect1_dropShadow" result="shape"/></filter></defs></svg>