<svg width="80" height="80" fill="none" xmlns="http://www.w3.org/2000/svg"><g filter="url(#filter0_d)"><circle cx="40" cy="37" r="25" fill="#fff"/></g><path d="M39.998 25c-4.888 0-8.865 3.977-8.865 8.866 0 1.61.722 3.34.752 3.413.233.553.693 1.413 1.025 1.917l6.078 9.21c.25.378.617.594 1.01.594.394 0 .762-.216 1.01-.593l6.08-9.211a14.24 14.24 0 001.025-1.917c.03-.073.751-1.803.751-3.413C48.864 28.977 44.887 25 40 25zm7.153 11.874a13.097 13.097 0 01-.934 1.747l-6.08 9.211c-.12.182-.157.182-.277 0l-6.08-9.21a13.102 13.102 0 01-.934-1.748c-.008-.022-.67-1.615-.67-3.008 0-4.314 3.51-7.823 7.822-7.823 4.314 0 7.823 3.51 7.823 7.823 0 1.395-.663 2.993-.67 3.008z" fill="#31BEF4"/><path d="M39.998 29.173a4.699 4.699 0 00-4.693 4.693 4.699 4.699 0 004.693 4.694 4.699 4.699 0 004.694-4.694 4.699 4.699 0 00-4.694-4.693zm0 8.344a3.655 3.655 0 01-3.65-3.65 3.655 3.655 0 013.65-3.651 3.655 3.655 0 013.65 3.65 3.655 3.655 0 01-3.65 3.65z" fill="#31BEF4"/><defs><filter id="filter0_d" x="0" y="0" width="80" height="80" filterUnits="userSpaceOnUse" color-interpolation-filters="sRGB"><feFlood flood-opacity="0" result="BackgroundImageFix"/><feColorMatrix in="SourceAlpha" values="0 0 0 0 0 0 0 0 0 0 0 0 0 0 0 0 0 0 127 0" result="hardAlpha"/><feOffset dy="3"/><feGaussianBlur stdDeviation="7.5"/><feComposite in2="hardAlpha" operator="out"/><feColorMatrix values="0 0 0 0 0.129412 0 0 0 0 0.176471 0 0 0 0 0.333333 0 0 0 0.1 0"/><feBlend in2="BackgroundImageFix" result="effect1_dropShadow"/><feBlend in="SourceGraphic" in2="effect1_dropShadow" result="shape"/></filter></defs></svg>