<svg width="81" height="81" fill="none" xmlns="http://www.w3.org/2000/svg"><g filter="url(#filter0_d)"><circle cx="40.5" cy="37.5" r="25.5" fill="#fff"/></g><path d="M40.499 23c-5.33 0-9.667 4.337-9.667 9.667 0 1.6.4 3.186 1.16 4.593l7.978 14.428a.603.603 0 001.057 0l7.98-14.432a9.683 9.683 0 001.158-4.59c0-5.33-4.336-9.666-9.666-9.666zm0 14.5a4.839 4.839 0 01-4.834-4.833 4.839 4.839 0 014.834-4.834 4.839 4.839 0 014.833 4.834 4.839 4.839 0 01-4.833 4.833z" fill="#31BEF4"/><defs><filter id="filter0_d" x="0" y="0" width="81" height="81" filterUnits="userSpaceOnUse" color-interpolation-filters="sRGB"><feFlood flood-opacity="0" result="BackgroundImageFix"/><feColorMatrix in="SourceAlpha" values="0 0 0 0 0 0 0 0 0 0 0 0 0 0 0 0 0 0 127 0" result="hardAlpha"/><feOffset dy="3"/><feGaussianBlur stdDeviation="7.5"/><feComposite in2="hardAlpha" operator="out"/><feColorMatrix values="0 0 0 0 0.129412 0 0 0 0 0.176471 0 0 0 0 0.333333 0 0 0 0.15 0"/><feBlend in2="BackgroundImageFix" result="effect1_dropShadow"/><feBlend in="SourceGraphic" in2="effect1_dropShadow" result="shape"/></filter></defs></svg>