<svg width="81" height="81" fill="none" xmlns="http://www.w3.org/2000/svg"><g filter="url(#filter0_d)"><circle cx="40.5" cy="37.5" r="24.5" stroke="#31BEF4" stroke-width="2" shape-rendering="crispEdges"/></g><g clip-path="url(#clip0)"><path d="M38.076 49.389c.808.818 2.609.547 2.803-.74 1.206-7.988 7.241-14.726 11.809-21.076 1.266-1.76-1.646-3.432-2.896-1.693-4.174 5.802-9.434 11.907-11.492 18.948-2.352-2.404-4.713-4.784-7.351-6.896-1.67-1.339-4.06 1.019-2.372 2.371 3.437 2.753 6.407 5.963 9.499 9.086z" fill="#31BEF4"/></g><defs><clipPath id="clip0"><path fill="#fff" transform="translate(28 25)" d="M0 0h25v25H0z"/></clipPath><filter id="filter0_d" x="0" y="0" width="81" height="81" filterUnits="userSpaceOnUse" color-interpolation-filters="sRGB"><feFlood flood-opacity="0" result="BackgroundImageFix"/><feColorMatrix in="SourceAlpha" values="0 0 0 0 0 0 0 0 0 0 0 0 0 0 0 0 0 0 127 0" result="hardAlpha"/><feOffset dy="3"/><feGaussianBlur stdDeviation="7.5"/><feComposite in2="hardAlpha" operator="out"/><feColorMatrix values="0 0 0 0 0.192157 0 0 0 0 0.745098 0 0 0 0 0.956863 0 0 0 0.4 0"/><feBlend in2="BackgroundImageFix" result="effect1_dropShadow"/><feBlend in="SourceGraphic" in2="effect1_dropShadow" result="shape"/></filter></defs></svg>