<svg width="75" height="75" fill="none" xmlns="http://www.w3.org/2000/svg"><circle cx="37.5" cy="34.5" r="21.5" stroke="#31BEF4" stroke-width="2" shape-rendering="crispEdges"/><path d="M35.657 43.535c.615.622 1.983.416 2.13-.562.917-6.07 5.504-11.192 8.976-16.018.962-1.337-1.251-2.607-2.201-1.286-3.172 4.41-7.17 9.05-8.734 14.4-1.788-1.826-3.582-3.636-5.587-5.24-1.27-1.018-3.085.774-1.802 1.801 2.612 2.092 4.869 4.532 7.218 6.905z" fill="#31BEF4"/><defs><clipPath id="clip0"><path fill="#fff" transform="translate(28 25)" d="M0 0h19v19H0z"/></clipPath><filter id="filter0_d" x="0" y="0" width="75" height="75" filterUnits="userSpaceOnUse" color-interpolation-filters="sRGB"><feFlood flood-opacity="0" result="BackgroundImageFix"/><feColorMatrix in="SourceAlpha" values="0 0 0 0 0 0 0 0 0 0 0 0 0 0 0 0 0 0 127 0" result="hardAlpha"/><feOffset dy="3"/><feGaussianBlur stdDeviation="7.5"/><feComposite in2="hardAlpha" operator="out"/><feColorMatrix values="0 0 0 0 0.192157 0 0 0 0 0.745098 0 0 0 0 0.956863 0 0 0 0.4 0"/><feBlend in2="BackgroundImageFix" result="effect1_dropShadow"/><feBlend in="SourceGraphic" in2="effect1_dropShadow" result="shape"/></filter></defs></svg>