<svg width="80" height="80" fill="none" xmlns="http://www.w3.org/2000/svg"><g filter="url(#filter0_d)"><circle cx="40" cy="37" r="25" fill="#fff"/></g><path d="M40 25c-6.627 0-12 5.373-12 12s5.373 12 12 12 12-5.373 12-12c-.008-6.624-5.376-11.992-12-12zm0 23.226c-6.2 0-11.226-5.026-11.226-11.226 0-6.2 5.026-11.226 11.226-11.226 6.2 0 11.226 5.026 11.226 11.226-.007 6.197-5.029 11.219-11.226 11.226z" fill="#31BEF4"/><path d="M40 28.097a.387.387 0 00.388-.387v-1.162a.387.387 0 10-.775 0v1.162c0 .213.174.387.387.387zm0 17.806a.387.387 0 00-.387.387v1.162a.387.387 0 10.775 0V46.29a.387.387 0 00-.388-.387zm10.45-9.29h-1.16a.387.387 0 000 .774h1.16a.387.387 0 100-.774zm-19.741 0h-1.162a.387.387 0 100 .774h1.162a.387.387 0 100-.774zm14.438-5.306h-.002l-4.258 4.258a.377.377 0 00-.08.12 1.513 1.513 0 00-1.615 0 .375.375 0 00-.08-.12l-3.097-3.097a.387.387 0 00-.547.548l3.097 3.096a.375.375 0 00.12.08 1.533 1.533 0 00-.234.808 1.548 1.548 0 003.097 0c0-.286-.08-.566-.232-.808a.375.375 0 00.12-.08l4.258-4.258a.387.387 0 00-.547-.547zM40 37.774a.774.774 0 110-1.548.774.774 0 010 1.548z" fill="#31BEF4"/><defs><filter id="filter0_d" x="0" y="0" width="80" height="80" filterUnits="userSpaceOnUse" color-interpolation-filters="sRGB"><feFlood flood-opacity="0" result="BackgroundImageFix"/><feColorMatrix in="SourceAlpha" values="0 0 0 0 0 0 0 0 0 0 0 0 0 0 0 0 0 0 127 0" result="hardAlpha"/><feOffset dy="3"/><feGaussianBlur stdDeviation="7.5"/><feComposite in2="hardAlpha" operator="out"/><feColorMatrix values="0 0 0 0 0.129412 0 0 0 0 0.176471 0 0 0 0 0.333333 0 0 0 0.1 0"/><feBlend in2="BackgroundImageFix" result="effect1_dropShadow"/><feBlend in="SourceGraphic" in2="effect1_dropShadow" result="shape"/></filter></defs></svg>