<svg width="52" height="52" fill="none" xmlns="http://www.w3.org/2000/svg"><circle cx="26" cy="26" r="26" fill="#31BEF4"/><g clip-path="url(#clip0)"><path d="M34.679 30.704c-1.45-1.24-2.921-1.991-4.353-.753l-.855.748c-.626.543-1.79 3.082-6.287-2.092-4.496-5.167-1.82-5.972-1.194-6.51l.86-.75c1.424-1.24.887-2.803-.14-4.41l-.62-.975c-1.033-1.604-2.157-2.658-3.585-1.419l-.772.675c-.631.46-2.396 1.954-2.824 4.794-.515 3.407 1.11 7.309 4.833 11.59C23.46 35.885 27.101 38.036 30.55 38c2.867-.03 4.597-1.569 5.139-2.128l.774-.675c1.425-1.238.54-2.499-.911-3.742l-.872-.75z" fill="#fff"/><g clip-path="url(#clip1)"><path d="M27.16 26.005l5.143-.67c.526-.075.752-.731.368-1.103l-.776-.752c-.249-.24-.307-.617-.066-.866l4.486-4.634c.24-.249.257-.627 0-.875l-1.22-1.182a.638.638 0 00-.89.015L29.72 20.57c-.24.25-.597.225-.845-.015l-.776-.752c-.377-.364-1.026-.117-1.077.403l-.555 5.097c-.06.409.287.76.694.7z" fill="#fff"/></g></g><defs><clipPath id="clip0"><path fill="#fff" transform="translate(14 14)" d="M0 0h24v24H0z"/></clipPath><clipPath id="clip1"><path fill="#fff" transform="rotate(134.07 15.733 19.077)" d="M0 0h13v13H0z"/></clipPath></defs></svg>