<svg width="64" height="19" fill="none" xmlns="http://www.w3.org/2000/svg"><path d="M29.408 3.608c1.696 0 3.083.56 4.16 1.68C34.656 6.398 35.2 7.768 35.2 9.4c0 1.632-.544 3.008-1.632 4.128-1.077 1.11-2.464 1.664-4.16 1.664a5.66 5.66 0 01-2.864-.752 5.146 5.146 0 01-1.984-2.016l.992-.56a3.977 3.977 0 001.568 1.632 4.452 4.452 0 002.288.608c1.29 0 2.357-.395 3.2-1.184.843-.79 1.323-1.787 1.44-2.992H27.92V8.872h6.128c-.117-1.205-.597-2.203-1.44-2.992-.843-.79-1.91-1.184-3.2-1.184-.832 0-1.595.203-2.288.608a3.977 3.977 0 00-1.568 1.632l-.992-.576a5.15 5.15 0 012-2 5.573 5.573 0 012.848-.752zM42.724 7v1.024h-2.832V15h-1.056V8.024h-2.832V7h6.72zm7.854 0h1.056v8h-1.056v-1.568c-.736 1.173-1.813 1.76-3.232 1.76-1.141 0-2.117-.405-2.928-1.216-.8-.81-1.2-1.803-1.2-2.976s.4-2.165 1.2-2.976c.81-.81 1.787-1.216 2.928-1.216 1.419 0 2.496.587 3.232 1.76V7zm-5.392 6.256c.608.608 1.355.912 2.24.912.886 0 1.632-.304 2.24-.912.608-.619.912-1.37.912-2.256 0-.885-.304-1.632-.912-2.24-.608-.619-1.354-.928-2.24-.928-.885 0-1.632.31-2.24.928-.608.608-.912 1.355-.912 2.24 0 .885.304 1.637.912 2.256zM63.214 15h-1.28l-3.264-3.856V15h-1.056v-3.856L54.35 15h-1.28l3.584-4.16L53.23 7h1.28l3.104 3.552V7h1.056v3.552L61.774 7h1.28l-3.424 3.84L63.214 15zM17.7 17.4h-1.8V7.5a.3.3 0 00-.3-.3h-4.2V.3a.3.3 0 00-.3-.3H3.3a.3.3 0 00-.3.3v17.1H.3a.3.3 0 100 .6h17.4a.3.3 0 100-.6zm-11.4 0H5.1v-2.7a.3.3 0 01.3-.3H6a.3.3 0 01.3.3v2.7zm1.2-9.9v9.9h-.6v-2.7a.9.9 0 00-.9-.9h-.6a.9.9 0 00-.9.9v2.7h-.9V.6h7.2v6.6h-3a.3.3 0 00-.3.3zm7.8 9.9H8.1V7.8h7.2v9.6z" fill="#656D89"/><path d="M9.6 4.2H7.8a.3.3 0 00-.3.3v1.8a.3.3 0 00.3.3h1.8a.3.3 0 00.3-.3V4.5a.3.3 0 00-.3-.3zM9.3 6H8.1V4.8h1.2V6zm.3-4.8H7.8a.3.3 0 00-.3.3v1.8a.3.3 0 00.3.3h1.8a.3.3 0 00.3-.3V1.5a.3.3 0 00-.3-.3zM9.3 3H8.1V1.8h1.2V3zM6.6 4.2H4.8a.3.3 0 00-.3.3v1.8a.3.3 0 00.3.3h1.8a.3.3 0 00.3-.3V4.5a.3.3 0 00-.3-.3zM6.3 6H5.1V4.8h1.2V6zm.3-4.8H4.8a.3.3 0 00-.3.3v1.8a.3.3 0 00.3.3h1.8a.3.3 0 00.3-.3V1.5a.3.3 0 00-.3-.3zM6.3 3H5.1V1.8h1.2V3zm.3 4.2H4.8a.3.3 0 00-.3.3v1.8a.3.3 0 00.3.3h1.8a.3.3 0 00.3-.3V7.5a.3.3 0 00-.3-.3zM6.3 9H5.1V7.8h1.2V9zm.3 1.2H4.8a.3.3 0 00-.3.3v1.8a.3.3 0 00.3.3h1.8a.3.3 0 00.3-.3v-1.8a.3.3 0 00-.3-.3zM6.3 12H5.1v-1.2h1.2V12zm6 1.8h1.8a.3.3 0 00.3-.3v-1.8a.3.3 0 00-.3-.3h-1.8a.3.3 0 00-.3.3v1.8a.3.3 0 00.3.3zm.3-1.8h1.2v1.2h-1.2V12zm-.3-1.2h1.8a.3.3 0 00.3-.3V8.7a.3.3 0 00-.3-.3h-1.8a.3.3 0 00-.3.3v1.8a.3.3 0 00.3.3zm.3-1.8h1.2v1.2h-1.2V9zm-.3 7.8h1.8a.3.3 0 00.3-.3v-1.8a.3.3 0 00-.3-.3h-1.8a.3.3 0 00-.3.3v1.8a.3.3 0 00.3.3zm.3-1.8h1.2v1.2h-1.2V15zm-3.3-1.2h1.8a.3.3 0 00.3-.3v-1.8a.3.3 0 00-.3-.3H9.3a.3.3 0 00-.3.3v1.8a.3.3 0 00.3.3zm.3-1.8h1.2v1.2H9.6V12zm-.3-1.2h1.8a.3.3 0 00.3-.3V8.7a.3.3 0 00-.3-.3H9.3a.3.3 0 00-.3.3v1.8a.3.3 0 00.3.3zM9.6 9h1.2v1.2H9.6V9zm-.3 7.8h1.8a.3.3 0 00.3-.3v-1.8a.3.3 0 00-.3-.3H9.3a.3.3 0 00-.3.3v1.8a.3.3 0 00.3.3zm.3-1.8h1.2v1.2H9.6V15z" fill="#656D89"/></svg>