<svg width="80" height="80" fill="none" xmlns="http://www.w3.org/2000/svg"><g filter="url(#filter0_d)"><circle cx="40" cy="37" r="25" fill="#fff"/></g><path d="M45.503 25H34.497A6.504 6.504 0 0028 31.497v11.007A6.504 6.504 0 0034.497 49h11.007A6.504 6.504 0 0052 42.504V31.497A6.504 6.504 0 0045.503 25zm5.09 17.504a5.095 5.095 0 01-5.09 5.089H34.497a5.095 5.095 0 01-5.09-5.09V31.498a5.095 5.095 0 015.09-5.09h11.007a5.095 5.095 0 015.089 5.09v11.007z" fill="#31BEF4"/><path d="M40 30.438A6.57 6.57 0 0033.437 37 6.57 6.57 0 0040 43.562 6.57 6.57 0 0046.562 37 6.57 6.57 0 0040 30.437zm0 11.717A5.161 5.161 0 0134.844 37 5.161 5.161 0 0140 31.845 5.161 5.161 0 0145.155 37 5.161 5.161 0 0140 42.155zm6.72-14.048c-1.069 0-1.939.87-1.939 1.939 0 1.07.87 1.94 1.94 1.94 1.069 0 1.939-.87 1.939-1.94 0-1.07-.87-1.94-1.94-1.94zm0 2.471a.533.533 0 11.002-1.065.533.533 0 01-.002 1.065z" fill="#31BEF4"/><defs><filter id="filter0_d" x="0" y="0" width="80" height="80" filterUnits="userSpaceOnUse" color-interpolation-filters="sRGB"><feFlood flood-opacity="0" result="BackgroundImageFix"/><feColorMatrix in="SourceAlpha" values="0 0 0 0 0 0 0 0 0 0 0 0 0 0 0 0 0 0 127 0" result="hardAlpha"/><feOffset dy="3"/><feGaussianBlur stdDeviation="7.5"/><feComposite in2="hardAlpha" operator="out"/><feColorMatrix values="0 0 0 0 0.129412 0 0 0 0 0.176471 0 0 0 0 0.333333 0 0 0 0.1 0"/><feBlend in2="BackgroundImageFix" result="effect1_dropShadow"/><feBlend in="SourceGraphic" in2="effect1_dropShadow" result="shape"/></filter></defs></svg>