<svg width="232" height="399" fill="none" xmlns="http://www.w3.org/2000/svg"><path d="M111.55 167.048c-45.36 0-82.403-36.918-82.403-82.404S66.064 2.24 111.55 2.24c45.486 0 82.404 36.918 82.404 82.404s-37.044 82.404-82.404 82.404zm0-157.122c-41.201 0-74.844 33.516-74.844 74.844 0 41.202 33.516 74.844 74.844 74.844 41.202 0 74.844-33.516 74.844-74.844-.126-41.328-33.642-74.844-74.844-74.844z" fill="#666"/><path d="M110.039 165.41c-45.36 0-82.404-36.918-82.404-82.404 0-45.36 36.918-82.404 82.404-82.404 45.36 0 82.404 36.918 82.404 82.404-.126 45.486-37.044 82.404-82.404 82.404zm0-157.122c-41.202 0-74.844 33.516-74.844 74.844 0 41.202 33.516 74.844 74.844 74.844 41.202 0 74.844-33.516 74.844-74.844 0-41.328-33.642-74.844-74.844-74.844z" fill="url(#paint0_linear)"/><path d="M58.504 137.312c-2.142-2.016-4.158-4.158-6.048-6.552-.378 0-.63.126-1.008.126-2.772.63-4.914 1.89-5.04 4.41 2.016 2.394 4.158 4.788 6.426 6.93 1.638-1.764 3.528-3.654 5.67-4.914z" fill="gray"/><path d="M106.006 158.606c.126-.252.378-.504.504-.756-8.316-.378-16.254-2.142-23.688-4.914-.504.504-1.008 1.134-1.386 1.638-1.134 1.512-2.268 3.024-3.276 4.536 8.694 3.654 18.27 5.796 28.224 6.3-1.386-2.016-1.764-4.41-.378-6.804z" fill="#999"/><path d="M2.56 392.21l-1.386-2.772 49.644-143.766c0-.126.126-.252.126-.378l.126-.378v-.126l1.134-3.15-.756-.378c-.126-2.394-.882-4.788-2.394-6.678l-1.134-1.26c-17.01-17.262-22.806-42.21-14.994-65.142 5.418-16.128 16.884-29.106 32.13-36.666 15.246-7.56 32.508-8.694 48.51-3.15l.252.126c33.012 11.34 50.904 47.502 39.69 80.64-7.812 22.932-28.476 39.69-52.668 42.714-3.276.252-5.922 1.134-7.938 3.78l-.504-.126-1.008 3.024c-.126.252-.252.63-.378.882s-.126.378-.126.63l-4.662 13.986-11.34 6.552-1.134 3.402-8.19 3.402-2.016 5.922 3.78 2.646 1.386 2.772-7.182 21.294-8.82 5.544-6.678 19.656 3.276 2.016L50.692 350l-8.316 4.158-1.638 4.662-1.26-.126 1.512-.63v.126l.126.126 4.536 9.072-1.764 5.166-6.678 3.276 2.142 4.284-4.284 2.142 2.016 4.032c-1.638 1.008-16.884 11.97-16.884 11.97L2.56 392.21zm106.344-250.362c-5.04-1.638-10.332-1.386-15.12 1.008-4.788 2.394-8.316 6.426-9.954 11.34-3.528 10.332 2.016 21.546 12.348 25.074 5.04 1.764 10.458 1.386 15.12-1.008 4.788-2.394 8.316-6.426 9.954-11.34 3.528-10.332-2.016-21.546-12.348-25.074z" fill="#A3720F"/><path d="M1.174 389.312c-.252-1.008-.378-1.89-.504-2.898l48.636-143.64c0-.126.126-.252.126-.378l.126-.378v-.126l1.134-3.15-.756-.378c-.126-2.394-.882-4.788-2.394-6.678l-1.134-1.26c-17.01-17.262-22.806-42.21-14.994-65.142 5.418-16.128 16.884-29.106 32.13-36.666 15.246-7.56 32.508-8.694 48.51-3.15l.252.126c33.012 11.34 50.904 47.502 39.69 80.64-7.812 22.932-28.476 39.69-52.668 42.714-3.276.252-5.922 1.134-7.938 3.78l-.504-.126-1.008 3.024c-.126.252-.252.63-.378.882s-.126.378-.126.63l-4.662 13.986-11.34 6.552-1.134 3.402-8.19 3.402-2.016 5.922 5.166 5.418-7.182 21.294-8.82 5.544-6.678 19.656 4.662 4.914-8.316 4.158-.882 2.52-1.26-.126.756 1.512v.126l.126.126 4.536 9.072-1.764 5.166-6.678 3.276 2.142 4.284-4.284 2.142 2.016 4.032c-1.638 1.008-16.884 11.97-16.884 11.97l-17.514-6.174zm106.47-250.362c-5.04-1.638-10.332-1.386-15.12 1.008-4.788 2.394-8.316 6.426-9.954 11.34-3.528 10.332 2.016 21.546 12.348 25.074 5.04 1.764 10.458 1.386 15.12-1.008 4.788-2.394 8.316-6.426 9.954-11.34 3.402-10.206-2.016-21.546-12.348-25.074z" fill="url(#paint1_linear)"/><path d="M10.876 392.714l-6.048-2.142L56.11 240.506l6.174 2.142-51.408 150.066z" fill="url(#paint2_linear)"/><path d="M16.799 394.73l-3.654-1.26 51.408-150.066 2.142 5.166-49.896 146.16z" fill="url(#paint3_linear)"/><path d="M23.855 391.328l-5.293 3.906 49.645-144.9 2.016 5.67-46.368 135.324z" fill="url(#paint4_linear)"/><path d="M64.174 284.48l4.662-2.016 5.67-16.506-2.016-5.67-8.316 24.192z" fill="url(#paint5_linear)"/><path d="M47.29 345.464l-2.898-3.15 1.26-3.78-4.158 12.348 4.788-2.268 1.008-3.15z" fill="url(#paint6_linear)"/><path d="M41.998 360.836l-2.394-4.788L28.768 387.8c2.142-1.512 4.032-2.898 5.292-3.654l.63-2.016-1.386-2.898 2.898-1.386.756-2.016-1.386-2.898 2.898-1.386 3.528-10.71z" fill="url(#paint7_linear)"/><path d="M51.07 322.658l5.166-3.15 8.82-25.956-2.898-3.024-11.088 32.13z" fill="url(#paint8_linear)"/><path d="M72.111 250.334l7.56 19.152 5.166-14.868-12.726-4.284z" fill="url(#paint9_linear)"/><path d="M121.757 164.78c3.906-11.34-2.142-23.562-13.482-27.468-11.34-3.906-23.562 2.142-27.468 13.482-3.906 11.34 2.142 23.562 13.482 27.468 11.34 3.78 23.688-2.268 27.468-13.482z" stroke="url(#paint10_linear)" stroke-width="1.51" stroke-miterlimit="10"/><path d="M145.311 205.206c11.355-29.408-3.28-62.453-32.688-73.807-29.408-11.355-62.453 3.28-73.808 32.688-11.354 29.408 3.28 62.453 32.689 73.808 29.408 11.354 62.453-3.281 73.807-32.689z" stroke="url(#paint11_linear)" stroke-width="3.022" stroke-miterlimit="10"/><path d="M85.216 269.36l-40.194-13.734 5.796-17.01 40.194 13.86-5.796 16.884z" fill="url(#paint12_linear)"/><path d="M212.224 397.25l-2.898-1.008-66.654-136.71c0-.126-.126-.252-.126-.378l-.252-.378-.126-.126-1.512-3.024-.756.252c-1.764-1.638-4.032-2.772-6.426-3.024l-1.764-.126c-24.192-.126-45.864-13.734-56.574-35.406-7.56-15.246-8.694-32.508-3.15-48.51 5.418-16.128 16.884-29.106 32.13-36.666l.126-.126c31.374-15.372 69.552-2.394 85.05 28.98 10.71 21.798 7.938 48.258-7.056 67.41-2.142 2.394-3.402 5.04-2.898 8.316l-.504.252 1.386 2.898c.126.252.252.63.378.882s.252.378.378.504l6.552 13.23-3.402 12.726 1.638 3.276-3.402 8.19 2.772 5.544 4.536-.756 2.898 1.008 9.954 20.16-2.394 10.206 9.198 18.648 3.78-.882 2.898 1.008-3.024 8.82 2.142 4.41-1.008.882.63-1.512v.126h.126l9.576 3.276 2.394 4.914-2.394 7.056 4.536 1.512-1.512 4.536 4.284 1.386c-.504 1.89-3.528 20.412-3.528 20.412l-16.002 7.812zM110.416 144.998c-4.788 2.394-8.316 6.426-9.954 11.34-1.638 5.04-1.386 10.332 1.008 15.12 4.788 9.702 16.632 13.734 26.46 8.946 4.788-2.394 8.316-6.426 9.954-11.34 1.638-5.04 1.386-10.332-1.008-15.12-4.914-9.702-16.758-13.734-26.46-8.946z" fill="#A3720F"/><path d="M209.198 396.242a29.068 29.068 0 01-2.394-1.764l-67.158-136.08c0-.126-.126-.252-.126-.378l-.252-.378-.126-.126-1.512-3.024-.756.252c-1.764-1.638-4.032-2.772-6.426-3.024l-1.764-.126c-24.192-.126-45.864-13.734-56.574-35.406-7.56-15.246-8.694-32.508-3.15-48.51 5.418-16.128 16.884-29.106 32.13-36.666l.126-.126c31.374-15.372 69.552-2.394 85.05 28.98 10.71 21.798 7.938 48.258-7.056 67.41-2.142 2.394-3.402 5.04-2.898 8.316l-.504.252 1.386 2.898c.126.252.252.63.378.882s.252.378.378.63l6.552 13.23-3.402 12.726 1.638 3.276-3.402 8.19 2.772 5.544 7.434.252 9.954 20.16-2.394 10.206 9.198 18.648 6.678.126-3.024 8.82 1.134 2.394-1.008.882 1.638.504v.126h.126l9.576 3.276 2.394 4.914-2.394 7.056 4.536 1.512-1.512 4.536 4.284 1.386c-.504 1.89-3.528 20.412-3.528 20.412l-16.002 7.812zM107.39 143.99c-4.788 2.394-8.316 6.426-9.954 11.34-1.638 5.04-1.386 10.332 1.008 15.12 4.788 9.702 16.632 13.734 26.46 8.946 4.788-2.394 8.316-6.426 9.954-11.34 1.638-5.04 1.386-10.332-1.008-15.12-4.788-9.702-16.632-13.734-26.46-8.946z" fill="url(#paint13_linear)"/><path d="M218.397 391.706l-5.796 2.898-69.804-142.506 5.796-2.772 69.804 142.38z" fill="url(#paint14_linear)"/><path d="M223.94 389.06l-3.402 1.638-69.804-142.506 5.292 2.142L223.94 389.06z" fill="url(#paint15_linear)"/><path d="M226.587 381.5l-.882 6.678-67.41-137.592 5.418 2.646L226.587 381.5z" fill="url(#paint16_linear)"/><path d="M179.589 277.55l1.89-4.662-7.686-15.624-5.418-2.646 11.214 22.932z" fill="url(#paint17_linear)"/><path d="M210.711 332.612l-4.158-.126-1.764-3.528 5.67 11.592 1.764-5.04-1.512-2.898z" fill="url(#paint18_linear)"/><path d="M217.893 347.102l-5.039-1.764 14.741 30.114c.378-2.52.882-4.788 1.134-6.3l-.882-1.89-3.024-1.008 1.008-3.024-1.008-1.89-3.024-1.008 1.008-3.024-4.914-10.206z" fill="url(#paint19_linear)"/><path d="M197.355 313.712l1.386-5.796-12.096-24.57-4.284-.126 14.994 30.492z" fill="url(#paint20_linear)"/><path d="M161.068 247.814l18.9 8.19-6.93-14.112-11.97 5.922z" fill="url(#paint21_linear)"/><path d="M130.458 177.991c9.016-7.872 9.944-21.563 2.072-30.579-7.872-9.017-21.563-9.944-30.579-2.072-9.017 7.872-9.944 21.563-2.072 30.579 7.872 9.016 21.563 9.944 30.579 2.072z" stroke="url(#paint22_linear)" stroke-width="1.51" stroke-miterlimit="10"/><path d="M183.011 205.237c9.917-29.921-6.3-62.217-36.222-72.135-29.922-9.917-62.218 6.3-72.135 36.222-9.917 29.922 6.3 62.218 36.222 72.135 29.922 9.917 62.218-6.3 72.135-36.222z" stroke="url(#paint23_linear)" stroke-width="3.022" stroke-miterlimit="10"/><path d="M183.748 251.972L145.57 270.62l-7.812-16.002 38.052-18.648 7.938 16.002z" fill="url(#paint24_linear)"/><path d="M111.55 2.24c-41.832 0-76.482 31.374-81.648 71.82.756.882 1.386 1.764 2.016 2.646 1.638 2.268 3.276 5.166 4.41 7.938h.378C36.706 43.442 70.222 9.8 111.55 9.8c41.202 0 74.844 33.516 74.844 74.844 0 41.202-33.516 74.844-74.844 74.844v7.56c45.36 0 82.404-36.918 82.404-82.404C193.828 39.158 156.91 2.24 111.55 2.24z" fill="#666"/><path d="M110.039.728c-45.36 0-82.404 36.918-82.404 82.404h7.56c0-41.202 33.516-74.844 74.844-74.844 41.202 0 74.844 33.516 74.844 74.844 0 41.202-33.516 74.844-74.844 74.844v7.56c45.36 0 82.404-36.918 82.404-82.404C192.317 37.646 155.399.728 110.039.728z" fill="url(#paint25_linear)"/><defs><linearGradient id="paint1_linear" x1="21.562" y1="164.471" x2="102.998" y2="330.616" gradientUnits="userSpaceOnUse"><stop stop-color="#ECBF16"/><stop offset=".057" stop-color="#E8B612"/><stop offset=".231" stop-color="#DD9D09"/><stop offset=".554" stop-color="#FFE825"/><stop offset=".582" stop-color="#FBDF21"/><stop offset=".704" stop-color="#E9BA13"/><stop offset=".819" stop-color="#DDA009"/><stop offset=".921" stop-color="#D69002"/><stop offset="1" stop-color="#D38A00"/></linearGradient><linearGradient id="paint13_linear" x1="64.584" y1="222.823" x2="239.651" y2="282.723" gradientUnits="userSpaceOnUse"><stop stop-color="#ECBF16"/><stop offset=".057" stop-color="#E8B612"/><stop offset=".231" stop-color="#DD9D09"/><stop offset=".554" stop-color="#FFE825"/><stop offset=".582" stop-color="#FBDF21"/><stop offset=".704" stop-color="#E9BA13"/><stop offset=".819" stop-color="#DDA009"/><stop offset=".921" stop-color="#D69002"/><stop offset="1" stop-color="#D38A00"/></linearGradient><linearGradient id="paint2_linear" x1="30.481" y1="315.548" x2="36.593" y2="317.639" gradientUnits="userSpaceOnUse"><stop stop-color="#D38A00"/><stop offset=".769" stop-color="#DD9D09"/><stop offset=".943" stop-color="#E8B612"/><stop offset="1" stop-color="#ECBF16"/></linearGradient><linearGradient id="paint3_linear" x1="38.865" y1="318.416" x2="42.43" y2="319.636" gradientUnits="userSpaceOnUse"><stop stop-color="#D38A00"/><stop offset=".769" stop-color="#DD9D09"/><stop offset=".943" stop-color="#E8B612"/><stop offset="1" stop-color="#ECBF16"/></linearGradient><linearGradient id="paint4_linear" x1="43.356" y1="322.801" x2="46.92" y2="324.021" gradientUnits="userSpaceOnUse"><stop stop-color="#D38A00"/><stop offset=".769" stop-color="#DD9D09"/><stop offset=".943" stop-color="#E8B612"/><stop offset="1" stop-color="#ECBF16"/></linearGradient><linearGradient id="paint5_linear" x1="68.506" y1="272.422" x2="71.54" y2="273.46" gradientUnits="userSpaceOnUse"><stop stop-color="#D38A00"/><stop offset=".769" stop-color="#DD9D09"/><stop offset=".943" stop-color="#E8B612"/><stop offset="1" stop-color="#ECBF16"/></linearGradient><linearGradient id="paint6_linear" x1="43.735" y1="344.82" x2="46.768" y2="345.858" gradientUnits="userSpaceOnUse"><stop stop-color="#D38A00"/><stop offset=".769" stop-color="#DD9D09"/><stop offset=".943" stop-color="#E8B612"/><stop offset="1" stop-color="#ECBF16"/></linearGradient><linearGradient id="paint7_linear" x1="34.444" y1="371.97" x2="37.478" y2="373.008" gradientUnits="userSpaceOnUse"><stop stop-color="#D38A00"/><stop offset=".769" stop-color="#DD9D09"/><stop offset=".943" stop-color="#E8B612"/><stop offset="1" stop-color="#ECBF16"/></linearGradient><linearGradient id="paint8_linear" x1="56.802" y1="306.63" x2="59.836" y2="307.668" gradientUnits="userSpaceOnUse"><stop stop-color="#D38A00"/><stop offset=".769" stop-color="#DD9D09"/><stop offset=".943" stop-color="#E8B612"/><stop offset="1" stop-color="#ECBF16"/></linearGradient><linearGradient id="paint9_linear" x1="70.249" y1="257.954" x2="81.04" y2="261.646" gradientUnits="userSpaceOnUse"><stop stop-color="#D38A00"/><stop offset=".769" stop-color="#DD9D09"/><stop offset=".943" stop-color="#E8B612"/><stop offset="1" stop-color="#ECBF16"/></linearGradient><linearGradient id="paint10_linear" x1="91.393" y1="137.46" x2="111.269" y2="178.009" gradientUnits="userSpaceOnUse"><stop stop-color="#ECBF16"/><stop offset=".271" stop-color="#F4CF1C"/><stop offset=".744" stop-color="#FFE825"/><stop offset=".823" stop-color="#F7D61E"/><stop offset=".924" stop-color="#EFC518"/><stop offset="1" stop-color="#ECBF16"/></linearGradient><linearGradient id="paint11_linear" x1="33.325" y1="189.859" x2="150.857" y2="179.575" gradientUnits="userSpaceOnUse"><stop stop-color="#ECBF16"/><stop offset=".271" stop-color="#F4CF1C"/><stop offset=".744" stop-color="#FFE825"/><stop offset=".823" stop-color="#F7D61E"/><stop offset=".924" stop-color="#EFC518"/><stop offset="1" stop-color="#ECBF16"/></linearGradient><linearGradient id="paint12_linear" x1="70.74" y1="245.957" x2="65.31" y2="261.829" gradientUnits="userSpaceOnUse"><stop stop-color="#D38A00" stop-opacity=".6"/><stop offset=".014" stop-color="#D48C01" stop-opacity=".592"/><stop offset=".214" stop-color="#DFA20A" stop-opacity=".471"/><stop offset=".43" stop-color="#E6B211" stop-opacity=".342"/><stop offset=".674" stop-color="#EBBC15" stop-opacity=".196"/><stop offset="1" stop-color="#ECBF16" stop-opacity="0"/></linearGradient><linearGradient id="paint0_linear" x1="78.104" y1="22.907" x2="154.069" y2="166.218" gradientUnits="userSpaceOnUse"><stop stop-color="#F2F2F2"/><stop offset=".391" stop-color="#666"/><stop offset=".434" stop-color="#7E7E7E"/><stop offset=".509" stop-color="#A1A1A1"/><stop offset=".588" stop-color="#BFBFBF"/><stop offset=".672" stop-color="#D5D5D5"/><stop offset=".763" stop-color="#E5E5E5"/><stop offset=".864" stop-color="#EFEFEF"/><stop offset="1" stop-color="#F2F2F2"/></linearGradient><linearGradient id="paint14_linear" x1="177.72" y1="323.344" x2="183.518" y2="320.502" gradientUnits="userSpaceOnUse"><stop stop-color="#D38A00"/><stop offset=".769" stop-color="#DD9D09"/><stop offset=".943" stop-color="#E8B612"/><stop offset="1" stop-color="#ECBF16"/></linearGradient><linearGradient id="paint15_linear" x1="185.676" y1="319.444" x2="189.058" y2="317.787" gradientUnits="userSpaceOnUse"><stop stop-color="#D38A00"/><stop offset=".769" stop-color="#DD9D09"/><stop offset=".943" stop-color="#E8B612"/><stop offset="1" stop-color="#ECBF16"/></linearGradient><linearGradient id="paint16_linear" x1="191.952" y1="319.37" x2="195.334" y2="317.712" gradientUnits="userSpaceOnUse"><stop stop-color="#D38A00"/><stop offset=".769" stop-color="#DD9D09"/><stop offset=".943" stop-color="#E8B612"/><stop offset="1" stop-color="#ECBF16"/></linearGradient><linearGradient id="paint17_linear" x1="174.113" y1="265.962" x2="176.992" y2="264.551" gradientUnits="userSpaceOnUse"><stop stop-color="#D38A00"/><stop offset=".769" stop-color="#DD9D09"/><stop offset=".943" stop-color="#E8B612"/><stop offset="1" stop-color="#ECBF16"/></linearGradient><linearGradient id="paint18_linear" x1="207.789" y1="334.672" x2="210.668" y2="333.26" gradientUnits="userSpaceOnUse"><stop stop-color="#D38A00"/><stop offset=".769" stop-color="#DD9D09"/><stop offset=".943" stop-color="#E8B612"/><stop offset="1" stop-color="#ECBF16"/></linearGradient><linearGradient id="paint19_linear" x1="220.419" y1="360.438" x2="223.298" y2="359.027" gradientUnits="userSpaceOnUse"><stop stop-color="#D38A00"/><stop offset=".769" stop-color="#DD9D09"/><stop offset=".943" stop-color="#E8B612"/><stop offset="1" stop-color="#ECBF16"/></linearGradient><linearGradient id="paint20_linear" x1="190.025" y1="298.428" x2="192.904" y2="297.016" gradientUnits="userSpaceOnUse"><stop stop-color="#D38A00"/><stop offset=".769" stop-color="#DD9D09"/><stop offset=".943" stop-color="#E8B612"/><stop offset="1" stop-color="#ECBF16"/></linearGradient><linearGradient id="paint21_linear" x1="165.116" y1="254.499" x2="175.357" y2="249.479" gradientUnits="userSpaceOnUse"><stop stop-color="#D38A00"/><stop offset=".769" stop-color="#DD9D09"/><stop offset=".943" stop-color="#E8B612"/><stop offset="1" stop-color="#ECBF16"/></linearGradient><linearGradient id="paint22_linear" x1="95.332" y1="170.219" x2="137.133" y2="153.13" gradientUnits="userSpaceOnUse"><stop stop-color="#ECBF16"/><stop offset=".271" stop-color="#F4CF1C"/><stop offset=".744" stop-color="#FFE825"/><stop offset=".823" stop-color="#F7D61E"/><stop offset=".924" stop-color="#EFC518"/><stop offset="1" stop-color="#ECBF16"/></linearGradient><linearGradient id="paint23_linear" x1="93.093" y1="234.257" x2="164.464" y2="140.317" gradientUnits="userSpaceOnUse"><stop stop-color="#ECBF16"/><stop offset=".271" stop-color="#F4CF1C"/><stop offset=".744" stop-color="#FFE825"/><stop offset=".823" stop-color="#F7D61E"/><stop offset=".924" stop-color="#EFC518"/><stop offset="1" stop-color="#ECBF16"/></linearGradient><linearGradient id="paint24_linear" x1="156.98" y1="245.669" x2="164.363" y2="260.732" gradientUnits="userSpaceOnUse"><stop stop-color="#D38A00" stop-opacity=".6"/><stop offset=".014" stop-color="#D48C01" stop-opacity=".592"/><stop offset=".214" stop-color="#DFA20A" stop-opacity=".471"/><stop offset=".43" stop-color="#E6B211" stop-opacity=".342"/><stop offset=".674" stop-color="#EBBC15" stop-opacity=".196"/><stop offset="1" stop-color="#ECBF16" stop-opacity="0"/></linearGradient><linearGradient id="paint25_linear" x1="81.981" y1="19.995" x2="157.946" y2="163.306" gradientUnits="userSpaceOnUse"><stop stop-color="#F2F2F2"/><stop offset=".391" stop-color="#666"/><stop offset=".498" stop-color="#909090"/><stop offset=".622" stop-color="#BABABA"/><stop offset=".733" stop-color="#D9D9D9"/><stop offset=".829" stop-color="#EBEBEB"/><stop offset=".896" stop-color="#F2F2F2"/><stop offset="1" stop-color="#B7B7B7"/></linearGradient></defs></svg>