<svg width="80" height="80" fill="none" xmlns="http://www.w3.org/2000/svg"><g filter="url(#filter0_d)"><circle cx="40" cy="37" r="25" fill="#fff"/></g><path d="M48.552 29.09H31.409a2.68 2.68 0 00-2.678 2.678V41.77a2.68 2.68 0 002.678 2.678h17.143a2.68 2.68 0 002.678-2.678V31.768a2.68 2.68 0 00-2.678-2.678zm-17.143 1.07h17.143c.772.003 1.434.55 1.58 1.308l-10.151 5.657-10.152-5.657a1.614 1.614 0 011.58-1.307zm17.143 13.212H31.409a1.612 1.612 0 01-1.607-1.608V32.68l9.916 5.528c.08.044.17.069.262.07a.508.508 0 00.263-.07l9.916-5.528v9.085c0 .888-.72 1.607-1.607 1.608z" fill="#31BEF4"/><defs><filter id="filter0_d" x="0" y="0" width="80" height="80" filterUnits="userSpaceOnUse" color-interpolation-filters="sRGB"><feFlood flood-opacity="0" result="BackgroundImageFix"/><feColorMatrix in="SourceAlpha" values="0 0 0 0 0 0 0 0 0 0 0 0 0 0 0 0 0 0 127 0" result="hardAlpha"/><feOffset dy="3"/><feGaussianBlur stdDeviation="7.5"/><feComposite in2="hardAlpha" operator="out"/><feColorMatrix values="0 0 0 0 0.129412 0 0 0 0 0.176471 0 0 0 0 0.333333 0 0 0 0.1 0"/><feBlend in2="BackgroundImageFix" result="effect1_dropShadow"/><feBlend in="SourceGraphic" in2="effect1_dropShadow" result="shape"/></filter></defs></svg>