<svg width="18" height="18" fill="none" xmlns="http://www.w3.org/2000/svg"><path d="M17.765 9.085A.775.775 0 0018 8.53V7.014a.74.74 0 00-.235-.555.931.931 0 00-.576-.235H15.48c0-.043.022-.085.022-.128V4.58a.74.74 0 00-.235-.555.775.775 0 00-.555-.235h-1.708c0-.043.02-.085.02-.128V2.167a.74.74 0 00-.234-.555.775.775 0 00-.555-.235H8.22a.69.69 0 00-.449.171c-.128-.085-.277-.17-.448-.17H3.267a.74.74 0 00-.555.234.775.775 0 00-.235.555v1.516c0 .043.021.086.021.128H.79a.758.758 0 00-.534.214l-.021.021A.775.775 0 000 4.601v1.516a.74.74 0 00.235.556c.15.149.342.234.555.234h1.708c0 .043-.021.086-.021.129v1.516c0 .042.021.085.021.128H.79a.758.758 0 00-.534.213l-.021.022A.775.775 0 000 9.47v1.516a.74.74 0 00.235.555c.15.15.342.235.555.235h1.708c0 .043-.021.085-.021.128v1.516c0 .043.021.085.021.128H.79a.758.758 0 00-.534.213l-.021.022a.775.775 0 00-.235.555v1.495a.74.74 0 00.235.555c.15.15.342.235.555.235h4.036c.17 0 .32-.064.47-.171.127.085.277.17.448.17h4.035c.171 0 .32-.063.47-.17.128.085.278.17.448.17h4.036a.74.74 0 00.555-.234.776.776 0 00.235-.555v-1.516c0-.043-.021-.086-.021-.128h1.708a.74.74 0 00.555-.235.775.775 0 00.235-.556v-1.515a.74.74 0 00-.235-.556.775.775 0 00-.555-.235h-1.708c0-.042.021-.085.021-.128V9.448c0-.042-.021-.085-.021-.128h1.708a.74.74 0 00.555-.235zm-3.053-4.612c.042 0 .064.022.085.043.021.021.043.043.043.085v1.516c0 .043-.021.064-.043.086-.021.021-.043.021-.085.021h-4.036c-.043 0-.064-.021-.085-.043-.022-.02-.043-.042-.043-.085V4.58c0-.043.021-.064.043-.085.021-.022.043-.022.085-.022h4.036zm-2.349 4.079c0 .042-.021.064-.043.085-.021.021-.042.043-.085.043H8.199c-.042 0-.064-.022-.085-.043-.021-.021-.043-.043-.043-.085V7.036c0-.043.022-.064.043-.086.021-.021.043-.043.085-.043h4.036c.043 0 .064.022.085.043.022.021.043.043.043.086v1.516zm.79.811h1.559c.042-.021.064 0 .085.021.021.022.043.043.043.086v1.516c0 .042-.021.064-.043.085-.021.021-.043.043-.085.043h-4.036c-.043 0-.064-.022-.085-.043-.022-.021-.043-.043-.043-.085V9.47c0-.043.021-.064.043-.086.021-.021.043-.021.085-.021h2.477zm-7.559.085c0-.042.022-.064.043-.085.021-.021.043-.021.085-.021h4.036c.043 0 .064.021.085.042.022.022.043.043.043.086v1.494c0 .043-.021.064-.043.086-.02.021-.042.042-.085.042H5.722c-.042 0-.064-.02-.085-.042-.021-.022-.043-.043-.043-.086V9.448zm-.768-.79h-1.56c-.042 0-.063-.021-.085-.042-.02-.022-.042-.043-.042-.086V7.014c0-.043.021-.064.042-.085.022-.022.043-.043.086-.043h4.035c.043 0 .065.021.086.043.021.021.043.042.043.085V8.53c0 .043-.022.064-.043.086-.021.021-.043.042-.086.042H4.826zm3.267-6.49c0-.022.02-.065.042-.086.022-.022.043-.043.086-.043h4.035c.043 0 .064.021.086.043.021.021.042.043.042.085v1.516c0 .043-.021.064-.042.086-.022.021-.043.042-.086.042H8.221c-.043 0-.064-.021-.086-.042-.021-.022-.042-.043-.042-.086V2.167zm.128 2.327h1.558c.043 0 .064.021.086.042.021.022.042.043.042.086v1.516c0 .042-.02.064-.042.085H5.722c-.02 0-.042 0-.064-.021-.021-.022-.042-.043-.042-.086V4.601c0-.042.021-.064.042-.085.022-.021.043-.021.086-.021H8.22zM3.139 2.167c0-.042.021-.064.042-.085.022-.022.043-.043.086-.043h4.035c.043 0 .065.021.086.043.021.021.043.043.043.085v1.516c0 .043-.022.064-.043.086-.021.021-.043.042-.086.042H3.266c-.042 0-.063-.021-.085-.042-.02-.022-.042-.043-.042-.086V2.167zM.79 6.224c-.043 0-.064 0-.085-.021C.683 6.18.662 6.16.662 6.117V4.601c0-.042.021-.064.043-.085.021-.021.042-.021.085-.021h4.036c.042 0 .064.021.085.042.021.022.043.043.043.086v1.516c0 .042-.022.064-.043.085H.79zm0 4.868c-.043 0-.064-.02-.085-.042-.022-.022-.043-.043-.043-.086V9.448c0-.042.021-.064.043-.085.021-.021.042-.021.085-.021h4.036c.042 0 .064.021.085.042.021.022.021.043.021.064v1.516c0 .043-.021.064-.042.086-.022.021-.043.042-.086.042H.79zm4.164 4.74c-.022.022-.022.065-.043.086-.021.022-.043.043-.085.043H.79c-.043 0-.064-.021-.085-.043a.162.162 0 01-.043-.085v-1.516c0-.043.021-.064.043-.086.021-.021.042-.021.085-.021h4.036c.042 0 .064.021.085.043.021.021.043.042.043.085v1.495zm-.128-2.284h-1.56c-.042-.021-.063-.043-.085-.064-.02-.021-.042-.043-.042-.085v-1.516c0-.043.021-.064.042-.086.022-.021.043-.021.086-.021h4.035c.043 0 .065.021.086.043.021.02.043.042.043.085v1.516c0 .043-.022.064-.043.085-.021.022-.043.043-.086.043H4.826zm5.081 2.285c-.02.021-.042.064-.064.085-.02.022-.042.043-.085.043H5.744c-.043 0-.064-.021-.086-.043-.021-.021-.042-.043-.042-.085v-1.516c0-.043.021-.064.042-.086.022-.021.043-.021.086-.021h4.035c.043 0 .064.021.086.043.021.021.042.042.042.085v1.495zm-.149-2.306H8.199c-.042 0-.064-.022-.085-.043-.021-.021-.043-.043-.043-.085v-1.516c0-.043.022-.064.043-.086.021-.021.043-.043.085-.043h4.036c.043.022.064.022.085.043.022.021.043.043.043.085V13.4c0 .042-.021.064-.043.085-.021.021-.042.043-.085.043H9.758zm5.082 2.306c0 .042-.021.064-.043.085-.021.022-.043.043-.085.043h-4.036c-.043 0-.064-.021-.085-.043-.022-.021-.043-.043-.043-.085v-1.516c0-.043.021-.064.043-.086.021-.021.043-.021.085-.021h4.036c.042-.021.064 0 .085.021.021.022.043.043.043.086v1.516zm2.37-4.079c.021.022.043.022.064.043.021.021.043.043.043.085V13.4c0 .042-.022.064-.043.085-.021.021-.043.043-.085.043h-4.036c-.043 0-.064-.022-.085-.043-.022-.021-.022-.064-.022-.085v-1.516c0-.043.022-.064.043-.086.021-.021.043-.043.085-.043h4.036zM14.712 8.68h-1.559c-.043 0-.064-.022-.085-.043-.022-.043-.022-.064-.022-.085V7.036c0-.043.022-.064.043-.086.021-.021.043-.043.085-.043h4.036c.043 0 .064.022.085.043.022.021.043.043.043.086v1.516h-.021c0 .042-.022.064-.043.085-.021.021-.043.043-.085.043h-2.477z" fill="#656D89"/></svg>