<svg width="45" height="45" fill="none" xmlns="http://www.w3.org/2000/svg"><path d="M39.1 9.65L29.725.275A.937.937 0 0029.062 0H9.375a3.754 3.754 0 00-3.75 3.75v37.5A3.754 3.754 0 009.375 45h26.25a3.754 3.754 0 003.75-3.75V10.312a.937.937 0 00-.275-.662zM30 3.2l6.174 6.175h-4.3A1.877 1.877 0 0130 7.5V3.2zm7.5 38.05a1.877 1.877 0 01-1.875 1.875H9.375A1.877 1.877 0 017.5 41.25V3.75c0-1.034.841-1.875 1.875-1.875h18.75V7.5a3.754 3.754 0 003.75 3.75H37.5v30z" fill="#31BEF4"/><path d="M27.28 27.522c-.868-.683-1.693-1.385-2.242-1.935a32.291 32.291 0 01-1.904-2.065c.863-2.665 1.241-4.04 1.241-4.772 0-3.112-1.124-3.75-2.812-3.75-1.283 0-2.813.666-2.813 3.84 0 1.399.766 3.097 2.285 5.07a901.938 901.938 0 01-1.299 3.918 21.462 21.462 0 01-.764 1.97c-.22.098-.434.198-.641.3-.745.374-1.453.709-2.11 1.02-2.994 1.417-4.971 2.355-4.971 4.206 0 1.344 1.46 2.176 2.813 2.176 1.743 0 4.375-2.328 6.297-6.25 1.996-.788 4.477-1.37 6.436-1.736 1.569 1.207 3.302 2.361 4.142 2.361 2.324 0 2.812-1.344 2.812-2.471 0-2.217-2.532-2.217-3.75-2.217-.378 0-1.392.112-2.72.335zm-13.218 8.103c-.535 0-.898-.253-.937-.301 0-.665 1.982-1.604 3.9-2.512l.37-.175c-1.408 2.041-2.8 2.988-3.332 2.988zm6.563-16.785c0-1.965.61-1.965.938-1.965.662 0 .937 0 .937 1.875 0 .395-.264 1.384-.746 2.928-.736-1.134-1.129-2.105-1.129-2.838zm.719 10.076c.058-.163.115-.328.17-.494.348-1.044.661-1.982.94-2.826.39.429.809.867 1.258 1.317.176.176.612.571 1.192 1.066a40.41 40.41 0 00-3.56.937zm10.531.488c0 .421 0 .596-.87.602-.255-.055-.846-.403-1.575-.9.265-.029.46-.043.57-.043 1.385 0 1.778.135 1.875.341z" fill="#31BEF4"/></svg>