<svg width="24" height="24" fill="none" xmlns="http://www.w3.org/2000/svg"><path d="M12 0C7.113 0 3.136 3.977 3.136 8.866c0 1.61.722 3.34.752 3.413a14.3 14.3 0 001.025 1.917l6.078 9.21c.25.378.617.594 1.01.594.394 0 .762-.216 1.01-.593l6.08-9.211a14.24 14.24 0 001.025-1.917c.03-.072.751-1.803.751-3.413C20.866 3.977 16.89 0 12.001 0zm7.153 11.874a13.096 13.096 0 01-.934 1.747l-6.08 9.211c-.12.182-.157.182-.277 0l-6.08-9.21a13.102 13.102 0 01-.934-1.748c-.008-.022-.67-1.615-.67-3.008 0-4.314 3.51-7.823 7.823-7.823 4.313 0 7.822 3.51 7.822 7.823 0 1.395-.663 2.993-.67 3.008z" fill="#fff"/><path d="M12 4.172a4.699 4.699 0 00-4.693 4.694A4.699 4.699 0 0012 13.56a4.7 4.7 0 004.694-4.694A4.7 4.7 0 0012 4.172zm0 8.345a3.655 3.655 0 01-3.65-3.651A3.655 3.655 0 0112 5.216a3.655 3.655 0 013.65 3.65 3.655 3.655 0 01-3.65 3.65z" fill="#fff"/></svg>