<svg width="94" height="19" fill="none" xmlns="http://www.w3.org/2000/svg"><path d="M17.841 4.756c-.002-.008-.006-.016-.01-.024a.295.295 0 00-.04-.073.252.252 0 00-.056-.057l-.013-.011c-.011-.007-.023-.012-.035-.017-.006-.003-.01-.008-.016-.01L9.113 1.023a.294.294 0 00-.226 0L.33 4.563c-.006.003-.011.008-.017.01-.011.006-.023.01-.034.018l-.013.01-.023.02a.293.293 0 00-.074.11l-.01.025a.318.318 0 00-.01.08v10.328c0 .12.071.227.182.273l8.557 3.54.012.003c.032.012.066.02.1.02a.292.292 0 00.102-.02c.004-.002.008-.001.012-.002l8.557-3.541a.295.295 0 00.182-.273V4.836a.289.289 0 00-.012-.08zM8.706 18.263L.739 14.967v-9.69l7.967 3.297v9.69zM9 8.058L1.215 4.836l7.786-3.222 7.786 3.222L9 8.058zm8.262 6.909l-7.967 3.296V8.575l7.967-3.296v9.689zM33.28 3.8V15h-1.12V4.856H26.4V15h-1.12V3.8h8zM42.242 7v8h-1.055V8.024H37.57v3.568c0 1.333-.256 2.25-.768 2.752-.502.501-1.195.72-2.08.656v-.992c.608.064 1.056-.08 1.343-.432.3-.352.448-1.013.448-1.984V7h5.728zm8.941 6.992c-.81.8-1.802 1.2-2.976 1.2-1.173 0-2.17-.4-2.992-1.2C44.405 13.182 44 12.184 44 11s.406-2.176 1.216-2.976c.822-.81 1.819-1.216 2.992-1.216 1.174 0 2.166.405 2.976 1.216.822.8 1.232 1.792 1.232 2.976s-.41 2.181-1.232 2.992zm-5.216-.736c.608.608 1.355.912 2.24.912.886 0 1.632-.304 2.24-.912.608-.619.912-1.37.912-2.256 0-.885-.304-1.632-.912-2.24-.608-.619-1.354-.928-2.24-.928-.885 0-1.632.31-2.24.928-.608.608-.912 1.355-.912 2.24 0 .885.304 1.637.912 2.256zm18.936.72h1.12v3.168h-1.056V15H54.181V7h1.056v6.976h3.776V7h1.056v6.976h3.776V7h1.057v6.976zM74.187 7h1.056v8h-1.055v-1.568c-.737 1.173-1.814 1.76-3.233 1.76-1.14 0-2.117-.405-2.927-1.216-.8-.81-1.2-1.803-1.2-2.976s.4-2.165 1.2-2.976c.81-.81 1.786-1.216 2.927-1.216 1.42 0 2.496.587 3.233 1.76V7zm-5.391 6.256c.607.608 1.354.912 2.24.912.885 0 1.632-.304 2.24-.912.608-.619.912-1.37.912-2.256 0-.885-.305-1.632-.913-2.24-.608-.619-1.354-.928-2.24-.928-.885 0-1.632.31-2.24.928-.608.608-.912 1.355-.912 2.24 0 .885.305 1.637.913 2.256zm15.403.72h1.12v3.168h-1.056V15h-6.528v2.144H76.68v-3.168h.976c.544-.715.816-1.723.816-3.024V7H84.2v6.976zm-5.264 0h4.208V8.024h-3.616v2.928c0 1.227-.197 2.235-.592 3.024zm11.23-3.936c.746 0 1.376.235 1.888.704.523.459.784 1.05.784 1.776 0 .725-.261 1.323-.784 1.792-.512.459-1.141.688-1.888.688h-3.248V7h1.056v3.04h2.192zm0 3.936c.448 0 .826-.133 1.136-.4.32-.267.48-.619.48-1.056 0-.437-.16-.79-.48-1.056-.31-.267-.688-.4-1.136-.4h-2.192v2.912h2.192z" fill="#656D89"/></svg>