<svg width="80" height="80" fill="none" xmlns="http://www.w3.org/2000/svg"><g filter="url(#filter0_d)"><circle cx="40" cy="37" r="25" fill="#fff"/></g><path d="M46.966 39.867c-.492-.511-1.084-.785-1.712-.785-.623 0-1.221.268-1.733.78l-1.6 1.596c-.132-.071-.264-.137-.39-.203a6.43 6.43 0 01-.502-.268c-1.5-.953-2.862-2.194-4.169-3.8-.633-.8-1.058-1.473-1.367-2.157.415-.38.8-.775 1.175-1.155.142-.142.284-.289.425-.43 1.064-1.065 1.064-2.442 0-3.506l-1.383-1.383a19.364 19.364 0 01-.47-.481 23.822 23.822 0 00-.953-.942c-.491-.486-1.079-.745-1.697-.745-.618 0-1.216.258-1.722.745l-.01.01-1.722 1.737a3.706 3.706 0 00-1.1 2.356c-.121 1.479.314 2.857.649 3.758.82 2.214 2.046 4.265 3.875 6.464 2.218 2.649 4.888 4.74 7.937 6.215 1.165.552 2.72 1.205 4.458 1.317.106.005.218.01.319.01 1.17 0 2.153-.42 2.923-1.256.005-.01.015-.015.02-.026.263-.319.567-.607.886-.916.218-.208.441-.426.659-.654.501-.522.765-1.13.765-1.752 0-.629-.269-1.231-.78-1.738l-2.781-2.79zm1.813 5.334c-.005 0-.005.005 0 0-.197.213-.4.405-.618.618-.33.314-.663.643-.977 1.013-.512.547-1.115.805-1.905.805-.076 0-.157 0-.233-.005-1.505-.096-2.902-.683-3.951-1.185-2.867-1.388-5.384-3.358-7.477-5.855-1.727-2.082-2.882-4.007-3.647-6.074-.47-1.261-.643-2.244-.567-3.17a2.32 2.32 0 01.7-1.505l1.726-1.727c.249-.233.512-.36.77-.36.32 0 .578.192.74.354l.015.016c.31.288.603.587.912.906l.481.492 1.383 1.383c.537.536.537 1.033 0 1.57-.147.147-.289.294-.436.435-.425.436-.83.841-1.271 1.236-.01.01-.02.015-.025.026-.436.435-.355.86-.264 1.15l.015.045c.36.871.867 1.692 1.636 2.67l.005.005c1.399 1.722 2.873 3.064 4.499 4.092.207.132.42.238.623.34.182.091.354.177.501.268.02.01.04.026.06.036.173.086.335.126.502.126.42 0 .684-.263.77-.35l1.733-1.731c.172-.173.445-.38.764-.38.315 0 .573.197.73.37l.01.01 2.791 2.79c.522.517.522 1.049.005 1.586zM40.97 30.71a6.423 6.423 0 013.494 1.813 6.457 6.457 0 011.814 3.495.68.68 0 00.673.567c.04 0 .076-.005.117-.01a.685.685 0 00.562-.79 7.813 7.813 0 00-2.193-4.23 7.813 7.813 0 00-4.23-2.193.687.687 0 00-.79.557c-.066.37.177.73.552.79zm11.002 4.877a12.853 12.853 0 00-3.611-6.965 12.853 12.853 0 00-6.965-3.611.681.681 0 00-.785.557.687.687 0 00.562.79c2.36.4 4.513 1.52 6.225 3.227a11.475 11.475 0 013.227 6.225.68.68 0 00.674.567c.04 0 .076-.005.116-.01a.671.671 0 00.557-.78z" fill="#31BEF4"/><defs><filter id="filter0_d" x="0" y="0" width="80" height="80" filterUnits="userSpaceOnUse" color-interpolation-filters="sRGB"><feFlood flood-opacity="0" result="BackgroundImageFix"/><feColorMatrix in="SourceAlpha" values="0 0 0 0 0 0 0 0 0 0 0 0 0 0 0 0 0 0 127 0" result="hardAlpha"/><feOffset dy="3"/><feGaussianBlur stdDeviation="7.5"/><feComposite in2="hardAlpha" operator="out"/><feColorMatrix values="0 0 0 0 0.129412 0 0 0 0 0.176471 0 0 0 0 0.333333 0 0 0 0.1 0"/><feBlend in2="BackgroundImageFix" result="effect1_dropShadow"/><feBlend in="SourceGraphic" in2="effect1_dropShadow" result="shape"/></filter></defs></svg>