<svg width="52" height="52" fill="none" xmlns="http://www.w3.org/2000/svg"><circle cx="26" cy="26" r="26" fill="#31BEF4"/><path d="M26.003 14h-.006C19.381 14 14 19.382 14 26c0 2.625.846 5.058 2.285 7.033l-1.496 4.459 4.612-1.475A11.896 11.896 0 0026.003 38C32.62 38 38 32.617 38 26c0-6.616-5.38-12-11.997-12z" fill="#fff"/><path d="M32.987 30.945c-.29.818-1.439 1.496-2.355 1.694-.627.133-1.446.24-4.203-.903-3.527-1.461-5.798-5.045-5.975-5.277-.17-.233-1.425-1.898-1.425-3.62 0-1.722.875-2.56 1.227-2.92.29-.296.768-.43 1.227-.43.149 0 .282.007.402.013.353.015.53.036.762.592.29.698.995 2.42 1.079 2.597.085.177.17.417.05.65-.112.24-.21.346-.388.55-.177.204-.345.36-.522.579-.162.19-.345.394-.14.747.203.345.908 1.495 1.946 2.42 1.34 1.192 2.426 1.573 2.814 1.735.29.12.635.091.846-.134.269-.29.6-.77.938-1.242.24-.339.543-.38.86-.26.325.112 2.04.96 2.392 1.135.352.177.585.26.67.41.084.148.084.845-.205 1.664z" fill="#31BEF4"/></svg>