<svg width="120" height="109" viewBox="0 0 120 109" fill="none" xmlns="http://www.w3.org/2000/svg">
<g filter="url(#filter0_d)">
<path fill-rule="evenodd" clip-rule="evenodd" d="M30 15C24.4772 15 20 19.4772 20 25V42.3892C22.509 42.7842 24.4606 45.8171 24.4606 49.5C24.4606 53.1829 22.509 56.2159 20 56.6109V74C20 79.5229 24.4772 84 30 84H90C95.5229 84 100 79.5228 100 74V25C100 19.4772 95.5229 15 90 15H30Z" fill="white"/>
</g>
<path d="M68.0661 65.9688C67.9048 65.9688 67.7501 65.9047 67.6361 65.7907C67.522 65.6766 67.458 65.5219 67.458 65.3607V33.0567L59.7508 29.8234L53.2787 32.3696V65.3607C53.2787 65.5219 53.2146 65.6766 53.1006 65.7907C52.9866 65.9047 52.8319 65.9688 52.6706 65.9688C52.5093 65.9688 52.3547 65.9047 52.2406 65.7907C52.1266 65.6766 52.0625 65.5219 52.0625 65.3607V31.9548C52.0625 31.8327 52.0992 31.7133 52.168 31.6123C52.2367 31.5113 52.3343 31.4334 52.448 31.3887L59.5355 28.6005C59.683 28.5424 59.8473 28.5442 59.9934 28.6054L68.3014 32.0917C68.4119 32.138 68.5062 32.216 68.5725 32.3157C68.6388 32.4155 68.6742 32.5326 68.6742 32.6523V65.3607C68.6742 65.5219 68.6101 65.6766 68.4961 65.7907C68.382 65.9047 68.2274 65.9688 68.0661 65.9688Z" fill="#212D55"/>
<path d="M59.7565 65.9688C59.5953 65.9688 59.4406 65.9047 59.3265 65.7907C59.2125 65.6767 59.1484 65.522 59.1484 65.3607V29.1667C59.1484 29.0054 59.2125 28.8507 59.3265 28.7367C59.4406 28.6227 59.5953 28.5586 59.7565 28.5586C59.9178 28.5586 60.0725 28.6227 60.1865 28.7367C60.3006 28.8507 60.3647 29.0054 60.3647 29.1667V65.3607C60.3647 65.522 60.3006 65.6767 60.1865 65.7907C60.0725 65.9047 59.9178 65.9688 59.7565 65.9688Z" fill="#212D55"/>
<path d="M77.883 65.9688C77.7218 65.9688 77.5671 65.9047 77.453 65.7907C77.339 65.6766 77.2749 65.522 77.2749 65.3607V46.2478L71.3289 42.7883H68.0651C67.9039 42.7883 67.7492 42.7242 67.6351 42.6102C67.5211 42.4961 67.457 42.3415 67.457 42.1802C67.457 42.0189 67.5211 41.8642 67.6351 41.7502C67.7492 41.6362 67.9039 41.5721 68.0651 41.5721H71.493C71.5999 41.5725 71.7048 41.601 71.7971 41.6548L78.1877 45.3728C78.28 45.426 78.3566 45.5026 78.41 45.5948C78.4633 45.687 78.4915 45.7916 78.4918 45.8982V65.3576C78.4922 65.4378 78.4767 65.5172 78.4463 65.5914C78.4159 65.6656 78.3711 65.733 78.3145 65.7898C78.2579 65.8466 78.1907 65.8917 78.1167 65.9224C78.0426 65.9531 77.9632 65.9689 77.883 65.9688Z" fill="#212D55"/>
<path d="M71.4948 65.9688C71.3335 65.9688 71.1789 65.9047 71.0648 65.7907C70.9508 65.6766 70.8867 65.522 70.8867 65.3607V42.1802C70.8867 42.0189 70.9508 41.8642 71.0648 41.7502C71.1789 41.6362 71.3335 41.5721 71.4948 41.5721C71.6561 41.5721 71.8108 41.6362 71.9248 41.7502C72.0389 41.8642 72.1029 42.0189 72.1029 42.1802V65.3607C72.1029 65.522 72.0389 65.6766 71.9248 65.7907C71.8108 65.9047 71.6561 65.9688 71.4948 65.9688Z" fill="#212D55"/>
<path d="M40.1784 65.9688C40.0171 65.9688 39.8625 65.9047 39.7484 65.7907C39.6344 65.6766 39.5703 65.522 39.5703 65.3607V46.4212C39.5703 46.2599 39.6344 46.1052 39.7484 45.9912C39.8625 45.8771 40.0171 45.813 40.1784 45.813H52.6696C52.8308 45.813 52.9855 45.8771 53.0996 45.9912C53.2136 46.1052 53.2777 46.2599 53.2777 46.4212C53.2777 46.5824 53.2136 46.7371 53.0996 46.8512C52.9855 46.9652 52.8308 47.0293 52.6696 47.0293H40.7865V65.3607C40.7865 65.522 40.7225 65.6766 40.6084 65.7907C40.4944 65.9047 40.3397 65.9688 40.1784 65.9688Z" fill="#212D55"/>
<path d="M43.5292 49.365H42.237C42.0757 49.365 41.9211 49.301 41.807 49.1869C41.693 49.0729 41.6289 48.9182 41.6289 48.7569C41.6289 48.5956 41.693 48.441 41.807 48.3269C41.9211 48.2129 42.0757 48.1488 42.237 48.1488H43.5292C43.6905 48.1488 43.8452 48.2129 43.9592 48.3269C44.0733 48.441 44.1374 48.5956 44.1374 48.7569C44.1374 48.9182 44.0733 49.0729 43.9592 49.1869C43.8452 49.301 43.6905 49.365 43.5292 49.365Z" fill="#212D55"/>
<path d="M47.0728 49.365H45.78C45.6187 49.365 45.464 49.301 45.35 49.1869C45.2359 49.0729 45.1719 48.9182 45.1719 48.7569C45.1719 48.5956 45.2359 48.441 45.35 48.3269C45.464 48.2129 45.6187 48.1488 45.78 48.1488H47.0728C47.2341 48.1488 47.3888 48.2129 47.5028 48.3269C47.6169 48.441 47.6809 48.5956 47.6809 48.7569C47.6809 48.9182 47.6169 49.0729 47.5028 49.1869C47.3888 49.301 47.2341 49.365 47.0728 49.365Z" fill="#212D55"/>
<path d="M50.6152 49.365H49.323C49.1617 49.365 49.007 49.301 48.893 49.1869C48.7789 49.0729 48.7148 48.9182 48.7148 48.7569C48.7148 48.5956 48.7789 48.441 48.893 48.3269C49.007 48.2129 49.1617 48.1488 49.323 48.1488H50.6152C50.7765 48.1488 50.9311 48.2129 51.0452 48.3269C51.1592 48.441 51.2233 48.5956 51.2233 48.7569C51.2233 48.9182 51.1592 49.0729 51.0452 49.1869C50.9311 49.301 50.7765 49.365 50.6152 49.365Z" fill="#212D55"/>
<path d="M43.5292 52.2188H42.237C42.0757 52.2188 41.9211 52.1548 41.807 52.0407C41.693 51.9267 41.6289 51.772 41.6289 51.6107C41.6289 51.4495 41.693 51.2948 41.807 51.1807C41.9211 51.0667 42.0757 51.0026 42.237 51.0026H43.5292C43.6905 51.0026 43.8452 51.0667 43.9592 51.1807C44.0733 51.2948 44.1374 51.4495 44.1374 51.6107C44.1374 51.772 44.0733 51.9267 43.9592 52.0407C43.8452 52.1548 43.6905 52.2188 43.5292 52.2188Z" fill="#212D55"/>
<path d="M47.0728 52.2188H45.78C45.6187 52.2188 45.464 52.1548 45.35 52.0407C45.2359 51.9267 45.1719 51.772 45.1719 51.6107C45.1719 51.4495 45.2359 51.2948 45.35 51.1807C45.464 51.0667 45.6187 51.0026 45.78 51.0026H47.0728C47.2341 51.0026 47.3888 51.0667 47.5028 51.1807C47.6169 51.2948 47.6809 51.4495 47.6809 51.6107C47.6809 51.772 47.6169 51.9267 47.5028 52.0407C47.3888 52.1548 47.2341 52.2188 47.0728 52.2188Z" fill="#212D55"/>
<path d="M50.6152 52.2188H49.323C49.1617 52.2188 49.007 52.1548 48.893 52.0407C48.7789 51.9267 48.7148 51.772 48.7148 51.6107C48.7148 51.4495 48.7789 51.2948 48.893 51.1807C49.007 51.0667 49.1617 51.0026 49.323 51.0026H50.6152C50.7765 51.0026 50.9311 51.0667 51.0452 51.1807C51.1592 51.2948 51.2233 51.4495 51.2233 51.6107C51.2233 51.772 51.1592 51.9267 51.0452 52.0407C50.9311 52.1548 50.7765 52.2188 50.6152 52.2188Z" fill="#212D55"/>
<path d="M43.5292 55.0721H42.237C42.0757 55.0721 41.9211 55.008 41.807 54.894C41.693 54.78 41.6289 54.6253 41.6289 54.464C41.6289 54.3027 41.693 54.1481 41.807 54.034C41.9211 53.92 42.0757 53.8559 42.237 53.8559H43.5292C43.6905 53.8559 43.8452 53.92 43.9592 54.034C44.0733 54.1481 44.1374 54.3027 44.1374 54.464C44.1374 54.6253 44.0733 54.78 43.9592 54.894C43.8452 55.008 43.6905 55.0721 43.5292 55.0721Z" fill="#212D55"/>
<path d="M47.0728 55.0721H45.78C45.6187 55.0721 45.464 55.008 45.35 54.894C45.2359 54.78 45.1719 54.6253 45.1719 54.464C45.1719 54.3027 45.2359 54.1481 45.35 54.034C45.464 53.92 45.6187 53.8559 45.78 53.8559H47.0728C47.2341 53.8559 47.3888 53.92 47.5028 54.034C47.6169 54.1481 47.6809 54.3027 47.6809 54.464C47.6809 54.6253 47.6169 54.78 47.5028 54.894C47.3888 55.008 47.2341 55.0721 47.0728 55.0721Z" fill="#212D55"/>
<path d="M50.6152 55.0721H49.323C49.1617 55.0721 49.007 55.008 48.893 54.894C48.7789 54.78 48.7148 54.6253 48.7148 54.464C48.7148 54.3027 48.7789 54.1481 48.893 54.034C49.007 53.92 49.1617 53.8559 49.323 53.8559H50.6152C50.7765 53.8559 50.9311 53.92 51.0452 54.034C51.1592 54.1481 51.2233 54.3027 51.2233 54.464C51.2233 54.6253 51.1592 54.78 51.0452 54.894C50.9311 55.008 50.7765 55.0721 50.6152 55.0721Z" fill="#212D55"/>
<path d="M43.5292 57.9259H42.237C42.0757 57.9259 41.9211 57.8619 41.807 57.7478C41.693 57.6338 41.6289 57.4791 41.6289 57.3178C41.6289 57.1565 41.693 57.0019 41.807 56.8878C41.9211 56.7738 42.0757 56.7097 42.237 56.7097H43.5292C43.6905 56.7097 43.8452 56.7738 43.9592 56.8878C44.0733 57.0019 44.1374 57.1565 44.1374 57.3178C44.1374 57.4791 44.0733 57.6338 43.9592 57.7478C43.8452 57.8619 43.6905 57.9259 43.5292 57.9259Z" fill="#212D55"/>
<path d="M47.0728 57.9259H45.78C45.6187 57.9259 45.464 57.8619 45.35 57.7478C45.2359 57.6338 45.1719 57.4791 45.1719 57.3178C45.1719 57.1565 45.2359 57.0019 45.35 56.8878C45.464 56.7738 45.6187 56.7097 45.78 56.7097H47.0728C47.2341 56.7097 47.3888 56.7738 47.5028 56.8878C47.6169 57.0019 47.6809 57.1565 47.6809 57.3178C47.6809 57.4791 47.6169 57.6338 47.5028 57.7478C47.3888 57.8619 47.2341 57.9259 47.0728 57.9259Z" fill="#212D55"/>
<path d="M50.6152 57.9259H49.323C49.1617 57.9259 49.007 57.8619 48.893 57.7478C48.7789 57.6338 48.7148 57.4791 48.7148 57.3178C48.7148 57.1565 48.7789 57.0019 48.893 56.8878C49.007 56.7738 49.1617 56.7097 49.323 56.7097H50.6152C50.7765 56.7097 50.9311 56.7738 51.0452 56.8878C51.1592 57.0019 51.2233 57.1565 51.2233 57.3178C51.2233 57.4791 51.1592 57.6338 51.0452 57.7478C50.9311 57.8619 50.7765 57.9259 50.6152 57.9259Z" fill="#212D55"/>
<path d="M43.5292 60.7798H42.237C42.0757 60.7798 41.9211 60.7157 41.807 60.6017C41.693 60.4877 41.6289 60.333 41.6289 60.1717C41.6289 60.0104 41.693 59.8558 41.807 59.7417C41.9211 59.6277 42.0757 59.5636 42.237 59.5636H43.5292C43.6905 59.5636 43.8452 59.6277 43.9592 59.7417C44.0733 59.8558 44.1374 60.0104 44.1374 60.1717C44.1374 60.333 44.0733 60.4877 43.9592 60.6017C43.8452 60.7157 43.6905 60.7798 43.5292 60.7798Z" fill="#212D55"/>
<path d="M47.0728 60.7798H45.78C45.6187 60.7798 45.464 60.7157 45.35 60.6017C45.2359 60.4877 45.1719 60.333 45.1719 60.1717C45.1719 60.0104 45.2359 59.8558 45.35 59.7417C45.464 59.6277 45.6187 59.5636 45.78 59.5636H47.0728C47.2341 59.5636 47.3888 59.6277 47.5028 59.7417C47.6169 59.8558 47.6809 60.0104 47.6809 60.1717C47.6809 60.333 47.6169 60.4877 47.5028 60.6017C47.3888 60.7157 47.2341 60.7798 47.0728 60.7798Z" fill="#212D55"/>
<path d="M50.6152 60.7798H49.323C49.1617 60.7798 49.007 60.7157 48.893 60.6017C48.7789 60.4877 48.7148 60.333 48.7148 60.1717C48.7148 60.0104 48.7789 59.8558 48.893 59.7417C49.007 59.6277 49.1617 59.5636 49.323 59.5636H50.6152C50.7765 59.5636 50.9311 59.6277 51.0452 59.7417C51.1592 59.8558 51.2233 60.0104 51.2233 60.1717C51.2233 60.333 51.1592 60.4877 51.0452 60.6017C50.9311 60.7157 50.7765 60.7798 50.6152 60.7798Z" fill="#212D55"/>
<path d="M43.5292 63.6336H42.237C42.0757 63.6336 41.9211 63.5696 41.807 63.4555C41.693 63.3415 41.6289 63.1868 41.6289 63.0255C41.6289 62.8642 41.693 62.7096 41.807 62.5955C41.9211 62.4815 42.0757 62.4174 42.237 62.4174H43.5292C43.6905 62.4174 43.8452 62.4815 43.9592 62.5955C44.0733 62.7096 44.1374 62.8642 44.1374 63.0255C44.1374 63.1868 44.0733 63.3415 43.9592 63.4555C43.8452 63.5696 43.6905 63.6336 43.5292 63.6336Z" fill="#212D55"/>
<path d="M47.0728 63.6336H45.78C45.6187 63.6336 45.464 63.5696 45.35 63.4555C45.2359 63.3415 45.1719 63.1868 45.1719 63.0255C45.1719 62.8642 45.2359 62.7096 45.35 62.5955C45.464 62.4815 45.6187 62.4174 45.78 62.4174H47.0728C47.2341 62.4174 47.3888 62.4815 47.5028 62.5955C47.6169 62.7096 47.6809 62.8642 47.6809 63.0255C47.6809 63.1868 47.6169 63.3415 47.5028 63.4555C47.3888 63.5696 47.2341 63.6336 47.0728 63.6336Z" fill="#212D55"/>
<path d="M50.6152 63.6336H49.323C49.1617 63.6336 49.007 63.5696 48.893 63.4555C48.7789 63.3415 48.7148 63.1868 48.7148 63.0255C48.7148 62.8642 48.7789 62.7096 48.893 62.5955C49.007 62.4815 49.1617 62.4174 49.323 62.4174H50.6152C50.7765 62.4174 50.9311 62.4815 51.0452 62.5955C51.1592 62.7096 51.2233 62.8642 51.2233 63.0255C51.2233 63.1868 51.1592 63.3415 51.0452 63.4555C50.9311 63.5696 50.7765 63.6336 50.6152 63.6336Z" fill="#212D55"/>
<path d="M57.6159 35.1195C57.4546 35.1195 57.3 35.0554 57.1859 34.9413C57.0719 34.8273 57.0078 34.6726 57.0078 34.5113V33.3638C57.0078 33.2026 57.0719 33.0479 57.1859 32.9338C57.3 32.8198 57.4546 32.7557 57.6159 32.7557C57.7772 32.7557 57.9319 32.8198 58.0459 32.9338C58.16 33.0479 58.224 33.2026 58.224 33.3638V34.5113C58.224 34.6726 58.16 34.8273 58.0459 34.9413C57.9319 35.0554 57.7772 35.1195 57.6159 35.1195Z" fill="#212D55"/>
<path d="M54.8425 35.8267C54.6812 35.8267 54.5265 35.7626 54.4125 35.6486C54.2984 35.5345 54.2344 35.3798 54.2344 35.2186V34.0711C54.2344 33.9098 54.2984 33.7551 54.4125 33.6411C54.5265 33.527 54.6812 33.463 54.8425 33.463C55.0038 33.463 55.1584 33.527 55.2725 33.6411C55.3865 33.7551 55.4506 33.9098 55.4506 34.0711V35.2186C55.4506 35.3798 55.3865 35.5345 55.2725 35.6486C55.1584 35.7626 55.0038 35.8267 54.8425 35.8267Z" fill="#212D55"/>
<path d="M57.6159 39.6937C57.4546 39.6937 57.3 39.6296 57.1859 39.5156C57.0719 39.4015 57.0078 39.2468 57.0078 39.0856V37.9381C57.0078 37.7768 57.0719 37.6221 57.1859 37.5081C57.3 37.394 57.4546 37.33 57.6159 37.33C57.7772 37.33 57.9319 37.394 58.0459 37.5081C58.16 37.6221 58.224 37.7768 58.224 37.9381V39.0856C58.224 39.2468 58.16 39.4015 58.0459 39.5156C57.9319 39.6296 57.7772 39.6937 57.6159 39.6937Z" fill="#212D55"/>
<path d="M54.8425 40.4009C54.6812 40.4009 54.5265 40.3368 54.4125 40.2228C54.2984 40.1087 54.2344 39.9541 54.2344 39.7928V38.6453C54.2344 38.484 54.2984 38.3293 54.4125 38.2153C54.5265 38.1012 54.6812 38.0372 54.8425 38.0372C55.0038 38.0372 55.1584 38.1012 55.2725 38.2153C55.3865 38.3293 55.4506 38.484 55.4506 38.6453V39.7928C55.4506 39.9541 55.3865 40.1087 55.2725 40.2228C55.1584 40.3368 55.0038 40.4009 54.8425 40.4009Z" fill="#212D55"/>
<path d="M57.6159 44.2703C57.4546 44.2703 57.3 44.2062 57.1859 44.0921C57.0719 43.9781 57.0078 43.8234 57.0078 43.6622V42.5122C57.0078 42.3509 57.0719 42.1963 57.1859 42.0822C57.3 41.9682 57.4546 41.9041 57.6159 41.9041C57.7772 41.9041 57.9319 41.9682 58.0459 42.0822C58.16 42.1963 58.224 42.3509 58.224 42.5122V43.6622C58.224 43.8234 58.16 43.9781 58.0459 44.0921C57.9319 44.2062 57.7772 44.2703 57.6159 44.2703Z" fill="#212D55"/>
<path d="M54.8425 44.975C54.6812 44.975 54.5265 44.911 54.4125 44.7969C54.2984 44.6829 54.2344 44.5282 54.2344 44.3669V43.2194C54.2344 43.0582 54.2984 42.9035 54.4125 42.7894C54.5265 42.6754 54.6812 42.6113 54.8425 42.6113C55.0038 42.6113 55.1584 42.6754 55.2725 42.7894C55.3865 42.9035 55.4506 43.0582 55.4506 43.2194V44.3669C55.4506 44.5282 55.3865 44.6829 55.2725 44.7969C55.1584 44.911 55.0038 44.975 54.8425 44.975Z" fill="#212D55"/>
<path d="M57.6159 48.8414C57.4546 48.8414 57.3 48.7774 57.1859 48.6633C57.0719 48.5493 57.0078 48.3946 57.0078 48.2333V47.0858C57.0078 46.9246 57.0719 46.7699 57.1859 46.6558C57.3 46.5418 57.4546 46.4777 57.6159 46.4777C57.7772 46.4777 57.9319 46.5418 58.0459 46.6558C58.16 46.7699 58.224 46.9246 58.224 47.0858V48.2333C58.224 48.3946 58.16 48.5493 58.0459 48.6633C57.9319 48.7774 57.7772 48.8414 57.6159 48.8414Z" fill="#212D55"/>
<path d="M54.8425 49.5486C54.6812 49.5486 54.5265 49.4846 54.4125 49.3705C54.2984 49.2565 54.2344 49.1018 54.2344 48.9405V47.793C54.2344 47.6318 54.2984 47.4771 54.4125 47.363C54.5265 47.249 54.6812 47.1849 54.8425 47.1849C55.0038 47.1849 55.1584 47.249 55.2725 47.363C55.3865 47.4771 55.4506 47.6318 55.4506 47.793V48.9405C55.4506 49.1018 55.3865 49.2565 55.2725 49.3705C55.1584 49.4846 55.0038 49.5486 54.8425 49.5486Z" fill="#212D55"/>
<path d="M57.6159 53.4156C57.4546 53.4156 57.3 53.3515 57.1859 53.2375C57.0719 53.1234 57.0078 52.9688 57.0078 52.8075V51.66C57.0078 51.4987 57.0719 51.344 57.1859 51.23C57.3 51.116 57.4546 51.0519 57.6159 51.0519C57.7772 51.0519 57.9319 51.116 58.0459 51.23C58.16 51.344 58.224 51.4987 58.224 51.66V52.8075C58.224 52.9688 58.16 53.1234 58.0459 53.2375C57.9319 53.3515 57.7772 53.4156 57.6159 53.4156Z" fill="#212D55"/>
<path d="M54.8425 54.1217C54.6812 54.1217 54.5265 54.0576 54.4125 53.9435C54.2984 53.8295 54.2344 53.6748 54.2344 53.5135V52.3673C54.2344 52.206 54.2984 52.0513 54.4125 51.9373C54.5265 51.8232 54.6812 51.7592 54.8425 51.7592C55.0038 51.7592 55.1584 51.8232 55.2725 51.9373C55.3865 52.0513 55.4506 52.206 55.4506 52.3673V53.5135C55.4506 53.6748 55.3865 53.8295 55.2725 53.9435C55.1584 54.0576 55.0038 54.1217 54.8425 54.1217Z" fill="#212D55"/>
<path d="M57.6159 57.9898C57.4546 57.9898 57.3 57.9257 57.1859 57.8117C57.0719 57.6977 57.0078 57.543 57.0078 57.3817V56.2342C57.0078 56.0729 57.0719 55.9183 57.1859 55.8042C57.3 55.6902 57.4546 55.6261 57.6159 55.6261C57.7772 55.6261 57.9319 55.6902 58.0459 55.8042C58.16 55.9183 58.224 56.0729 58.224 56.2342V57.3817C58.224 57.543 58.16 57.6977 58.0459 57.8117C57.9319 57.9257 57.7772 57.9898 57.6159 57.9898Z" fill="#212D55"/>
<path d="M54.8425 58.697C54.6812 58.697 54.5265 58.633 54.4125 58.5189C54.2984 58.4049 54.2344 58.2502 54.2344 58.0889V56.9414C54.2344 56.7801 54.2984 56.6255 54.4125 56.5114C54.5265 56.3974 54.6812 56.3333 54.8425 56.3333C55.0038 56.3333 55.1584 56.3974 55.2725 56.5114C55.3865 56.6255 55.4506 56.7801 55.4506 56.9414V58.0889C55.4506 58.2502 55.3865 58.4049 55.2725 58.5189C55.1584 58.633 55.0038 58.697 54.8425 58.697Z" fill="#212D55"/>
<path d="M57.6159 62.5634C57.4546 62.5634 57.3 62.4993 57.1859 62.3853C57.0719 62.2712 57.0078 62.1165 57.0078 61.9553V60.8108C57.0078 60.6495 57.0719 60.4949 57.1859 60.3808C57.3 60.2668 57.4546 60.2027 57.6159 60.2027C57.7772 60.2027 57.9319 60.2668 58.0459 60.3808C58.16 60.4949 58.224 60.6495 58.224 60.8108V61.9583C58.2232 62.1191 58.1588 62.273 58.0448 62.3863C57.9309 62.4997 57.7767 62.5634 57.6159 62.5634Z" fill="#212D55"/>
<path d="M54.8425 63.2713C54.6812 63.2713 54.5265 63.2072 54.4125 63.0931C54.2984 62.9791 54.2344 62.8244 54.2344 62.6631V61.515C54.2344 61.3538 54.2984 61.1991 54.4125 61.085C54.5265 60.971 54.6812 60.9069 54.8425 60.9069C55.0038 60.9069 55.1584 60.971 55.2725 61.085C55.3865 61.1991 55.4506 61.3538 55.4506 61.515V62.6625C55.4507 62.7424 55.435 62.8216 55.4045 62.8954C55.374 62.9693 55.3292 63.0364 55.2727 63.0929C55.2162 63.1495 55.1492 63.1943 55.0753 63.2249C55.0015 63.2555 54.9224 63.2713 54.8425 63.2713Z" fill="#212D55"/>
<path d="M61.8112 34.5405C61.65 34.5405 61.4953 34.4765 61.3812 34.3624C61.2672 34.2484 61.2031 34.0937 61.2031 33.9324V32.7861C61.2031 32.6249 61.2672 32.4702 61.3812 32.3561C61.4953 32.2421 61.65 32.178 61.8112 32.178C61.9725 32.178 62.1272 32.2421 62.2412 32.3561C62.3553 32.4702 62.4193 32.6249 62.4193 32.7861V33.9324C62.4193 34.0937 62.3553 34.2484 62.2412 34.3624C62.1272 34.4765 61.9725 34.5405 61.8112 34.5405Z" fill="#212D55"/>
<path d="M63.8659 35.3159C63.7046 35.3159 63.55 35.2518 63.4359 35.1378C63.3219 35.0237 63.2578 34.869 63.2578 34.7078V33.5609C63.2578 33.3996 63.3219 33.2449 63.4359 33.1309C63.55 33.0168 63.7046 32.9528 63.8659 32.9528C64.0272 32.9528 64.1819 33.0168 64.2959 33.1309C64.41 33.2449 64.474 33.3996 64.474 33.5609V34.7084C64.4739 34.8695 64.4097 35.0241 64.2957 35.138C64.1817 35.2519 64.0271 35.3159 63.8659 35.3159Z" fill="#212D55"/>
<path d="M65.9167 36.0906C65.7554 36.0906 65.6007 36.0265 65.4867 35.9125C65.3727 35.7984 65.3086 35.6438 65.3086 35.4825V34.3356C65.3086 34.1743 65.3727 34.0196 65.4867 33.9056C65.6007 33.7915 65.7554 33.7275 65.9167 33.7275C66.078 33.7275 66.2327 33.7915 66.3467 33.9056C66.4607 34.0196 66.5248 34.1743 66.5248 34.3356V35.4831C66.5247 35.6443 66.4605 35.7988 66.3465 35.9127C66.2325 36.0266 66.0779 36.0906 65.9167 36.0906Z" fill="#212D55"/>
<path d="M61.8112 39.1013C61.65 39.1013 61.4953 39.0373 61.3812 38.9232C61.2672 38.8092 61.2031 38.6545 61.2031 38.4932V37.3439C61.2031 37.1826 61.2672 37.0279 61.3812 36.9139C61.4953 36.7998 61.65 36.7358 61.8112 36.7358C61.9725 36.7358 62.1272 36.7998 62.2412 36.9139C62.3553 37.0279 62.4193 37.1826 62.4193 37.3439V38.4932C62.4193 38.6545 62.3553 38.8092 62.2412 38.9232C62.1272 39.0373 61.9725 39.1013 61.8112 39.1013Z" fill="#212D55"/>
<path d="M63.8659 39.8736C63.7046 39.8736 63.55 39.8095 63.4359 39.6955C63.3219 39.5815 63.2578 39.4268 63.2578 39.2655V38.1186C63.2578 37.9573 63.3219 37.8027 63.4359 37.6886C63.55 37.5746 63.7046 37.5105 63.8659 37.5105C64.0272 37.5105 64.1819 37.5746 64.2959 37.6886C64.41 37.8027 64.474 37.9573 64.474 38.1186V39.2655C64.474 39.4268 64.41 39.5815 64.2959 39.6955C64.1819 39.8095 64.0272 39.8736 63.8659 39.8736Z" fill="#212D55"/>
<path d="M65.9167 40.6484C65.7554 40.6484 65.6007 40.5843 65.4867 40.4703C65.3727 40.3562 65.3086 40.2016 65.3086 40.0403V38.8934C65.3086 38.7321 65.3727 38.5774 65.4867 38.4634C65.6007 38.3493 65.7554 38.2853 65.9167 38.2853C66.078 38.2853 66.2327 38.3493 66.3467 38.4634C66.4607 38.5774 66.5248 38.7321 66.5248 38.8934V40.0409C66.5247 40.2021 66.4605 40.3566 66.3465 40.4705C66.2325 40.5844 66.0779 40.6484 65.9167 40.6484Z" fill="#212D55"/>
<path d="M61.8112 43.6573C61.65 43.6573 61.4953 43.5932 61.3812 43.4792C61.2672 43.3651 61.2031 43.2105 61.2031 43.0492V41.8986C61.2031 41.7374 61.2672 41.5827 61.3812 41.4686C61.4953 41.3546 61.65 41.2905 61.8112 41.2905C61.9725 41.2905 62.1272 41.3546 62.2412 41.4686C62.3553 41.5827 62.4193 41.7374 62.4193 41.8986V43.0461C62.4197 43.1262 62.4043 43.2056 62.3739 43.2798C62.3436 43.3539 62.2988 43.4213 62.2423 43.4781C62.1858 43.5349 62.1186 43.58 62.0447 43.6107C61.9707 43.6415 61.8914 43.6573 61.8112 43.6573Z" fill="#212D55"/>
<path d="M63.8659 44.4321C63.7046 44.4321 63.55 44.368 63.4359 44.254C63.3219 44.1399 63.2578 43.9852 63.2578 43.824V42.6765C63.2578 42.5152 63.3219 42.3605 63.4359 42.2465C63.55 42.1324 63.7046 42.0684 63.8659 42.0684C64.0272 42.0684 64.1819 42.1324 64.2959 42.2465C64.41 42.3605 64.474 42.5152 64.474 42.6765V43.824C64.474 43.9852 64.41 44.1399 64.2959 44.254C64.1819 44.368 64.0272 44.4321 63.8659 44.4321Z" fill="#212D55"/>
<path d="M65.9167 45.2061C65.7554 45.2061 65.6007 45.1421 65.4867 45.028C65.3727 44.914 65.3086 44.7593 65.3086 44.598V43.4511C65.3086 43.2898 65.3727 43.1352 65.4867 43.0211C65.6007 42.9071 65.7554 42.843 65.9167 42.843C66.078 42.843 66.2327 42.9071 66.3467 43.0211C66.4607 43.1352 66.5248 43.2898 66.5248 43.4511V44.5986C66.5247 44.7598 66.4605 44.9143 66.3465 45.0282C66.2325 45.1421 66.0779 45.2061 65.9167 45.2061Z" fill="#212D55"/>
<path d="M61.8112 48.2151C61.65 48.2151 61.4953 48.151 61.3812 48.037C61.2672 47.9229 61.2031 47.7683 61.2031 47.607V46.4595C61.2031 46.2982 61.2672 46.1435 61.3812 46.0295C61.4953 45.9154 61.65 45.8514 61.8112 45.8514C61.9725 45.8514 62.1272 45.9154 62.2412 46.0295C62.3553 46.1435 62.4193 46.2982 62.4193 46.4595V47.607C62.4193 47.7683 62.3553 47.9229 62.2412 48.037C62.1272 48.151 61.9725 48.2151 61.8112 48.2151Z" fill="#212D55"/>
<path d="M63.8659 48.9898C63.7046 48.9898 63.55 48.9258 63.4359 48.8117C63.3219 48.6977 63.2578 48.543 63.2578 48.3817V47.2342C63.2578 47.0729 63.3219 46.9183 63.4359 46.8042C63.55 46.6902 63.7046 46.6261 63.8659 46.6261C64.0272 46.6261 64.1819 46.6902 64.2959 46.8042C64.41 46.9183 64.474 47.0729 64.474 47.2342V48.3817C64.474 48.543 64.41 48.6977 64.2959 48.8117C64.1819 48.9258 64.0272 48.9898 63.8659 48.9898Z" fill="#212D55"/>
<path d="M65.9167 49.7645C65.7554 49.7645 65.6007 49.7005 65.4867 49.5864C65.3727 49.4724 65.3086 49.3177 65.3086 49.1564V48.0089C65.3086 47.8476 65.3727 47.693 65.4867 47.5789C65.6007 47.4649 65.7554 47.4008 65.9167 47.4008C66.078 47.4008 66.2327 47.4649 66.3467 47.5789C66.4607 47.693 66.5248 47.8476 66.5248 48.0089V49.1564C66.5248 49.3177 66.4607 49.4724 66.3467 49.5864C66.2327 49.7005 66.078 49.7645 65.9167 49.7645Z" fill="#212D55"/>
<path d="M61.8112 52.7728C61.65 52.7728 61.4953 52.7087 61.3812 52.5947C61.2672 52.4806 61.2031 52.326 61.2031 52.1647V51.0202C61.2031 50.8589 61.2672 50.7043 61.3812 50.5902C61.4953 50.4762 61.65 50.4121 61.8112 50.4121C61.9725 50.4121 62.1272 50.4762 62.2412 50.5902C62.3553 50.7043 62.4193 50.8589 62.4193 51.0202V52.1677C62.4185 52.3285 62.3541 52.4824 62.2402 52.5957C62.1262 52.7091 61.972 52.7728 61.8112 52.7728Z" fill="#212D55"/>
<path d="M63.8659 53.5475C63.7046 53.5475 63.55 53.4835 63.4359 53.3694C63.3219 53.2554 63.2578 53.1007 63.2578 52.9394V51.7919C63.2578 51.6307 63.3219 51.476 63.4359 51.3619C63.55 51.2479 63.7046 51.1838 63.8659 51.1838C64.0272 51.1838 64.1819 51.2479 64.2959 51.3619C64.41 51.476 64.474 51.6307 64.474 51.7919V52.9394C64.474 53.1007 64.41 53.2554 64.2959 53.3694C64.1819 53.4835 64.0272 53.5475 63.8659 53.5475Z" fill="#212D55"/>
<path d="M65.9167 54.3223C65.7554 54.3223 65.6007 54.2582 65.4867 54.1442C65.3727 54.0301 65.3086 53.8754 65.3086 53.7142V52.5667C65.3086 52.4054 65.3727 52.2507 65.4867 52.1367C65.6007 52.0226 65.7554 51.9586 65.9167 51.9586C66.078 51.9586 66.2327 52.0226 66.3467 52.1367C66.4607 52.2507 66.5248 52.4054 66.5248 52.5667V53.7142C66.5248 53.8754 66.4607 54.0301 66.3467 54.1442C66.2327 54.2582 66.078 54.3223 65.9167 54.3223Z" fill="#212D55"/>
<path d="M61.8112 57.3306C61.65 57.3306 61.4953 57.2666 61.3812 57.1525C61.2672 57.0385 61.2031 56.8838 61.2031 56.7225V55.575C61.2031 55.4137 61.2672 55.2591 61.3812 55.145C61.4953 55.031 61.65 54.9669 61.8112 54.9669C61.9725 54.9669 62.1272 55.031 62.2412 55.145C62.3553 55.2591 62.4193 55.4137 62.4193 55.575V56.7225C62.4193 56.8838 62.3553 57.0385 62.2412 57.1525C62.1272 57.2666 61.9725 57.3306 61.8112 57.3306Z" fill="#212D55"/>
<path d="M63.8659 58.1054C63.7046 58.1054 63.55 58.0413 63.4359 57.9272C63.3219 57.8132 63.2578 57.6585 63.2578 57.4972V56.3497C63.2578 56.1885 63.3219 56.0338 63.4359 55.9197C63.55 55.8057 63.7046 55.7416 63.8659 55.7416C64.0272 55.7416 64.1819 55.8057 64.2959 55.9197C64.41 56.0338 64.474 56.1885 64.474 56.3497V57.4972C64.474 57.6585 64.41 57.8132 64.2959 57.9272C64.1819 58.0413 64.0272 58.1054 63.8659 58.1054Z" fill="#212D55"/>
<path d="M65.9167 58.8801C65.7554 58.8801 65.6007 58.816 65.4867 58.702C65.3727 58.5879 65.3086 58.4332 65.3086 58.272V57.1245C65.3086 56.9632 65.3727 56.8085 65.4867 56.6945C65.6007 56.5804 65.7554 56.5164 65.9167 56.5164C66.078 56.5164 66.2327 56.5804 66.3467 56.6945C66.4607 56.8085 66.5248 56.9632 66.5248 57.1245V58.272C66.5248 58.4332 66.4607 58.5879 66.3467 58.702C66.2327 58.816 66.078 58.8801 65.9167 58.8801Z" fill="#212D55"/>
<path d="M61.8112 61.8884C61.65 61.8884 61.4953 61.8243 61.3812 61.7103C61.2672 61.5962 61.2031 61.4415 61.2031 61.2803V60.1328C61.2031 59.9715 61.2672 59.8168 61.3812 59.7028C61.4953 59.5887 61.65 59.5247 61.8112 59.5247C61.9725 59.5247 62.1272 59.5887 62.2412 59.7028C62.3553 59.8168 62.4193 59.9715 62.4193 60.1328V61.2803C62.4193 61.4415 62.3553 61.5962 62.2412 61.7103C62.1272 61.8243 61.9725 61.8884 61.8112 61.8884Z" fill="#212D55"/>
<path d="M63.8659 62.6631C63.7046 62.6631 63.55 62.599 63.4359 62.485C63.3219 62.3709 63.2578 62.2163 63.2578 62.055V60.9075C63.2578 60.7462 63.3219 60.5915 63.4359 60.4775C63.55 60.3634 63.7046 60.2994 63.8659 60.2994C64.0272 60.2994 64.1819 60.3634 64.2959 60.4775C64.41 60.5915 64.474 60.7462 64.474 60.9075V62.055C64.474 62.2163 64.41 62.3709 64.2959 62.485C64.1819 62.599 64.0272 62.6631 63.8659 62.6631Z" fill="#212D55"/>
<path d="M65.9167 63.4378C65.7554 63.4378 65.6007 63.3737 65.4867 63.2597C65.3727 63.1457 65.3086 62.991 65.3086 62.8297V61.6822C65.3086 61.5209 65.3727 61.3662 65.4867 61.2522C65.6007 61.1382 65.7554 61.0741 65.9167 61.0741C66.078 61.0741 66.2327 61.1382 66.3467 61.2522C66.4607 61.3662 66.5248 61.5209 66.5248 61.6822V62.8297C66.5248 62.991 66.4607 63.1457 66.3467 63.2597C66.2327 63.3737 66.078 63.4378 65.9167 63.4378Z" fill="#212D55"/>
<path d="M73.6081 47.4629C73.4468 47.4629 73.2922 47.3988 73.1781 47.2847C73.0641 47.1707 73 47.016 73 46.8547V46.2399C73 46.0787 73.0641 45.924 73.1781 45.8099C73.2922 45.6959 73.4468 45.6318 73.6081 45.6318C73.7694 45.6318 73.9241 45.6959 74.0381 45.8099C74.1521 45.924 74.2162 46.0787 74.2162 46.2399V46.8547C74.2162 47.016 74.1521 47.1707 74.0381 47.2847C73.9241 47.3988 73.7694 47.4629 73.6081 47.4629Z" fill="#212D55"/>
<path d="M75.6589 48.7508C75.4976 48.7508 75.3429 48.6867 75.2289 48.5727C75.1148 48.4587 75.0508 48.304 75.0508 48.1427V47.5279C75.0508 47.3666 75.1148 47.212 75.2289 47.0979C75.3429 46.9839 75.4976 46.9198 75.6589 46.9198C75.8202 46.9198 75.9748 46.9839 76.0889 47.0979C76.2029 47.212 76.267 47.3666 76.267 47.5279V48.1427C76.267 48.304 76.2029 48.4587 76.0889 48.5727C75.9748 48.6867 75.8202 48.7508 75.6589 48.7508Z" fill="#212D55"/>
<path d="M73.6081 50.4657C73.4468 50.4657 73.2922 50.4017 73.1781 50.2876C73.0641 50.1736 73 50.0189 73 49.8576V49.2434C73 49.0821 73.0641 48.9275 73.1781 48.8134C73.2922 48.6994 73.4468 48.6353 73.6081 48.6353C73.7694 48.6353 73.9241 48.6994 74.0381 48.8134C74.1521 48.9275 74.2162 49.0821 74.2162 49.2434V49.8582C74.2161 50.0194 74.1519 50.1739 74.0379 50.2878C73.9239 50.4017 73.7693 50.4657 73.6081 50.4657Z" fill="#212D55"/>
<path d="M75.6589 51.7536C75.4976 51.7536 75.3429 51.6896 75.2289 51.5755C75.1148 51.4615 75.0508 51.3068 75.0508 51.1455V50.5338C75.0508 50.3725 75.1148 50.2178 75.2289 50.1038C75.3429 49.9897 75.4976 49.9257 75.6589 49.9257C75.8202 49.9257 75.9748 49.9897 76.0889 50.1038C76.2029 50.2178 76.267 50.3725 76.267 50.5338V51.1486C76.2662 51.3093 76.2018 51.4632 76.0878 51.5766C75.9739 51.69 75.8196 51.7536 75.6589 51.7536Z" fill="#212D55"/>
<path d="M73.6081 53.4691C73.4468 53.4691 73.2922 53.4051 73.1781 53.291C73.0641 53.177 73 53.0223 73 52.861V52.2462C73 52.0849 73.0641 51.9303 73.1781 51.8162C73.2922 51.7022 73.4468 51.6381 73.6081 51.6381C73.7694 51.6381 73.9241 51.7022 74.0381 51.8162C74.1521 51.9303 74.2162 52.0849 74.2162 52.2462V52.861C74.2162 53.0223 74.1521 53.177 74.0381 53.291C73.9241 53.4051 73.7694 53.4691 73.6081 53.4691Z" fill="#212D55"/>
<path d="M75.6589 54.7571C75.4976 54.7571 75.3429 54.693 75.2289 54.579C75.1148 54.4649 75.0508 54.3103 75.0508 54.149V53.5342C75.0508 53.3729 75.1148 53.2182 75.2289 53.1042C75.3429 52.9902 75.4976 52.9261 75.6589 52.9261C75.8202 52.9261 75.9748 52.9902 76.0889 53.1042C76.2029 53.2182 76.267 53.3729 76.267 53.5342V54.149C76.267 54.3103 76.2029 54.4649 76.0889 54.579C75.9748 54.693 75.8202 54.7571 75.6589 54.7571Z" fill="#212D55"/>
<path d="M73.6081 56.4725C73.4468 56.4725 73.2922 56.4085 73.1781 56.2944C73.0641 56.1804 73 56.0257 73 55.8644V55.2496C73 55.0884 73.0641 54.9337 73.1781 54.8197C73.2922 54.7056 73.4468 54.6415 73.6081 54.6415C73.7694 54.6415 73.9241 54.7056 74.0381 54.8197C74.1521 54.9337 74.2162 55.0884 74.2162 55.2496V55.8644C74.2162 56.0257 74.1521 56.1804 74.0381 56.2944C73.9241 56.4085 73.7694 56.4725 73.6081 56.4725Z" fill="#212D55"/>
<path d="M75.6589 57.7599C75.4976 57.7599 75.3429 57.6958 75.2289 57.5818C75.1148 57.4678 75.0508 57.3131 75.0508 57.1518V56.537C75.0508 56.3757 75.1148 56.221 75.2289 56.107C75.3429 55.993 75.4976 55.9289 75.6589 55.9289C75.8202 55.9289 75.9748 55.993 76.0889 56.107C76.2029 56.221 76.267 56.3757 76.267 56.537V57.1518C76.267 57.3131 76.2029 57.4678 76.0889 57.5818C75.9748 57.6958 75.8202 57.7599 75.6589 57.7599Z" fill="#212D55"/>
<path d="M73.6081 59.473C73.4468 59.473 73.2922 59.4089 73.1781 59.2949C73.0641 59.1808 73 59.0262 73 58.8649V58.2525C73 58.0912 73.0641 57.9366 73.1781 57.8225C73.2922 57.7085 73.4468 57.6444 73.6081 57.6444C73.7694 57.6444 73.9241 57.7085 74.0381 57.8225C74.1521 57.9366 74.2162 58.0912 74.2162 58.2525V58.8649C74.2162 59.0262 74.1521 59.1808 74.0381 59.2949C73.9241 59.4089 73.7694 59.473 73.6081 59.473Z" fill="#212D55"/>
<path d="M75.6589 60.7634C75.4976 60.7634 75.3429 60.6993 75.2289 60.5853C75.1148 60.4712 75.0508 60.3166 75.0508 60.1553V59.5405C75.0508 59.3792 75.1148 59.2245 75.2289 59.1105C75.3429 58.9964 75.4976 58.9324 75.6589 58.9324C75.8202 58.9324 75.9748 58.9964 76.0889 59.1105C76.2029 59.2245 76.267 59.3792 76.267 59.5405V60.1553C76.267 60.3166 76.2029 60.4712 76.0889 60.5853C75.9748 60.6993 75.8202 60.7634 75.6589 60.7634Z" fill="#212D55"/>
<path d="M73.6081 62.4788C73.4468 62.4788 73.2922 62.4148 73.1781 62.3007C73.0641 62.1867 73 62.032 73 61.8707V61.2559C73 61.0947 73.0641 60.94 73.1781 60.8259C73.2922 60.7119 73.4468 60.6478 73.6081 60.6478C73.7694 60.6478 73.9241 60.7119 74.0381 60.8259C74.1521 60.94 74.2162 61.0947 74.2162 61.2559V61.8707C74.2162 62.032 74.1521 62.1867 74.0381 62.3007C73.9241 62.4148 73.7694 62.4788 73.6081 62.4788Z" fill="#212D55"/>
<path d="M75.6589 63.7662C75.4976 63.7662 75.3429 63.7022 75.2289 63.5881C75.1148 63.4741 75.0508 63.3194 75.0508 63.1581V62.5433C75.0508 62.3821 75.1148 62.2274 75.2289 62.1134C75.3429 61.9993 75.4976 61.9352 75.6589 61.9352C75.8202 61.9352 75.9748 61.9993 76.0889 62.1134C76.2029 62.2274 76.267 62.3821 76.267 62.5433V63.1581C76.267 63.3194 76.2029 63.4741 76.0889 63.5881C75.9748 63.7022 75.8202 63.7662 75.6589 63.7662Z" fill="#212D55"/>
<path d="M79.7095 65.959H38.3581C38.1968 65.959 38.0422 65.8949 37.9281 65.7809C37.8141 65.6669 37.75 65.5122 37.75 65.3509C37.75 65.1896 37.8141 65.035 37.9281 64.9209C38.0422 64.8069 38.1968 64.7428 38.3581 64.7428H79.7095C79.8707 64.7428 80.0254 64.8069 80.1395 64.9209C80.2535 65.035 80.3176 65.1896 80.3176 65.3509C80.3176 65.5122 80.2535 65.6669 80.1395 65.7809C80.0254 65.8949 79.8707 65.959 79.7095 65.959Z" fill="#212D55"/>
<defs>
<filter id="filter0_d" x="0" y="0" width="120" height="109" filterUnits="userSpaceOnUse" color-interpolation-filters="sRGB">
<feFlood flood-opacity="0" result="BackgroundImageFix"/>
<feColorMatrix in="SourceAlpha" type="matrix" values="0 0 0 0 0 0 0 0 0 0 0 0 0 0 0 0 0 0 127 0" result="hardAlpha"/>
<feOffset dy="5"/>
<feGaussianBlur stdDeviation="10"/>
<feComposite in2="hardAlpha" operator="out"/>
<feColorMatrix type="matrix" values="0 0 0 0 0.129412 0 0 0 0 0.176471 0 0 0 0 0.333333 0 0 0 0.2 0"/>
<feBlend mode="normal" in2="BackgroundImageFix" result="effect1_dropShadow"/>
<feBlend mode="normal" in="SourceGraphic" in2="effect1_dropShadow" result="shape"/>
</filter>
</defs>
</svg>
