<svg width="120" height="109" viewBox="0 0 120 109" fill="none" xmlns="http://www.w3.org/2000/svg">
<g filter="url(#filter0_d)">
<path fill-rule="evenodd" clip-rule="evenodd" d="M30 15C24.4772 15 20 19.4772 20 25V42.3892C22.509 42.7842 24.4606 45.8171 24.4606 49.5C24.4606 53.1829 22.509 56.2159 20 56.6109V74C20 79.5229 24.4772 84 30 84H90C95.5229 84 100 79.5228 100 74V25C100 19.4772 95.5229 15 90 15H30Z" fill="white"/>
</g>
<g clip-path="url(#clip0)">
<path d="M37.7502 72.0869H73.7501C74.1645 72.0869 74.5002 71.7512 74.5002 71.3371V64.587H79.75C80.1644 64.587 80.5002 64.2513 80.5002 63.8372V56.337C80.5002 55.9229 80.1644 55.5871 79.75 55.5871H74.5002V48.8371C74.5002 48.4227 74.1645 48.0869 73.7501 48.0869H72.3737C72.4794 47.5966 72.3675 47.0844 72.0671 46.6827L68.6782 42.1652L70.243 40.9914C70.9383 40.4709 71.3265 39.6367 71.2775 38.7694L71.2023 37.4188C71.1817 37.0525 71.3458 36.7002 71.6393 36.4801L73.2038 35.3067L73.8623 36.1842C73.9815 36.3432 74.159 36.4486 74.356 36.4767C74.3911 36.4815 74.4264 36.4843 74.4621 36.4839C74.6245 36.4843 74.7824 36.4314 74.9122 36.3339L81.1003 31.6918C82.0939 30.9464 82.2954 29.5364 81.55 28.5425L81.1333 27.9863C80.3869 26.9938 78.9775 26.7929 77.9833 27.5372L71.7959 32.179C71.4646 32.4275 71.3973 32.8979 71.6458 33.2292L72.304 34.1067L70.7395 35.2806C70.0442 35.801 69.6556 36.635 69.705 37.5022L69.7799 38.8528C69.8008 39.2192 69.6367 39.5718 69.3432 39.7915L67.7786 40.9653L64.3893 36.4479C64.0347 35.9676 63.4586 35.7029 62.8629 35.7465C62.2947 35.7877 61.787 36.1172 61.5174 36.6195L55.3548 48.0869H37.7502C37.3358 48.0869 37 48.4227 37 48.8371V56.337C37 56.7514 37.3358 57.0871 37.7502 57.0871H42.9999V63.0871H37.7502C37.3358 63.0871 37 63.4228 37 63.8372V71.3371C37 71.7512 37.3358 72.0869 37.7502 72.0869ZM78.8834 28.7368C79.2144 28.4882 79.6844 28.5552 79.9333 28.8865L80.3501 29.4427C80.5984 29.774 80.5311 30.2437 80.2001 30.4922L74.6118 34.6846L73.2952 32.9288L78.8834 28.7368ZM50.5002 64.587H61.0001V70.587H50.5002V64.587ZM56.5001 57.0871H67V63.0871H56.5001V57.0871ZM73.0003 70.587H62.5V64.587H73.0003V70.587ZM79.0002 63.0871H68.5V57.0871H79.0002V63.0871ZM73.0003 55.5871H62.5V51.2197L70.1768 49.5869H73.0003V55.5871ZM62.8392 37.3302C62.8646 37.2777 62.9175 37.244 62.9759 37.2423L62.9906 37.2416C63.0703 37.243 63.1441 37.2825 63.1894 37.3477L66.578 41.8652L63.484 44.1864C63.1527 44.435 63.0854 44.905 63.334 45.2366C63.5825 45.5679 64.0525 45.6349 64.3842 45.3866L67.4782 43.0654L70.8672 47.5829C70.9211 47.6488 70.9369 47.7377 70.9084 47.8177C70.8905 47.8733 70.8435 47.9142 70.7858 47.9245L55.9065 51.0886C55.8141 51.103 55.7215 51.0635 55.6682 50.9866C55.6085 50.9145 55.5965 50.8143 55.6373 50.7298L62.8392 37.3302ZM54.4687 51.8868C54.8683 52.4365 55.5543 52.6984 56.2186 52.5556L61.0001 51.5387V55.5871H50.5002V49.5869H54.5483L54.3159 50.0195C53.9945 50.6179 54.0546 51.3488 54.4687 51.8868ZM38.5 52.5872H40C40.4144 52.5872 40.7501 52.2514 40.7501 51.837C40.7501 51.423 40.4144 51.0872 40 51.0872H38.5V49.5869H49.0002V55.5871H38.5V52.5872ZM44.4999 57.0871H55.0001V63.0871H44.4999V57.0871ZM38.5 64.587H49.0002V70.587H38.5V64.587Z" fill="#212D55"/>
<path d="M46.7499 51.837C46.7499 51.4229 46.4142 51.0872 45.9998 51.0872H42.9998C42.5858 51.0872 42.25 51.4229 42.25 51.837C42.25 52.2514 42.5858 52.5871 42.9998 52.5871H45.9998C46.4142 52.5871 46.7499 52.2514 46.7499 51.837Z" fill="#212D55"/>
</g>
<defs>
<filter id="filter0_d" x="0" y="0" width="120" height="109" filterUnits="userSpaceOnUse" color-interpolation-filters="sRGB">
<feFlood flood-opacity="0" result="BackgroundImageFix"/>
<feColorMatrix in="SourceAlpha" type="matrix" values="0 0 0 0 0 0 0 0 0 0 0 0 0 0 0 0 0 0 127 0" result="hardAlpha"/>
<feOffset dy="5"/>
<feGaussianBlur stdDeviation="10"/>
<feComposite in2="hardAlpha" operator="out"/>
<feColorMatrix type="matrix" values="0 0 0 0 0.129412 0 0 0 0 0.176471 0 0 0 0 0.333333 0 0 0 0.2 0"/>
<feBlend mode="normal" in2="BackgroundImageFix" result="effect1_dropShadow"/>
<feBlend mode="normal" in="SourceGraphic" in2="effect1_dropShadow" result="shape"/>
</filter>
<clipPath id="clip0">
<rect width="45" height="45" fill="white" transform="translate(37 27)"/>
</clipPath>
</defs>
</svg>
