<svg width="120" height="109" viewBox="0 0 120 109" fill="none" xmlns="http://www.w3.org/2000/svg">
<g filter="url(#filter0_d)">
<path fill-rule="evenodd" clip-rule="evenodd" d="M30 15C24.4772 15 20 19.4772 20 25V42.3892C22.509 42.7842 24.4606 45.8171 24.4606 49.5C24.4606 53.1829 22.509 56.2159 20 56.6109V74C20 79.5229 24.4772 84 30 84H90C95.5229 84 100 79.5228 100 74V25C100 19.4772 95.5229 15 90 15H30Z" fill="white"/>
</g>
<g clip-path="url(#clip0)">
<path d="M47.072 71.0901C46.5789 71.0901 46.0893 70.9363 45.6715 70.6341C44.8932 70.07 44.5296 69.1005 44.7414 68.1649L47.6364 55.4125L37.8185 46.8025C37.0968 46.1725 36.8211 45.1747 37.1174 44.2618C37.4137 43.3506 38.2198 42.7055 39.1743 42.6173L52.1646 41.4379L57.3005 29.4189C57.6792 28.5358 58.5416 27.9656 59.4999 27.9656C60.4581 27.9656 61.3206 28.5359 61.6993 29.4168L66.8352 41.4379L79.8234 42.6173C80.7799 42.7034 81.586 43.3506 81.8823 44.2618C82.1786 45.173 81.9047 46.1725 81.183 46.8025L71.3651 55.4108L74.26 68.1628C74.4722 69.1005 74.1083 70.07 73.3303 70.6324C72.554 71.1948 71.5189 71.2381 70.7014 70.7468L59.4999 64.0528L48.2983 70.7505C47.9196 70.9754 47.4977 71.0901 47.072 71.0901ZM59.4999 61.1692C59.9256 61.1692 60.3472 61.2835 60.7263 61.5084L71.2978 67.8312L68.5655 55.795C68.3705 54.9384 68.6613 54.044 69.3233 53.4645L78.5936 45.3344L66.3287 44.2206C65.4457 44.1399 64.6862 43.5848 64.3412 42.7711L59.4999 31.4288L54.6527 42.7728C54.3114 43.581 53.552 44.1362 52.671 44.2168L40.4045 45.3306L49.6744 53.4607C50.3384 54.042 50.6289 54.9346 50.4321 55.7933L47.702 67.8291L58.2735 61.5084C58.6522 61.2835 59.0741 61.1692 59.4999 61.1692ZM52.0654 41.6703C52.0654 41.6703 52.0654 41.6724 52.0633 41.6741L52.0654 41.6703ZM66.9306 41.6649L66.9327 41.6686C66.9327 41.6666 66.9327 41.6666 66.9306 41.6649Z" fill="#212D55"/>
</g>
<defs>
<filter id="filter0_d" x="0" y="0" width="120" height="109" filterUnits="userSpaceOnUse" color-interpolation-filters="sRGB">
<feFlood flood-opacity="0" result="BackgroundImageFix"/>
<feColorMatrix in="SourceAlpha" type="matrix" values="0 0 0 0 0 0 0 0 0 0 0 0 0 0 0 0 0 0 127 0" result="hardAlpha"/>
<feOffset dy="5"/>
<feGaussianBlur stdDeviation="10"/>
<feComposite in2="hardAlpha" operator="out"/>
<feColorMatrix type="matrix" values="0 0 0 0 0.129412 0 0 0 0 0.176471 0 0 0 0 0.333333 0 0 0 0.2 0"/>
<feBlend mode="normal" in2="BackgroundImageFix" result="effect1_dropShadow"/>
<feBlend mode="normal" in="SourceGraphic" in2="effect1_dropShadow" result="shape"/>
</filter>
<clipPath id="clip0">
<rect width="45" height="45" fill="white" transform="translate(37 27)"/>
</clipPath>
</defs>
</svg>
