<svg width="120" height="109" viewBox="0 0 120 109" fill="none" xmlns="http://www.w3.org/2000/svg">
<g filter="url(#filter0_d)">
<path fill-rule="evenodd" clip-rule="evenodd" d="M30 15C24.4772 15 20 19.4772 20 25V42.3892C22.509 42.7842 24.4606 45.8171 24.4606 49.5C24.4606 53.1829 22.509 56.2159 20 56.6109V74C20 79.5229 24.4772 84 30 84H90C95.5229 84 100 79.5228 100 74V25C100 19.4772 95.5229 15 90 15H30Z" fill="white"/>
</g>
<path d="M81.25 70.5H76.75V45.75C76.75 45.3358 76.4142 45 76 45H65.5V27.75C65.5 27.3358 65.1642 27 64.75 27H45.25C44.8358 27 44.5 27.3358 44.5 27.75V70.5H37.75C37.3358 70.5 37 70.8358 37 71.25C37 71.6642 37.3358 72 37.75 72H81.25C81.6642 72 82 71.6642 82 71.25C82 70.8358 81.6642 70.5 81.25 70.5ZM52.75 70.5H49.75V63.75C49.75 63.3358 50.0858 63 50.5 63H52C52.4142 63 52.75 63.3358 52.75 63.75V70.5ZM55.75 45.75V70.5H54.25V63.75C54.25 62.5073 53.2427 61.5 52 61.5H50.5C49.2573 61.5 48.25 62.5073 48.25 63.75V70.5H46V28.5H64V45H56.5C56.0858 45 55.75 45.3358 55.75 45.75ZM75.25 70.5H57.25V46.5H75.25V70.5Z" fill="#212D55"/>
<path d="M61 37.5H56.5C56.0858 37.5 55.75 37.8358 55.75 38.25V42.75C55.75 43.1642 56.0858 43.5 56.5 43.5H61C61.4142 43.5 61.75 43.1642 61.75 42.75V38.25C61.75 37.8358 61.4142 37.5 61 37.5ZM60.25 42H57.25V39H60.25V42Z" fill="#212D55"/>
<path d="M61 30.0001H56.5C56.0858 30.0001 55.75 30.3359 55.75 30.7501V35.2501C55.75 35.6642 56.0858 36.0001 56.5 36.0001H61C61.4142 36.0001 61.75 35.6642 61.75 35.2501V30.7501C61.75 30.3359 61.4142 30.0001 61 30.0001ZM60.25 34.5001H57.25V31.5001H60.25V34.5001Z" fill="#212D55"/>
<path d="M53.5 37.5H49C48.5858 37.5 48.25 37.8358 48.25 38.25V42.75C48.25 43.1642 48.5858 43.5 49 43.5H53.5C53.9142 43.5 54.25 43.1642 54.25 42.75V38.25C54.25 37.8358 53.9142 37.5 53.5 37.5ZM52.75 42H49.75V39H52.75V42Z" fill="#212D55"/>
<path d="M53.5 30.0001H49C48.5858 30.0001 48.25 30.3359 48.25 30.7501V35.2501C48.25 35.6642 48.5858 36.0001 49 36.0001H53.5C53.9142 36.0001 54.25 35.6642 54.25 35.2501V30.7501C54.25 30.3359 53.9142 30.0001 53.5 30.0001ZM52.75 34.5001H49.75V31.5001H52.75V34.5001Z" fill="#212D55"/>
<path d="M53.5 45H49C48.5858 45 48.25 45.3358 48.25 45.75V50.25C48.25 50.6642 48.5858 51 49 51H53.5C53.9142 51 54.25 50.6642 54.25 50.25V45.75C54.25 45.3358 53.9142 45 53.5 45ZM52.75 49.5H49.75V46.5H52.75V49.5Z" fill="#212D55"/>
<path d="M53.5 52.5001H49C48.5858 52.5001 48.25 52.8359 48.25 53.2501V57.7501C48.25 58.1642 48.5858 58.5001 49 58.5001H53.5C53.9142 58.5001 54.25 58.1642 54.25 57.7501V53.2501C54.25 52.8359 53.9142 52.5001 53.5 52.5001ZM52.75 57.0001H49.75V54.0001H52.75V57.0001Z" fill="#212D55"/>
<path d="M67.75 61.5H72.25C72.6642 61.5 73 61.1642 73 60.75V56.25C73 55.8358 72.6642 55.5 72.25 55.5H67.75C67.3358 55.5 67 55.8358 67 56.25V60.75C67 61.1642 67.3358 61.5 67.75 61.5ZM68.5 57H71.5V60H68.5V57Z" fill="#212D55"/>
<path d="M67.75 54H72.25C72.6642 54 73 53.6642 73 53.25V48.75C73 48.3358 72.6642 48 72.25 48H67.75C67.3358 48 67 48.3358 67 48.75V53.25C67 53.6642 67.3358 54 67.75 54ZM68.5 49.5H71.5V52.5H68.5V49.5Z" fill="#212D55"/>
<path d="M67.75 68.9999H72.25C72.6642 68.9999 73 68.6641 73 68.2499V63.7499C73 63.3358 72.6642 62.9999 72.25 62.9999H67.75C67.3358 62.9999 67 63.3358 67 63.7499V68.2499C67 68.6641 67.3358 68.9999 67.75 68.9999ZM68.5 64.4999H71.5V67.4999H68.5V64.4999Z" fill="#212D55"/>
<path d="M60.25 61.5H64.75C65.1642 61.5 65.5 61.1642 65.5 60.75V56.25C65.5 55.8358 65.1642 55.5 64.75 55.5H60.25C59.8358 55.5 59.5 55.8358 59.5 56.25V60.75C59.5 61.1642 59.8358 61.5 60.25 61.5ZM61 57H64V60H61V57Z" fill="#212D55"/>
<path d="M60.25 54H64.75C65.1642 54 65.5 53.6642 65.5 53.25V48.75C65.5 48.3358 65.1642 48 64.75 48H60.25C59.8358 48 59.5 48.3358 59.5 48.75V53.25C59.5 53.6642 59.8358 54 60.25 54ZM61 49.5H64V52.5H61V49.5Z" fill="#212D55"/>
<path d="M60.25 68.9999H64.75C65.1642 68.9999 65.5 68.6641 65.5 68.2499V63.7499C65.5 63.3358 65.1642 62.9999 64.75 62.9999H60.25C59.8358 62.9999 59.5 63.3358 59.5 63.7499V68.2499C59.5 68.6641 59.8358 68.9999 60.25 68.9999ZM61 64.4999H64V67.4999H61V64.4999Z" fill="#212D55"/>
<defs>
<filter id="filter0_d" x="0" y="0" width="120" height="109" filterUnits="userSpaceOnUse" color-interpolation-filters="sRGB">
<feFlood flood-opacity="0" result="BackgroundImageFix"/>
<feColorMatrix in="SourceAlpha" type="matrix" values="0 0 0 0 0 0 0 0 0 0 0 0 0 0 0 0 0 0 127 0" result="hardAlpha"/>
<feOffset dy="5"/>
<feGaussianBlur stdDeviation="10"/>
<feComposite in2="hardAlpha" operator="out"/>
<feColorMatrix type="matrix" values="0 0 0 0 0.129412 0 0 0 0 0.176471 0 0 0 0 0.333333 0 0 0 0.2 0"/>
<feBlend mode="normal" in2="BackgroundImageFix" result="effect1_dropShadow"/>
<feBlend mode="normal" in="SourceGraphic" in2="effect1_dropShadow" result="shape"/>
</filter>
</defs>
</svg>
