<svg width="120" height="109" viewBox="0 0 120 109" fill="none" xmlns="http://www.w3.org/2000/svg">
<g filter="url(#filter0_d)">
<path fill-rule="evenodd" clip-rule="evenodd" d="M30 15C24.4772 15 20 19.4772 20 25V42.3892C22.509 42.7842 24.4606 45.8171 24.4606 49.5C24.4606 53.1829 22.509 56.2159 20 56.6109V74C20 79.5229 24.4772 84 30 84H90C95.5229 84 100 79.5228 100 74V25C100 19.4772 95.5229 15 90 15H30Z" fill="white"/>
</g>
<path d="M37.7031 66.375H81.2969C81.6857 66.375 82 66.0607 82 65.6719V56.5298V51.6115C82 50.0597 80.7372 48.7969 79.1854 48.7969H71.3216C71.0291 47.9827 70.2578 47.3955 69.3438 47.3955H66.5453C66.5404 47.3955 66.5362 47.3927 66.5312 47.3927C65.3683 47.3927 64.4219 46.4463 64.4219 45.2834V37.5469C64.4219 34.8335 62.2134 32.625 59.5 32.625C56.7866 32.625 54.5781 34.8335 54.5781 37.5469V45.2834C54.5781 46.4463 53.6317 47.3927 52.4688 47.3927C52.4638 47.3927 52.4596 47.3955 52.4547 47.3955H49.6562C48.7422 47.3955 47.9709 47.9827 47.6784 48.7969H39.8146C39.8083 48.7969 39.8027 48.8004 39.7963 48.8004C38.2523 48.8102 37 50.066 37 51.6115V56.5298V65.6719C37 66.0607 37.3143 66.375 37.7031 66.375ZM80.5938 62.8594H38.4062V57.233H80.5938V62.8594ZM38.4062 64.9688V64.2656H80.5938V64.9688H38.4062ZM55.9844 45.2834V37.5469C55.9844 35.6084 57.5615 34.0312 59.5 34.0312C61.4385 34.0312 63.0156 35.6084 63.0156 37.5469V45.2834C63.0156 47.212 64.5787 48.7814 66.5038 48.7962C66.5137 48.7969 66.5214 48.8018 66.5312 48.8018H69.3438C69.7319 48.8018 70.0469 49.1168 70.0469 49.5049V53.0177H48.9531V49.5049C48.9531 49.1168 49.2681 48.8018 49.6562 48.8018H52.4688C52.4786 48.8018 52.4863 48.7969 52.4962 48.7962C54.4213 48.7814 55.9844 47.212 55.9844 45.2834ZM39.8125 50.2052C39.816 50.2052 39.8195 50.2031 39.823 50.2031H47.5469V53.7209C47.5469 54.1097 47.8612 54.424 48.25 54.424H70.75C71.1388 54.424 71.4531 54.1097 71.4531 53.7209V50.2031H79.1854C79.9623 50.2031 80.5938 50.8345 80.5938 51.6115V55.8267H38.4062V51.6115C38.4062 50.8359 39.037 50.2052 39.8125 50.2052Z" fill="#212D55"/>
<path d="M59.5 39.6556C60.663 39.6556 61.6094 38.7092 61.6094 37.5462C61.6094 36.3832 60.663 35.4368 59.5 35.4368C58.337 35.4368 57.3906 36.3832 57.3906 37.5462C57.3906 38.7092 58.337 39.6556 59.5 39.6556ZM59.5 36.8431C59.8881 36.8431 60.2031 37.1581 60.2031 37.5462C60.2031 37.9343 59.8881 38.2493 59.5 38.2493C59.1119 38.2493 58.7969 37.9343 58.7969 37.5462C58.7969 37.1581 59.1119 36.8431 59.5 36.8431Z" fill="#212D55"/>
<defs>
<filter id="filter0_d" x="0" y="0" width="120" height="109" filterUnits="userSpaceOnUse" color-interpolation-filters="sRGB">
<feFlood flood-opacity="0" result="BackgroundImageFix"/>
<feColorMatrix in="SourceAlpha" type="matrix" values="0 0 0 0 0 0 0 0 0 0 0 0 0 0 0 0 0 0 127 0" result="hardAlpha"/>
<feOffset dy="5"/>
<feGaussianBlur stdDeviation="10"/>
<feComposite in2="hardAlpha" operator="out"/>
<feColorMatrix type="matrix" values="0 0 0 0 0.129412 0 0 0 0 0.176471 0 0 0 0 0.333333 0 0 0 0.2 0"/>
<feBlend mode="normal" in2="BackgroundImageFix" result="effect1_dropShadow"/>
<feBlend mode="normal" in="SourceGraphic" in2="effect1_dropShadow" result="shape"/>
</filter>
</defs>
</svg>
