<svg width="80" height="80" viewBox="0 0 80 80" fill="none" xmlns="http://www.w3.org/2000/svg">
<g filter="url(#filter0_d)">
<circle cx="40" cy="37" r="25" fill="white"/>
</g>
<path d="M39.9985 25C35.1099 25 31.1328 28.9771 31.1328 33.8657C31.1328 35.4751 31.8546 37.206 31.8848 37.279C32.1179 37.8323 32.5779 38.6918 32.9096 39.1956L38.9884 48.406C39.2371 48.7836 39.6053 49 39.9985 49C40.3917 49 40.7599 48.7836 41.0087 48.4065L47.088 39.1956C47.4202 38.6918 47.8796 37.8323 48.1127 37.279C48.143 37.2065 48.8642 35.4756 48.8642 33.8657C48.8642 28.9771 44.8872 25 39.9985 25ZM47.1511 36.8743C46.943 37.3703 46.5148 38.1698 46.217 38.6214L40.1378 47.8323C40.0178 48.0143 39.9797 48.0143 39.8598 47.8323L33.7805 38.6214C33.4827 38.1698 33.0546 37.3698 32.8465 36.8738C32.8376 36.8524 32.1758 35.2592 32.1758 33.8657C32.1758 29.5523 35.6851 26.043 39.9985 26.043C44.312 26.043 47.8212 29.5523 47.8212 33.8657C47.8212 35.2613 47.1578 36.8587 47.1511 36.8743Z" fill="#31BEF4"/>
<path d="M39.9983 29.1726C37.41 29.1726 35.3047 31.2785 35.3047 33.8662C35.3047 36.454 37.41 38.5598 39.9983 38.5598C42.5866 38.5598 44.6919 36.454 44.6919 33.8662C44.6919 31.2785 42.5866 29.1726 39.9983 29.1726ZM39.9983 37.5168C37.9858 37.5168 36.3477 35.8793 36.3477 33.8662C36.3477 31.8532 37.9858 30.2156 39.9983 30.2156C42.0108 30.2156 43.6489 31.8532 43.6489 33.8662C43.6489 35.8793 42.0108 37.5168 39.9983 37.5168Z" fill="#31BEF4"/>
<defs>
<filter id="filter0_d" x="0" y="0" width="80" height="80" filterUnits="userSpaceOnUse" color-interpolation-filters="sRGB">
<feFlood flood-opacity="0" result="BackgroundImageFix"/>
<feColorMatrix in="SourceAlpha" type="matrix" values="0 0 0 0 0 0 0 0 0 0 0 0 0 0 0 0 0 0 127 0" result="hardAlpha"/>
<feOffset dy="3"/>
<feGaussianBlur stdDeviation="7.5"/>
<feComposite in2="hardAlpha" operator="out"/>
<feColorMatrix type="matrix" values="0 0 0 0 0.129412 0 0 0 0 0.176471 0 0 0 0 0.333333 0 0 0 0.1 0"/>
<feBlend mode="normal" in2="BackgroundImageFix" result="effect1_dropShadow"/>
<feBlend mode="normal" in="SourceGraphic" in2="effect1_dropShadow" result="shape"/>
</filter>
</defs>
</svg>
