<svg width="80" height="80" viewBox="0 0 80 80" fill="none" xmlns="http://www.w3.org/2000/svg">
<g filter="url(#filter0_d)">
<circle cx="40" cy="37" r="25" fill="white"/>
</g>
<path d="M40 25C33.3726 25 28 30.3726 28 37C28 43.6274 33.3726 49 40 49C46.6274 49 52 43.6274 52 37C51.9923 30.3758 46.6242 25.0077 40 25ZM40 48.2258C33.8002 48.2258 28.7742 43.1998 28.7742 37C28.7742 30.8002 33.8002 25.7742 40 25.7742C46.1998 25.7742 51.2258 30.8002 51.2258 37C51.219 43.197 46.197 48.219 40 48.2258Z" fill="#31BEF4"/>
<path d="M40.0004 28.0968C40.2142 28.0968 40.3875 27.9234 40.3875 27.7097V26.5484C40.3875 26.3346 40.2142 26.1613 40.0004 26.1613C39.7866 26.1613 39.6133 26.3346 39.6133 26.5484V27.7097C39.6133 27.9234 39.7866 28.0968 40.0004 28.0968Z" fill="#31BEF4"/>
<path d="M40.0004 45.9032C39.7866 45.9032 39.6133 46.0766 39.6133 46.2903V47.4516C39.6133 47.6654 39.7866 47.8387 40.0004 47.8387C40.2142 47.8387 40.3875 47.6654 40.3875 47.4516V46.2903C40.3875 46.0766 40.2142 45.9032 40.0004 45.9032Z" fill="#31BEF4"/>
<path d="M50.4507 36.6129H49.2894C49.0757 36.6129 48.9023 36.7862 48.9023 37C48.9023 37.2138 49.0757 37.3871 49.2894 37.3871H50.4507C50.6645 37.3871 50.8378 37.2138 50.8378 37C50.8378 36.7862 50.6645 36.6129 50.4507 36.6129Z" fill="#31BEF4"/>
<path d="M30.7085 36.6129H29.5473C29.3335 36.6129 29.1602 36.7862 29.1602 37C29.1602 37.2138 29.3335 37.3871 29.5473 37.3871H30.7085C30.9223 37.3871 31.0956 37.2138 31.0956 37C31.0956 36.7862 30.9223 36.6129 30.7085 36.6129Z" fill="#31BEF4"/>
<path d="M45.147 31.307H45.1454L40.8874 35.565C40.8533 35.5996 40.8262 35.6405 40.8076 35.6854C40.3141 35.3737 39.6854 35.3737 39.1919 35.6854C39.1734 35.6405 39.1463 35.5996 39.1122 35.565L36.0154 32.4682C35.8616 32.3197 35.6165 32.324 35.468 32.4778C35.3232 32.6278 35.3232 32.8656 35.468 33.0156L38.5648 36.1124C38.5994 36.1465 38.6403 36.1736 38.6852 36.1921C38.5335 36.4343 38.4525 36.7142 38.4514 37C38.4514 37.8551 39.1446 38.5484 39.9998 38.5484C40.8549 38.5484 41.5482 37.8551 41.5482 37C41.5475 36.7143 41.4671 36.4345 41.3159 36.1921C41.3608 36.1736 41.4017 36.1465 41.4363 36.1124L45.6944 31.8543C45.8429 31.7005 45.8386 31.4555 45.6849 31.307C45.5348 31.1621 45.297 31.1621 45.147 31.307ZM39.9998 37.7742C39.5722 37.7742 39.2256 37.4276 39.2256 37C39.2256 36.5724 39.5722 36.2258 39.9998 36.2258C40.4274 36.2258 40.774 36.5724 40.774 37C40.774 37.4276 40.4274 37.7742 39.9998 37.7742Z" fill="#31BEF4"/>
<defs>
<filter id="filter0_d" x="0" y="0" width="80" height="80" filterUnits="userSpaceOnUse" color-interpolation-filters="sRGB">
<feFlood flood-opacity="0" result="BackgroundImageFix"/>
<feColorMatrix in="SourceAlpha" type="matrix" values="0 0 0 0 0 0 0 0 0 0 0 0 0 0 0 0 0 0 127 0" result="hardAlpha"/>
<feOffset dy="3"/>
<feGaussianBlur stdDeviation="7.5"/>
<feComposite in2="hardAlpha" operator="out"/>
<feColorMatrix type="matrix" values="0 0 0 0 0.129412 0 0 0 0 0.176471 0 0 0 0 0.333333 0 0 0 0.1 0"/>
<feBlend mode="normal" in2="BackgroundImageFix" result="effect1_dropShadow"/>
<feBlend mode="normal" in="SourceGraphic" in2="effect1_dropShadow" result="shape"/>
</filter>
</defs>
</svg>
