<svg width="52" height="52" viewBox="0 0 52 52" fill="none" xmlns="http://www.w3.org/2000/svg">
<circle cx="26" cy="26" r="26" fill="#31BEF4"/>
<g clip-path="url(#clip0)">
<path d="M34.6789 30.704C33.2291 29.4639 31.7577 28.7128 30.3257 29.951L29.4706 30.6993C28.8449 31.2425 27.6817 33.7807 23.1842 28.607C18.6877 23.4398 21.3635 22.6353 21.9901 22.0968L22.8498 21.3475C24.2744 20.1065 23.7368 18.5443 22.7094 16.9362L22.0893 15.9621C21.0572 14.3578 19.9333 13.3041 18.505 14.5432L17.7333 15.2175C17.102 15.6774 15.3375 17.1722 14.9095 20.0119C14.3944 23.4192 16.0193 27.321 19.7423 31.6022C23.4605 35.8852 27.101 38.0365 30.5495 37.999C33.4155 37.9681 35.1463 36.4303 35.6876 35.8711L36.4622 35.1958C37.8867 33.9577 37.0016 32.697 35.5509 31.4542L34.6789 30.704Z" fill="white"/>
<g clip-path="url(#clip1)">
<path d="M27.1599 26.0047L32.3034 25.3353C32.8287 25.26 33.0554 24.6037 32.6711 24.2317L31.895 23.4804C31.6464 23.2397 31.5883 22.8625 31.829 22.6138L36.3149 17.9799C36.5556 17.7313 36.5717 17.3528 36.3155 17.1048L35.0948 15.9231C34.8537 15.6897 34.4458 15.6889 34.2051 15.9376L29.7193 20.5715C29.4786 20.8201 29.1222 20.7962 28.8736 20.5556L28.0975 19.8043C27.7208 19.4396 27.0721 19.6874 27.0213 20.2074L26.4662 25.304C26.4061 25.7129 26.7529 26.0633 27.1599 26.0047Z" fill="white"/>
</g>
</g>
<defs>
<clipPath id="clip0">
<rect width="24" height="24" fill="white" transform="translate(14 14)"/>
</clipPath>
<clipPath id="clip1">
<rect width="13" height="13" fill="white" transform="translate(40.3828 21.042) rotate(134.07)"/>
</clipPath>
</defs>
</svg>
