<svg width="64" height="19" viewBox="0 0 64 19" fill="none" xmlns="http://www.w3.org/2000/svg">
<path d="M29.408 3.608C31.104 3.608 32.4907 4.168 33.568 5.288C34.656 6.39733 35.2 7.768 35.2 9.4C35.2 11.032 34.656 12.408 33.568 13.528C32.4907 14.6373 31.104 15.192 29.408 15.192C28.3733 15.192 27.4187 14.9413 26.544 14.44C25.68 13.9387 25.0187 13.2667 24.56 12.424L25.552 11.864C25.904 12.5467 26.4267 13.0907 27.12 13.496C27.8133 13.9013 28.576 14.104 29.408 14.104C30.6987 14.104 31.7653 13.7093 32.608 12.92C33.4507 12.1307 33.9307 11.1333 34.048 9.928H27.92V8.872H34.048C33.9307 7.66667 33.4507 6.66933 32.608 5.88C31.7653 5.09067 30.6987 4.696 29.408 4.696C28.576 4.696 27.8133 4.89867 27.12 5.304C26.4267 5.70933 25.904 6.25333 25.552 6.936L24.56 6.36C25.0293 5.51733 25.696 4.85067 26.56 4.36C27.424 3.85867 28.3733 3.608 29.408 3.608ZM42.7238 7V8.024H39.8918V15H38.8358V8.024H36.0038V7H42.7238ZM50.5781 7H51.6341V15H50.5781V13.432C49.8421 14.6053 48.7648 15.192 47.3461 15.192C46.2048 15.192 45.2288 14.7867 44.4181 13.976C43.6181 13.1653 43.2181 12.1733 43.2181 11C43.2181 9.82667 43.6181 8.83467 44.4181 8.024C45.2288 7.21333 46.2048 6.808 47.3461 6.808C48.7648 6.808 49.8421 7.39467 50.5781 8.568V7ZM45.1861 13.256C45.7941 13.864 46.5408 14.168 47.4261 14.168C48.3115 14.168 49.0581 13.864 49.6661 13.256C50.2741 12.6373 50.5781 11.8853 50.5781 11C50.5781 10.1147 50.2741 9.368 49.6661 8.76C49.0581 8.14133 48.3115 7.832 47.4261 7.832C46.5408 7.832 45.7941 8.14133 45.1861 8.76C44.5781 9.368 44.2741 10.1147 44.2741 11C44.2741 11.8853 44.5781 12.6373 45.1861 13.256ZM63.214 15H61.934L58.67 11.144V15H57.614V11.144L54.35 15H53.07L56.654 10.84L53.23 7H54.51L57.614 10.552V7H58.67V10.552L61.774 7H63.054L59.63 10.84L63.214 15Z" fill="#656D89"/>
<path d="M17.7 17.4H15.9V7.5C15.9 7.33433 15.7657 7.2 15.6 7.2H11.4V0.3C11.4 0.134325 11.2657 0 11.1 0H3.3C3.13433 0 3 0.134325 3 0.3V17.4H0.3C0.134325 17.4 0 17.5343 0 17.7C0 17.8657 0.134325 18 0.3 18H17.7C17.8657 18 18 17.8657 18 17.7C18 17.5343 17.8657 17.4 17.7 17.4ZM6.3 17.4H5.1V14.7C5.1 14.5343 5.23433 14.4 5.4 14.4H6C6.16568 14.4 6.3 14.5343 6.3 14.7V17.4ZM7.5 7.5V17.4H6.9V14.7C6.9 14.2029 6.49706 13.8 6 13.8H5.4C4.90294 13.8 4.5 14.2029 4.5 14.7V17.4H3.6V0.6H10.8V7.2H7.8C7.63433 7.2 7.5 7.33433 7.5 7.5ZM15.3 17.4H8.1V7.8H15.3V17.4Z" fill="#656D89"/>
<path d="M9.6 4.19995H7.8C7.63433 4.19995 7.5 4.33428 7.5 4.49995V6.29994C7.5 6.46562 7.63433 6.59994 7.8 6.59994H9.6C9.76568 6.59994 9.9 6.46562 9.9 6.29994V4.49995C9.9 4.33428 9.76568 4.19995 9.6 4.19995ZM9.3 5.99995H8.1V4.79995H9.3V5.99995Z" fill="#656D89"/>
<path d="M9.6 1.19995H7.8C7.63433 1.19995 7.5 1.33428 7.5 1.49995V3.29995C7.5 3.46563 7.63433 3.59996 7.8 3.59996H9.6C9.76568 3.59996 9.9 3.46563 9.9 3.29995V1.49995C9.9 1.33428 9.76568 1.19995 9.6 1.19995ZM9.3 2.99995H8.1V1.79995H9.3V2.99995Z" fill="#656D89"/>
<path d="M6.6 4.19995H4.8C4.63432 4.19995 4.5 4.33428 4.5 4.49995V6.29994C4.5 6.46562 4.63432 6.59994 4.8 6.59994H6.6C6.76567 6.59994 6.9 6.46562 6.9 6.29994V4.49995C6.9 4.33428 6.76567 4.19995 6.6 4.19995ZM6.3 5.99995H5.1V4.79995H6.3V5.99995Z" fill="#656D89"/>
<path d="M6.6 1.19995H4.8C4.63432 1.19995 4.5 1.33428 4.5 1.49995V3.29995C4.5 3.46563 4.63432 3.59996 4.8 3.59996H6.6C6.76567 3.59996 6.9 3.46563 6.9 3.29995V1.49995C6.9 1.33428 6.76567 1.19995 6.6 1.19995ZM6.3 2.99995H5.1V1.79995H6.3V2.99995Z" fill="#656D89"/>
<path d="M6.6 7.19995H4.8C4.63432 7.19995 4.5 7.33428 4.5 7.49995V9.29995C4.5 9.46563 4.63432 9.59995 4.8 9.59995H6.6C6.76567 9.59995 6.9 9.46563 6.9 9.29995V7.49995C6.9 7.33428 6.76567 7.19995 6.6 7.19995ZM6.3 8.99995H5.1V7.79995H6.3V8.99995Z" fill="#656D89"/>
<path d="M6.6 10.2H4.8C4.63432 10.2 4.5 10.3343 4.5 10.5V12.3C4.5 12.4656 4.63432 12.6 4.8 12.6H6.6C6.76567 12.6 6.9 12.4656 6.9 12.3V10.5C6.9 10.3343 6.76567 10.2 6.6 10.2ZM6.3 12H5.1V10.8H6.3V12Z" fill="#656D89"/>
<path d="M12.3 13.8001H14.1C14.2657 13.8001 14.4 13.6658 14.4 13.5001V11.7001C14.4 11.5345 14.2657 11.4001 14.1 11.4001H12.3C12.1343 11.4001 12 11.5345 12 11.7001V13.5001C12 13.6658 12.1343 13.8001 12.3 13.8001ZM12.6 12.0001H13.8V13.2001H12.6V12.0001Z" fill="#656D89"/>
<path d="M12.3 10.8001H14.1C14.2657 10.8001 14.4 10.6658 14.4 10.5001V8.70015C14.4 8.53447 14.2657 8.40015 14.1 8.40015H12.3C12.1343 8.40015 12 8.53447 12 8.70015V10.5001C12 10.6658 12.1343 10.8001 12.3 10.8001ZM12.6 9.00015H13.8V10.2001H12.6V9.00015Z" fill="#656D89"/>
<path d="M12.3 16.8001H14.1C14.2657 16.8001 14.4 16.6658 14.4 16.5001V14.7001C14.4 14.5345 14.2657 14.4001 14.1 14.4001H12.3C12.1343 14.4001 12 14.5345 12 14.7001V16.5001C12 16.6658 12.1343 16.8001 12.3 16.8001ZM12.6 15.0001H13.8V16.2001H12.6V15.0001Z" fill="#656D89"/>
<path d="M9.3 13.8001H11.1C11.2657 13.8001 11.4 13.6658 11.4 13.5001V11.7001C11.4 11.5345 11.2657 11.4001 11.1 11.4001H9.3C9.13432 11.4001 9 11.5345 9 11.7001V13.5001C9 13.6658 9.13432 13.8001 9.3 13.8001ZM9.6 12.0001H10.8V13.2001H9.6V12.0001Z" fill="#656D89"/>
<path d="M9.3 10.8001H11.1C11.2657 10.8001 11.4 10.6658 11.4 10.5001V8.70015C11.4 8.53447 11.2657 8.40015 11.1 8.40015H9.3C9.13432 8.40015 9 8.53447 9 8.70015V10.5001C9 10.6658 9.13432 10.8001 9.3 10.8001ZM9.6 9.00015H10.8V10.2001H9.6V9.00015Z" fill="#656D89"/>
<path d="M9.3 16.8001H11.1C11.2657 16.8001 11.4 16.6658 11.4 16.5001V14.7001C11.4 14.5345 11.2657 14.4001 11.1 14.4001H9.3C9.13432 14.4001 9 14.5345 9 14.7001V16.5001C9 16.6658 9.13432 16.8001 9.3 16.8001ZM9.6 15.0001H10.8V16.2001H9.6V15.0001Z" fill="#656D89"/>
</svg>
