<svg width="79" height="19" viewBox="0 0 79 19" fill="none" xmlns="http://www.w3.org/2000/svg">
<path d="M33.12 15H31.648L26.4 9.576V15H25.28V3.8H26.4V8.92L31.488 3.8H32.96L27.584 9.24L33.12 15ZM40.3865 13.992C39.5758 14.792 38.5838 15.192 37.4105 15.192C36.2372 15.192 35.2398 14.792 34.4185 13.992C33.6078 13.1813 33.2025 12.184 33.2025 11C33.2025 9.816 33.6078 8.824 34.4185 8.024C35.2398 7.21333 36.2372 6.808 37.4105 6.808C38.5838 6.808 39.5758 7.21333 40.3865 8.024C41.2078 8.824 41.6185 9.816 41.6185 11C41.6185 12.184 41.2078 13.1813 40.3865 13.992ZM35.1705 13.256C35.7785 13.864 36.5252 14.168 37.4105 14.168C38.2958 14.168 39.0425 13.864 39.6505 13.256C40.2585 12.6373 40.5625 11.8853 40.5625 11C40.5625 10.1147 40.2585 9.368 39.6505 8.76C39.0425 8.14133 38.2958 7.832 37.4105 7.832C36.5252 7.832 35.7785 8.14133 35.1705 8.76C34.5625 9.368 34.2585 10.1147 34.2585 11C34.2585 11.8853 34.5625 12.6373 35.1705 13.256ZM51.2256 7V15H50.1696V8.616L47.3696 13.16H47.2416L44.4416 8.616V15H43.3856V7H44.6016L47.3056 11.384L50.0096 7H51.2256ZM59.1278 7H60.1838V15H59.1278V11.512H54.5198V15H53.4638V7H54.5198V10.488H59.1278V7ZM69.2969 7H70.3529V15H69.2969V13.432C68.5609 14.6053 67.4835 15.192 66.0649 15.192C64.9235 15.192 63.9475 14.7867 63.1369 13.976C62.3369 13.1653 61.9369 12.1733 61.9369 11C61.9369 9.82667 62.3369 8.83467 63.1369 8.024C63.9475 7.21333 64.9235 6.808 66.0649 6.808C67.4835 6.808 68.5609 7.39467 69.2969 8.568V7ZM63.9049 13.256C64.5129 13.864 65.2595 14.168 66.1449 14.168C67.0302 14.168 67.7769 13.864 68.3849 13.256C68.9929 12.6373 69.2969 11.8853 69.2969 11C69.2969 10.1147 68.9929 9.368 68.3849 8.76C67.7769 8.14133 67.0302 7.832 66.1449 7.832C65.2595 7.832 64.5129 8.14133 63.9049 8.76C63.2969 9.368 62.9929 10.1147 62.9929 11C62.9929 11.8853 63.2969 12.6373 63.9049 13.256ZM78.3488 7V8.024H75.5168V15H74.4608V8.024H71.6288V7H78.3488Z" fill="#656D89"/>
<path d="M17.4375 13.0938H17.1562V10.8438C17.1559 10.5455 17.0372 10.2596 16.8263 10.0487C16.6154 9.83779 16.3295 9.71914 16.0312 9.71875V4.9375C16.0309 4.63925 15.9122 4.35333 15.7013 4.14244C15.4904 3.93154 15.2045 3.81289 14.9062 3.8125H3.09375C2.7955 3.81289 2.50958 3.93154 2.29869 4.14244C2.08779 4.35333 1.96914 4.63925 1.96875 4.9375V9.71875C1.6705 9.71914 1.38458 9.83779 1.17369 10.0487C0.962793 10.2596 0.844141 10.5455 0.84375 10.8438V13.0938H0.5625C0.487908 13.0938 0.416371 13.1234 0.363626 13.1761C0.310882 13.2289 0.28125 13.3004 0.28125 13.375V14.5C0.28125 14.5746 0.310882 14.6461 0.363626 14.6989C0.416371 14.7516 0.487908 14.7812 0.5625 14.7812H0.84375V15.9062C0.84375 15.9808 0.873382 16.0524 0.926126 16.1051C0.978871 16.1579 1.05041 16.1875 1.125 16.1875H1.96875C2.03375 16.1875 2.09675 16.165 2.14701 16.1238C2.19728 16.0826 2.23168 16.0252 2.24437 15.9614L2.48062 14.7812H15.5194L15.7556 15.9614C15.7683 16.0252 15.8027 16.0826 15.853 16.1238C15.9032 16.165 15.9662 16.1875 16.0312 16.1875H16.875C16.9496 16.1875 17.0211 16.1579 17.0739 16.1051C17.1266 16.0524 17.1562 15.9808 17.1562 15.9062V14.7812H17.4375C17.5121 14.7812 17.5836 14.7516 17.6364 14.6989C17.6891 14.6461 17.7188 14.5746 17.7188 14.5V13.375C17.7188 13.3004 17.6891 13.2289 17.6364 13.1761C17.5836 13.1234 17.5121 13.0938 17.4375 13.0938ZM2.53125 4.9375C2.53145 4.78838 2.59077 4.64542 2.69622 4.53997C2.80167 4.43452 2.94463 4.3752 3.09375 4.375H14.9062C15.0554 4.3752 15.1983 4.43452 15.3038 4.53997C15.4092 4.64542 15.4686 4.78838 15.4688 4.9375V9.71875H14.9062V8.59375C14.9059 8.2955 14.7872 8.00958 14.5763 7.79869C14.3654 7.58779 14.0795 7.46914 13.7812 7.46875H10.4062C10.108 7.46914 9.82208 7.58779 9.61119 7.79869C9.40029 8.00958 9.28164 8.2955 9.28125 8.59375V9.71875H8.71875V8.59375C8.71836 8.2955 8.59971 8.00958 8.38881 7.79869C8.17792 7.58779 7.892 7.46914 7.59375 7.46875H4.21875C3.9205 7.46914 3.63458 7.58779 3.42369 7.79869C3.21279 8.00958 3.09414 8.2955 3.09375 8.59375V9.71875H2.53125V4.9375ZM14.3438 8.59375V9.71875H9.84375V8.59375C9.84395 8.44463 9.90327 8.30167 10.0087 8.19622C10.1142 8.09077 10.2571 8.03145 10.4062 8.03125H13.7812C13.9304 8.03145 14.0733 8.09077 14.1788 8.19622C14.2842 8.30167 14.3436 8.44463 14.3438 8.59375ZM8.15625 8.59375V9.71875H3.65625V8.59375C3.65645 8.44463 3.71577 8.30167 3.82122 8.19622C3.92667 8.09077 4.06963 8.03145 4.21875 8.03125H7.59375C7.74287 8.03145 7.88583 8.09077 7.99128 8.19622C8.09673 8.30167 8.15605 8.44463 8.15625 8.59375ZM1.40625 10.8438C1.40645 10.6946 1.46577 10.5517 1.57122 10.4462C1.67667 10.3408 1.81963 10.2814 1.96875 10.2812H16.0312C16.1804 10.2814 16.3233 10.3408 16.4288 10.4462C16.5342 10.5517 16.5936 10.6946 16.5938 10.8438V13.0938H1.40625V10.8438ZM1.73812 15.625H1.40625V14.7812H1.90688L1.73812 15.625ZM16.5938 15.625H16.2619L16.0931 14.7812H16.5938V15.625ZM17.1562 14.2188H0.84375V13.6562H17.1562V14.2188Z" fill="#656D89"/>
</svg>
