<svg width="94" height="19" viewBox="0 0 94 19" fill="none" xmlns="http://www.w3.org/2000/svg">
<path d="M17.8411 4.75622C17.8388 4.74766 17.8349 4.73999 17.8317 4.73202C17.8252 4.7152 17.8181 4.69897 17.8087 4.68363C17.8033 4.67507 17.7977 4.6674 17.7915 4.65943C17.7815 4.64586 17.7703 4.63346 17.7576 4.62195C17.7502 4.61487 17.7429 4.60838 17.7346 4.60218C17.7299 4.59864 17.7263 4.59422 17.7216 4.59097C17.7107 4.58359 17.6986 4.57946 17.6871 4.57356C17.6812 4.57061 17.6768 4.56618 17.6706 4.56353L9.11325 1.02257C9.04066 0.992475 8.95981 0.992475 8.88722 1.02257L0.329911 4.56353C0.323715 4.56618 0.318993 4.57061 0.313092 4.57356C0.301584 4.57917 0.289781 4.58359 0.279158 4.59068C0.274436 4.59392 0.270896 4.59835 0.266174 4.60189C0.257912 4.60809 0.25083 4.61487 0.243453 4.62166C0.23106 4.63317 0.219847 4.64556 0.209519 4.65913C0.203322 4.6671 0.197716 4.67477 0.192404 4.68333C0.182962 4.69867 0.17588 4.7149 0.169388 4.73172C0.166142 4.73999 0.162306 4.74736 0.159946 4.75592C0.153159 4.78189 0.148438 4.80874 0.148438 4.83618V15.164C0.148438 15.2835 0.220437 15.3912 0.330502 15.4366L8.88781 18.9776C8.89165 18.979 8.89578 18.9785 8.89961 18.9799C8.93237 18.992 8.96601 19 9.00082 19C9.03564 19 9.06928 18.992 9.10204 18.9799C9.10587 18.9785 9.11 18.979 9.11384 18.9776L17.6711 15.4366C17.7812 15.3912 17.8532 15.2835 17.8532 15.164V4.83618C17.8532 4.80874 17.8485 4.78189 17.8411 4.75622ZM8.70574 18.2632L0.738597 14.9669V5.27762L8.70574 8.57425V18.2632ZM9.00082 8.05786L1.21515 4.83618L9.00082 1.6145L16.7865 4.83618L9.00082 8.05786ZM17.2631 14.9669L9.2959 18.2635V8.57425L17.2631 5.27762V14.9669Z" fill="#656D89"/>
<path d="M33.28 3.8V15H32.16V4.856H26.4V15H25.28V3.8H33.28ZM42.2425 7V15H41.1865V8.024H37.5705V11.592C37.5705 12.9253 37.3145 13.8427 36.8025 14.344C36.3012 14.8453 35.6078 15.064 34.7225 15V14.008C35.3305 14.072 35.7785 13.928 36.0665 13.576C36.3652 13.224 36.5145 12.5627 36.5145 11.592V7H42.2425ZM51.1834 13.992C50.3727 14.792 49.3807 15.192 48.2074 15.192C47.034 15.192 46.0367 14.792 45.2154 13.992C44.4047 13.1813 43.9994 12.184 43.9994 11C43.9994 9.816 44.4047 8.824 45.2154 8.024C46.0367 7.21333 47.034 6.808 48.2074 6.808C49.3807 6.808 50.3727 7.21333 51.1834 8.024C52.0047 8.824 52.4154 9.816 52.4154 11C52.4154 12.184 52.0047 13.1813 51.1834 13.992ZM45.9674 13.256C46.5754 13.864 47.322 14.168 48.2074 14.168C49.0927 14.168 49.8394 13.864 50.4474 13.256C51.0554 12.6373 51.3594 11.8853 51.3594 11C51.3594 10.1147 51.0554 9.368 50.4474 8.76C49.8394 8.14133 49.0927 7.832 48.2074 7.832C47.322 7.832 46.5754 8.14133 45.9674 8.76C45.3594 9.368 45.0554 10.1147 45.0554 11C45.0554 11.8853 45.3594 12.6373 45.9674 13.256ZM64.9025 13.976H66.0225V17.144H64.9665V15H54.1825V7H55.2385V13.976H59.0145V7H60.0705V13.976H63.8465V7H64.9025V13.976ZM74.1875 7H75.2435V15H74.1875V13.432C73.4515 14.6053 72.3742 15.192 70.9555 15.192C69.8142 15.192 68.8382 14.7867 68.0275 13.976C67.2275 13.1653 66.8275 12.1733 66.8275 11C66.8275 9.82667 67.2275 8.83467 68.0275 8.024C68.8382 7.21333 69.8142 6.808 70.9555 6.808C72.3742 6.808 73.4515 7.39467 74.1875 8.568V7ZM68.7955 13.256C69.4035 13.864 70.1502 14.168 71.0355 14.168C71.9208 14.168 72.6675 13.864 73.2755 13.256C73.8835 12.6373 74.1875 11.8853 74.1875 11C74.1875 10.1147 73.8835 9.368 73.2755 8.76C72.6675 8.14133 71.9208 7.832 71.0355 7.832C70.1502 7.832 69.4035 8.14133 68.7955 8.76C68.1875 9.368 67.8835 10.1147 67.8835 11C67.8835 11.8853 68.1875 12.6373 68.7955 13.256ZM84.1994 13.976H85.3194V17.144H84.2634V15H77.7354V17.144H76.6794V13.976H77.6554C78.1994 13.2613 78.4714 12.2533 78.4714 10.952V7H84.1994V13.976ZM78.9354 13.976H83.1434V8.024H79.5274V10.952C79.5274 12.1787 79.33 13.1867 78.9354 13.976ZM90.1649 10.04C90.9115 10.04 91.5409 10.2747 92.0529 10.744C92.5755 11.2027 92.8369 11.7947 92.8369 12.52C92.8369 13.2453 92.5755 13.8427 92.0529 14.312C91.5409 14.7707 90.9115 15 90.1649 15H86.9169V7H87.9729V10.04H90.1649ZM90.1649 13.976C90.6129 13.976 90.9915 13.8427 91.3009 13.576C91.6209 13.3093 91.7809 12.9573 91.7809 12.52C91.7809 12.0827 91.6209 11.7307 91.3009 11.464C90.9915 11.1973 90.6129 11.064 90.1649 11.064H87.9729V13.976H90.1649Z" fill="#656D89"/>
</svg>
