<svg width="52" height="52" viewBox="0 0 52 52" fill="none" xmlns="http://www.w3.org/2000/svg">
<circle cx="26" cy="26" r="26" fill="#31BEF4"/>
<path d="M26.003 14H25.997C19.3805 14 14 19.382 14 26C14 28.625 14.846 31.058 16.2845 33.0335L14.789 37.4915L19.4015 36.017C21.299 37.274 23.5625 38 26.003 38C32.6195 38 38 32.6165 38 26C38 19.3835 32.6195 14 26.003 14Z" fill="white"/>
<path d="M32.9868 30.9454C32.6973 31.7629 31.5483 32.4409 30.6318 32.6389C30.0048 32.7724 29.1858 32.8789 26.4288 31.7359C22.9023 30.2749 20.6313 26.6914 20.4543 26.4589C20.2848 26.2264 19.0293 24.5614 19.0293 22.8394C19.0293 21.1174 19.9038 20.2789 20.2563 19.9189C20.5458 19.6234 21.0243 19.4884 21.4833 19.4884C21.6318 19.4884 21.7653 19.4959 21.8853 19.5019C22.2378 19.5169 22.4148 19.5379 22.6473 20.0944C22.9368 20.7919 23.6418 22.5139 23.7258 22.6909C23.8113 22.8679 23.8968 23.1079 23.7768 23.3404C23.6643 23.5804 23.5653 23.6869 23.3883 23.8909C23.2113 24.0949 23.0433 24.2509 22.8663 24.4699C22.7043 24.6604 22.5213 24.8644 22.7253 25.2169C22.9293 25.5619 23.6343 26.7124 24.6723 27.6364C26.0118 28.8289 27.0978 29.2099 27.4863 29.3719C27.7758 29.4919 28.1208 29.4634 28.3323 29.2384C28.6008 28.9489 28.9323 28.4689 29.2698 27.9964C29.5098 27.6574 29.8128 27.6154 30.1308 27.7354C30.4548 27.8479 32.1693 28.6954 32.5218 28.8709C32.8743 29.0479 33.1068 29.1319 33.1923 29.2804C33.2763 29.4289 33.2763 30.1264 32.9868 30.9454Z" fill="#31BEF4"/>
</svg>
