<svg width="76" height="76" viewBox="0 0 76 76" fill="none" xmlns="http://www.w3.org/2000/svg">
<g filter="url(#filter0_d)">
<circle cx="38" cy="35" r="23" fill="#FEA15E"/>
</g>
<g clip-path="url(#clip0)">
<path d="M44.5004 32.4996H30.5C29.673 32.4996 29 33.1726 29 33.9997V34.9997C29 38.5677 30.971 41.8038 34.1431 43.4449C34.3881 43.5709 34.6901 43.4759 34.8171 43.2299C34.9431 42.9848 34.8481 42.6829 34.6021 42.5558C31.764 41.0878 30 38.1927 30 34.9996V33.9996C30 33.7236 30.224 33.4996 30.5 33.4996H44.5004C44.7764 33.4996 45.0004 33.7236 45.0004 33.9996V34.9996C45.0004 38.1927 43.2364 41.0878 40.3973 42.5548C40.1513 42.6818 40.0563 42.9838 40.1823 43.2288C40.2713 43.4008 40.4463 43.4998 40.6273 43.4998C40.7053 43.4998 40.7833 43.4818 40.8563 43.4438C44.0294 41.8037 46.0004 38.5687 46.0004 34.9996V33.9996C46.0004 33.1726 45.3274 32.4996 44.5004 32.4996Z" fill="white"/>
<path d="M48.963 42.8078C48.885 42.6208 48.7029 42.4988 48.501 42.4988H26.5005C26.2985 42.4988 26.1165 42.6208 26.0384 42.8078C25.9604 42.9948 26.0034 43.2098 26.1465 43.3528L27.2675 44.4748C27.9295 45.1358 28.8075 45.4999 29.7426 45.4999H45.2569C46.1919 45.4999 47.071 45.1359 47.734 44.4748L48.855 43.3528C48.998 43.2098 49.041 42.9948 48.963 42.8078ZM47.026 43.7678C46.554 44.2398 45.9249 44.4998 45.2579 44.4998H29.7426C29.0756 44.4998 28.4465 44.2398 27.9745 43.7678L27.7065 43.4998H47.2939L47.026 43.7678Z" fill="white"/>
<path d="M49.0322 34.8607C47.6851 33.9947 45.5331 34.9347 45.292 35.0437C45.041 35.1587 44.929 35.4547 45.044 35.7067C45.159 35.9587 45.4541 36.0697 45.707 35.9548C46.1891 35.7358 47.7351 35.2167 48.4911 35.7037C48.8321 35.9227 48.9991 36.3478 48.9991 36.9998C48.9991 39.0018 44.961 40.2119 43.402 40.5098L43.0479 40.5798C42.777 40.6329 42.6009 40.8958 42.654 41.1669C42.701 41.4049 42.9099 41.5699 43.144 41.5699C43.176 41.5699 43.2079 41.5669 43.2409 41.5599L43.5919 41.4909C43.8539 41.4409 49.9991 40.2359 49.9991 36.9998C49.9992 35.9938 49.6732 35.2747 49.0322 34.8607Z" fill="white"/>
<path d="M41.3925 28.3116C42.2055 27.2955 42.2055 25.7045 41.3925 24.6885C41.2195 24.4725 40.9065 24.4365 40.6895 24.6105C40.4735 24.7835 40.4385 25.0975 40.6115 25.3135C41.1265 25.9565 41.1265 27.0435 40.6105 27.6886C39.7965 28.7046 39.7965 30.2956 40.6105 31.3117C40.7095 31.4356 40.8545 31.4997 41.0015 31.4997C41.1105 31.4997 41.2215 31.4637 41.3135 31.3897C41.5295 31.2166 41.5645 30.9016 41.3915 30.6867C40.8755 30.0436 40.8755 28.9566 41.3925 28.3116Z" fill="white"/>
<path d="M38.3878 28.3115C39.2018 27.2955 39.2018 25.7045 38.3878 24.6884C38.2159 24.4724 37.9008 24.4374 37.6848 24.6104C37.4688 24.7835 37.4338 25.0985 37.6068 25.3134C38.1229 25.9564 38.1229 27.0435 37.6059 27.6885C36.7928 28.7046 36.7928 30.2956 37.6059 31.3116C37.7049 31.4356 37.8498 31.4996 37.9969 31.4996C38.1058 31.4996 38.2159 31.4636 38.3089 31.3896C38.5249 31.2166 38.5599 30.9026 38.3869 30.6866C37.8718 30.0436 37.8718 28.9566 38.3878 28.3115Z" fill="white"/>
<path d="M35.3925 28.3124C36.2055 27.2964 36.2055 25.7054 35.3925 24.6893C35.2205 24.4733 34.9065 24.4373 34.6895 24.6113C34.4745 24.7833 34.4395 25.0983 34.6115 25.3134C35.1265 25.9564 35.1265 27.0434 34.6105 27.6884C33.7965 28.7045 33.7965 30.2955 34.6105 31.3115C34.7095 31.4355 34.8545 31.4995 35.0015 31.4995C35.1105 31.4995 35.2215 31.4635 35.3135 31.3906C35.5295 31.2175 35.5645 30.9025 35.3915 30.6876C34.8755 30.0435 34.8755 28.9575 35.3925 28.3124Z" fill="white"/>
</g>
<defs>
<filter id="filter0_d" x="0" y="0" width="76" height="76" filterUnits="userSpaceOnUse" color-interpolation-filters="sRGB">
<feFlood flood-opacity="0" result="BackgroundImageFix"/>
<feColorMatrix in="SourceAlpha" type="matrix" values="0 0 0 0 0 0 0 0 0 0 0 0 0 0 0 0 0 0 127 0" result="hardAlpha"/>
<feOffset dy="3"/>
<feGaussianBlur stdDeviation="7.5"/>
<feComposite in2="hardAlpha" operator="out"/>
<feColorMatrix type="matrix" values="0 0 0 0 0.129412 0 0 0 0 0.176471 0 0 0 0 0.333333 0 0 0 0.15 0"/>
<feBlend mode="normal" in2="BackgroundImageFix" result="effect1_dropShadow"/>
<feBlend mode="normal" in="SourceGraphic" in2="effect1_dropShadow" result="shape"/>
</filter>
<clipPath id="clip0">
<rect width="24" height="24" fill="white" transform="translate(26 23)"/>
</clipPath>
</defs>
</svg>
