<svg width="76" height="76" fill="none" xmlns="http://www.w3.org/2000/svg"><g filter="url(#filter0_d)"><circle cx="38" cy="35" r="23" fill="#B9ABFF"/></g><g clip-path="url(#clip0)" fill="#fff"><path d="M49.6 37.4c-1.789 0-2.674-.733-3.611-1.509-.21-.172-.42-.346-.64-.513A1.798 1.798 0 0044.2 32.2h-.905a.061.061 0 01-.058-.041 7.994 7.994 0 00-.461-.882 2.81 2.81 0 10-1.026-1.378l-.015-.018-3.52-3.735a2.388 2.388 0 00-2.703-.554l-4.387 1.912a1.8 1.8 0 101.439 3.302l3.576-1.564 1.863 1.978-8.662 3.782A5.26 5.26 0 0026.4 34.2a.4.4 0 100 .8c1.79 0 2.675.733 3.612 1.508 1.005.832 2.044 1.692 4.121 1.692 2.078 0 3.117-.86 4.122-1.692.938-.775 1.823-1.508 3.612-1.508 1.79 0 2.674.733 3.612 1.508 1.005.832 2.044 1.692 4.12 1.692a.4.4 0 100-.8zM44.4 27a2 2 0 110 4 2 2 0 010-4zm-6.655 8.891c-.937.776-1.822 1.508-3.611 1.508-1.79 0-2.675-.732-3.612-1.508a26.93 26.93 0 00-.424-.346l8.746-3.82a.4.4 0 00.131-.64l-2.256-2.396a.808.808 0 00-.9-.18l-3.575 1.564a1.002 1.002 0 01-1.4-.914.999.999 0 01.6-.92l4.39-1.914a1.59 1.59 0 011.799.369l3.52 3.735c.563.6 1.02 1.291 1.35 2.045.134.32.447.526.793.525h.904a.997.997 0 01.976 1.213.969.969 0 01-.559.676 5.288 5.288 0 00-2.75-.689c-2.077 0-3.117.86-4.122 1.692z"/><path d="M49.6 40.6c-1.789 0-2.674-.733-3.611-1.509-1.005-.832-2.044-1.692-4.122-1.692-2.077 0-3.117.86-4.122 1.692-.937.776-1.822 1.508-3.611 1.508-1.79 0-2.675-.732-3.612-1.508-1.005-.832-2.045-1.692-4.122-1.692a.4.4 0 000 .8c1.79 0 2.675.733 3.612 1.508 1.005.832 2.044 1.692 4.121 1.692 2.078 0 3.117-.86 4.122-1.692.938-.775 1.823-1.508 3.612-1.508 1.79 0 2.674.733 3.612 1.508 1.005.832 2.044 1.692 4.12 1.692a.4.4 0 100-.8z"/><path d="M49.6 43.8c-1.789 0-2.674-.733-3.611-1.509-1.005-.832-2.044-1.692-4.122-1.692-2.077 0-3.117.86-4.122 1.692-.937.776-1.822 1.508-3.611 1.508-1.79 0-2.675-.732-3.612-1.508-1.005-.832-2.045-1.692-4.122-1.692a.4.4 0 100 .8c1.79 0 2.675.733 3.612 1.508 1.005.832 2.044 1.692 4.121 1.692 2.078 0 3.117-.86 4.122-1.692.938-.775 1.823-1.508 3.612-1.508 1.79 0 2.674.733 3.612 1.508 1.005.832 2.044 1.692 4.12 1.692a.4.4 0 100-.8z"/></g><defs><clipPath id="clip0"><path fill="#fff" transform="translate(26 23)" d="M0 0h24v24H0z"/></clipPath><filter id="filter0_d" x="0" y="0" width="76" height="76" filterUnits="userSpaceOnUse" color-interpolation-filters="sRGB"><feFlood flood-opacity="0" result="BackgroundImageFix"/><feColorMatrix in="SourceAlpha" values="0 0 0 0 0 0 0 0 0 0 0 0 0 0 0 0 0 0 127 0" result="hardAlpha"/><feOffset dy="3"/><feGaussianBlur stdDeviation="7.5"/><feComposite in2="hardAlpha" operator="out"/><feColorMatrix values="0 0 0 0 0.129412 0 0 0 0 0.176471 0 0 0 0 0.333333 0 0 0 0.15 0"/><feBlend in2="BackgroundImageFix" result="effect1_dropShadow"/><feBlend in="SourceGraphic" in2="effect1_dropShadow" result="shape"/></filter></defs></svg>