<svg width="76" height="76" fill="none" xmlns="http://www.w3.org/2000/svg"><g filter="url(#filter0_d)"><circle cx="38" cy="35" r="23" fill="#9C8AFA"/></g><path d="M38.312 36.098a.375.375 0 00-.135-.005.895.895 0 01-.792-.887.394.394 0 10-.787 0 1.684 1.684 0 001.238 1.622v.393a.394.394 0 00.787 0v-.37a1.681 1.681 0 00-.344-3.326.894.894 0 11.894-.894.394.394 0 00.787 0 1.684 1.684 0 00-1.337-1.645v-.359a.394.394 0 10-.787 0v.383a1.681 1.681 0 00.443 3.302.893.893 0 01.032 1.786z" fill="#fff"/><path d="M32.57 33.949a5.708 5.708 0 105.709-5.709 5.715 5.715 0 00-5.709 5.709zm5.709-4.921a4.921 4.921 0 110 9.842 4.921 4.921 0 010-9.842z" fill="#fff"/><path d="M45.928 40.628l-3.083 1.457a2.512 2.512 0 00-2.142-1.321l-2.847-.079a3.007 3.007 0 01-1.293-.334l-.29-.15a5.11 5.11 0 00-4.733.005l.018-.656a.394.394 0 00-.382-.404l-3.122-.086a.393.393 0 00-.404.382l-.189 6.85a.394.394 0 00.383.405l3.121.086h.011c.214 0 .388-.17.394-.383l.009-.328.81-.434c.32-.171.691-.212 1.04-.113l4.842 1.359a5.179 5.179 0 001.09.116c.757 0 1.506-.163 2.194-.479a.364.364 0 00.049-.027l7.021-4.542a.394.394 0 00.13-.524 1.989 1.989 0 00-2.627-.8zM28.26 45.92l.167-6.063 2.334.064-.167 6.063-2.334-.064zM41 45.818a4.463 4.463 0 01-2.73.305l-4.829-1.356a2.177 2.177 0 00-1.623.177l-.414.222.11-4.031a4.327 4.327 0 014.397-.235l.29.15a3.802 3.802 0 001.634.423l2.847.078c.8.023 1.479.592 1.64 1.376l-4.24-.117a.394.394 0 00-.021.787l4.68.129h.01c.214 0 .388-.17.394-.383a2.505 2.505 0 00-.038-.511l3.163-1.495c.003 0 .006-.003.009-.004a1.203 1.203 0 011.36.19L41 45.819zm-2.326-18.684v-3.74a.394.394 0 00-.787 0v3.74a.394.394 0 00.787 0zm2.953 0v-1.772a.394.394 0 00-.787 0v1.772a.394.394 0 00.787 0zm-5.907 0v-1.772a.394.394 0 10-.786 0v1.772a.394.394 0 00.787 0z" fill="#fff"/><defs><filter id="filter0_d" x="0" y="0" width="76" height="76" filterUnits="userSpaceOnUse" color-interpolation-filters="sRGB"><feFlood flood-opacity="0" result="BackgroundImageFix"/><feColorMatrix in="SourceAlpha" values="0 0 0 0 0 0 0 0 0 0 0 0 0 0 0 0 0 0 127 0" result="hardAlpha"/><feOffset dy="3"/><feGaussianBlur stdDeviation="7.5"/><feComposite in2="hardAlpha" operator="out"/><feColorMatrix values="0 0 0 0 0.129412 0 0 0 0 0.176471 0 0 0 0 0.333333 0 0 0 0.15 0"/><feBlend in2="BackgroundImageFix" result="effect1_dropShadow"/><feBlend in="SourceGraphic" in2="effect1_dropShadow" result="shape"/></filter></defs></svg>