<svg width="76" height="76" fill="none" xmlns="http://www.w3.org/2000/svg"><g filter="url(#filter0_d)"><circle cx="38" cy="35" r="23" fill="#8BC356"/></g><g clip-path="url(#clip0)" fill="#fff"><path d="M41.799 42.725a.699.699 0 00.809-.578l.703-4.219a.703.703 0 00-1.387-.231l-.703 4.219a.703.703 0 00.578.809zm-8.359-.578a.703.703 0 101.387-.231l-.704-4.22a.703.703 0 00-1.387.232l.703 4.219z"/><path d="M49.297 31.484h-2.475l-5.414-6.767a.703.703 0 00-1.098.879l4.712 5.888H30.979l4.71-5.889a.703.703 0 00-1.097-.878l-5.414 6.767h-2.475a.703.703 0 00-.703.703V35c0 .388.315.703.703.703h.876l2.667 9.334c.086.302.362.51.676.51h14.156c.314 0 .59-.208.676-.51l2.667-9.334h.876A.703.703 0 0050 35v-2.813a.703.703 0 00-.703-.703zm-4.75 12.657H31.453l-2.41-8.438h17.916l-2.41 8.438zm4.047-9.844H27.406V32.89h21.188v1.406z"/><path d="M38 42.734a.703.703 0 00.703-.703v-4.219a.703.703 0 00-1.406 0v4.22c0 .388.315.702.703.702z"/></g><defs><clipPath id="clip0"><path fill="#fff" transform="translate(26 23)" d="M0 0h24v24H0z"/></clipPath><filter id="filter0_d" x="0" y="0" width="76" height="76" filterUnits="userSpaceOnUse" color-interpolation-filters="sRGB"><feFlood flood-opacity="0" result="BackgroundImageFix"/><feColorMatrix in="SourceAlpha" values="0 0 0 0 0 0 0 0 0 0 0 0 0 0 0 0 0 0 127 0" result="hardAlpha"/><feOffset dy="3"/><feGaussianBlur stdDeviation="7.5"/><feComposite in2="hardAlpha" operator="out"/><feColorMatrix values="0 0 0 0 0.129412 0 0 0 0 0.176471 0 0 0 0 0.333333 0 0 0 0.15 0"/><feBlend in2="BackgroundImageFix" result="effect1_dropShadow"/><feBlend in="SourceGraphic" in2="effect1_dropShadow" result="shape"/></filter></defs></svg>