<svg width="76" height="76" fill="none" xmlns="http://www.w3.org/2000/svg"><g filter="url(#filter0_d)"><circle cx="38" cy="35" r="23" fill="#F58CB5"/></g><g clip-path="url(#clip0)"><path d="M49.297 30.531h-6.828v-6.828a.703.703 0 00-.703-.703h-7.532a.703.703 0 00-.703.703v6.828h-6.828a.703.703 0 00-.703.703v7.532c0 .388.315.703.703.703h6.828v6.828c0 .388.315.703.703.703h7.532a.703.703 0 00.703-.703v-6.828h6.828a.703.703 0 00.703-.703v-7.532a.703.703 0 00-.703-.703zm-.703 7.532h-6.828a.703.703 0 00-.703.703v6.828h-6.126v-6.828a.703.703 0 00-.703-.703h-6.828v-6.126h6.828a.703.703 0 00.703-.703v-6.828h6.126v6.828c0 .389.314.703.703.703h6.828v6.125z" fill="#fff"/></g><defs><clipPath id="clip0"><path fill="#fff" transform="translate(26 23)" d="M0 0h24v24H0z"/></clipPath><filter id="filter0_d" x="0" y="0" width="76" height="76" filterUnits="userSpaceOnUse" color-interpolation-filters="sRGB"><feFlood flood-opacity="0" result="BackgroundImageFix"/><feColorMatrix in="SourceAlpha" values="0 0 0 0 0 0 0 0 0 0 0 0 0 0 0 0 0 0 127 0" result="hardAlpha"/><feOffset dy="3"/><feGaussianBlur stdDeviation="7.5"/><feComposite in2="hardAlpha" operator="out"/><feColorMatrix values="0 0 0 0 0.129412 0 0 0 0 0.176471 0 0 0 0 0.333333 0 0 0 0.15 0"/><feBlend in2="BackgroundImageFix" result="effect1_dropShadow"/><feBlend in="SourceGraphic" in2="effect1_dropShadow" result="shape"/></filter></defs></svg>