<svg width="76" height="76" fill="none" xmlns="http://www.w3.org/2000/svg"><g filter="url(#filter0_d)"><circle cx="38" cy="35" r="23" fill="#FEA15E"/></g><g clip-path="url(#clip0)" fill="#fff"><path d="M44.5 32.5h-14c-.827 0-1.5.673-1.5 1.5v1a9.477 9.477 0 005.143 8.445.5.5 0 00.46-.89A8.479 8.479 0 0130 35v-1a.5.5 0 01.5-.5h14a.5.5 0 01.5.5v1a8.475 8.475 0 01-4.603 7.555.5.5 0 00.46.889A9.472 9.472 0 0046 35v-1c0-.827-.673-1.5-1.5-1.5z"/><path d="M48.963 42.808a.501.501 0 00-.462-.31h-22a.501.501 0 00-.355.855l1.121 1.122a3.48 3.48 0 002.476 1.025h15.514c.935 0 1.814-.364 2.477-1.025l1.121-1.122a.499.499 0 00.108-.545zm-1.937.96a2.486 2.486 0 01-1.768.732H29.743c-.667 0-1.296-.26-1.768-.732l-.269-.268h19.588l-.268.268zm2.006-8.908c-1.347-.865-3.499.075-3.74.184a.5.5 0 00.415.91c.482-.218 2.028-.737 2.784-.25.341.219.508.644.508 1.296 0 2.002-4.038 3.212-5.597 3.51l-.354.07a.5.5 0 10.193.98l.35-.07C43.855 41.44 50 40.237 50 37c0-1.006-.326-1.725-.967-2.14zm-7.64-6.548c.813-1.017.813-2.608 0-3.623a.5.5 0 10-.781.625c.516.642.516 1.73 0 2.375-.814 1.016-.814 2.607 0 3.623a.498.498 0 00.703.078.5.5 0 00.078-.703c-.517-.643-.517-1.73 0-2.375zm-3.004-.001c.814-1.015.814-2.607 0-3.623a.5.5 0 10-.781.625c.516.643.516 1.73-.001 2.376-.813 1.016-.813 2.607 0 3.623a.498.498 0 00.703.078.5.5 0 00.078-.703c-.515-.643-.515-1.73 0-2.376zm-2.996.001c.813-1.016.813-2.607 0-3.623a.5.5 0 00-.781.624c.516.643.516 1.73 0 2.375-.814 1.017-.814 2.608 0 3.623a.498.498 0 00.703.08.5.5 0 00.078-.703c-.517-.644-.517-1.73 0-2.376z"/></g><defs><clipPath id="clip0"><path fill="#fff" transform="translate(26 23)" d="M0 0h24v24H0z"/></clipPath><filter id="filter0_d" x="0" y="0" width="76" height="76" filterUnits="userSpaceOnUse" color-interpolation-filters="sRGB"><feFlood flood-opacity="0" result="BackgroundImageFix"/><feColorMatrix in="SourceAlpha" values="0 0 0 0 0 0 0 0 0 0 0 0 0 0 0 0 0 0 127 0" result="hardAlpha"/><feOffset dy="3"/><feGaussianBlur stdDeviation="7.5"/><feComposite in2="hardAlpha" operator="out"/><feColorMatrix values="0 0 0 0 0.129412 0 0 0 0 0.176471 0 0 0 0 0.333333 0 0 0 0.15 0"/><feBlend in2="BackgroundImageFix" result="effect1_dropShadow"/><feBlend in="SourceGraphic" in2="effect1_dropShadow" result="shape"/></filter></defs></svg>