<svg width="76" height="76" fill="none" xmlns="http://www.w3.org/2000/svg"><g filter="url(#filter0_d)"><circle cx="38" cy="35" r="23" fill="#60A8F0"/></g><path d="M34.246 34.25c1.654 0 3-1.093 3-2.438a.375.375 0 10-.75 0c0 .835-.812 1.53-1.875 1.664v-1.19a.841.841 0 00.114-.069l.636-.454a.91.91 0 00.375-.74c0-.495-.387-.898-.864-.898H33.61c-.477 0-.864.403-.864.898a.909.909 0 00.375.74l.636.454a.832.832 0 00.114.069v1.19c-1.063-.134-1.875-.829-1.875-1.663a.375.375 0 10-.75 0c0 1.344 1.346 2.437 3 2.437zm-.69-3.097a.16.16 0 01-.06-.13c0-.08.052-.148.114-.148h1.273c.061 0 .113.068.113.148a.162.162 0 01-.06.13l-.637.454a.087.087 0 01-.106 0l-.636-.454zm2.94-1.028a.375.375 0 100-.75.375.375 0 000 .75zm-4.5 0a.375.375 0 100-.75.375.375 0 000 .75zM44 37.625a1.5 1.5 0 100-3 1.5 1.5 0 000 3zm0-2.25a.75.75 0 110 1.5.75.75 0 010-1.5z" fill="#fff"/><path d="M49.25 38.375H47V33.5a.373.373 0 00-.068-.215l-2.625-3.75a.375.375 0 00-.614 0l-2.625 3.75A.372.372 0 0041 33.5v2.347c-.514-.69-1.199-1.264-2.045-1.705.836-.982 1.29-2.258 1.29-3.642a5.923 5.923 0 00-.274-1.803 2.625 2.625 0 10-3.568-3.506 7.137 7.137 0 00-2.157-.316 7.14 7.14 0 00-2.157.316 2.626 2.626 0 10-3.568 3.506 5.927 5.927 0 00-.275 1.803c0 1.384.455 2.66 1.29 3.642-1.826.953-2.902 2.517-3.123 4.553l-.001.014-.036.515a.359.359 0 000 .05 2.254 2.254 0 001.497 1.973 3.685 3.685 0 00-.373 1.628c0 1.86 1.346 3.375 3 3.375.89 0 1.691-.44 2.241-1.135a3.15 3.15 0 003.018 0c.55.696 1.35 1.135 2.241 1.135 1.175 0 2.194-.765 2.686-1.875h8.564a.375.375 0 00.375-.375v-5.25a.375.375 0 00-.375-.375zM44 30.404l1.905 2.721h-3.81L44 30.404zm-2.25 3.471h4.5v4.5h-4.215a6.11 6.11 0 00-.285-1.125v-3.375zm-1.125 7.369c.354-.127.67-.34.92-.619h.58v1.5h-1.2a3.616 3.616 0 00-.3-.881zm.707-2.475l.034.48a1.503 1.503 0 01-1.163 1.338c-.47-.572-1.114-.961-1.836-1.06-.068-1.526-.582-2.933-1.422-3.919a5.468 5.468 0 001.455-.905c1.718.822 2.73 2.223 2.932 4.066zM38.746 24.5a1.875 1.875 0 01.946 3.494 5.236 5.236 0 00-1.05-1.474 5.424 5.424 0 00-1.535-1.056 1.879 1.879 0 011.639-.964zM27.87 26.375a1.876 1.876 0 013.514-.912 5.423 5.423 0 00-1.535 1.057 5.234 5.234 0 00-1.05 1.474 1.878 1.878 0 01-.93-1.619zm2.505.68c.951-.936 2.29-1.43 3.87-1.43s2.918.494 3.87 1.43c.89.875 1.38 2.099 1.38 3.445 0 1.346-.49 2.57-1.38 3.445-.952.935-2.29 1.43-3.87 1.43s-2.919-.495-3.87-1.43c-.89-.875-1.38-2.099-1.38-3.445 0-1.346.49-2.57 1.38-3.445zm-3.25 12.194l.034-.48c.202-1.843 1.214-3.244 2.931-4.067.437.379.93.685 1.463.91-.838.985-1.352 2.396-1.421 3.914-.723.1-1.367.49-1.837 1.063a1.503 1.503 0 01-1.17-1.34zM30.5 45.5c-1.24 0-2.25-1.178-2.25-2.625s1.01-2.625 2.25-2.625 2.25 1.178 2.25 2.625S31.74 45.5 30.5 45.5zm3.75-.75a2.424 2.424 0 01-1.11-.273c.239-.5.362-1.048.36-1.602 0-1.715-1.143-3.134-2.616-3.346.072-1.463.597-2.8 1.441-3.65.626.167 1.272.25 1.92.246a7.26 7.26 0 001.928-.248c.846.85 1.372 2.182 1.443 3.652C36.143 39.74 35 41.16 35 42.875a3.69 3.69 0 00.36 1.602 2.424 2.424 0 01-1.11.273zm3.75.75c-1.24 0-2.25-1.178-2.25-2.625S36.76 40.25 38 40.25s2.25 1.178 2.25 2.625S39.24 45.5 38 45.5zm3-2.625h1.5a.375.375 0 00.375-.375v-2.25a.375.375 0 00-.375-.375h-.508c.068-.193.11-.395.124-.6a.359.359 0 000-.051l-.007-.099h1.516v4.5h-2.7a3.77 3.77 0 00.075-.75zm7.875.75h-4.5v-4.5h4.5v4.5z" fill="#fff"/><path d="M45.5 42.875h2.25a.374.374 0 00.335-.543l-1.125-2.25a.375.375 0 00-.67 0l-1.125 2.25a.374.374 0 00.335.543zm1.125-1.786l.518 1.036h-1.036l.518-1.036z" fill="#fff"/><defs><filter id="filter0_d" x="0" y="0" width="76" height="76" filterUnits="userSpaceOnUse" color-interpolation-filters="sRGB"><feFlood flood-opacity="0" result="BackgroundImageFix"/><feColorMatrix in="SourceAlpha" values="0 0 0 0 0 0 0 0 0 0 0 0 0 0 0 0 0 0 127 0" result="hardAlpha"/><feOffset dy="3"/><feGaussianBlur stdDeviation="7.5"/><feComposite in2="hardAlpha" operator="out"/><feColorMatrix values="0 0 0 0 0.129412 0 0 0 0 0.176471 0 0 0 0 0.333333 0 0 0 0.15 0"/><feBlend in2="BackgroundImageFix" result="effect1_dropShadow"/><feBlend in="SourceGraphic" in2="effect1_dropShadow" result="shape"/></filter></defs></svg>