<svg width="76" height="76" fill="none" xmlns="http://www.w3.org/2000/svg"><g filter="url(#filter0_d)"><circle cx="38" cy="35" r="23" fill="#BAADFF"/></g><path d="M38.852 26.703h-8.9a.504.504 0 00-.503.503v5.883c0 .277.226.503.503.503h8.9a.504.504 0 00.503-.503v-5.883a.504.504 0 00-.503-.503zm-.503 5.884h-7.894v-4.878h7.894v4.878z" fill="#fff"/><path d="M49.492 44.755h-8.427V36.71h.82c.744 0 1.347.608 1.342 1.352v1.403a2.663 2.663 0 002.665 2.665 2.663 2.663 0 002.665-2.665V31.51c0-.824-.307-1.619-.87-2.227l-3.932-4.48-.754.663 3.047 3.475a2.021 2.021 0 00-1.66 2.328 2.02 2.02 0 003.163 1.318v6.878c0 .915-.744 1.66-1.66 1.66a1.66 1.66 0 01-1.658-1.66v-1.393a2.357 2.357 0 00-2.344-2.368h-.825v-9.368c0-1.146-.925-2.096-2.07-2.096H29.65c-1.147 0-2.062.955-2.062 2.096v18.419h-1.086a.504.504 0 00-.503.503c0 .276.226.503.503.503h22.994a.504.504 0 00.503-.503.505.505 0 00-.508-.503zm-3.107-12.807a1.016 1.016 0 110-2.032 1.016 1.016 0 010 2.032zm-6.326 12.807H28.595V26.336c0-.593.462-1.09 1.056-1.09h9.342c.593 0 1.066.502 1.066 1.09v18.419z" fill="#fff"/><defs><filter id="filter0_d" x="0" y="0" width="76" height="76" filterUnits="userSpaceOnUse" color-interpolation-filters="sRGB"><feFlood flood-opacity="0" result="BackgroundImageFix"/><feColorMatrix in="SourceAlpha" values="0 0 0 0 0 0 0 0 0 0 0 0 0 0 0 0 0 0 127 0" result="hardAlpha"/><feOffset dy="3"/><feGaussianBlur stdDeviation="7.5"/><feComposite in2="hardAlpha" operator="out"/><feColorMatrix values="0 0 0 0 0.129412 0 0 0 0 0.176471 0 0 0 0 0.333333 0 0 0 0.15 0"/><feBlend in2="BackgroundImageFix" result="effect1_dropShadow"/><feBlend in="SourceGraphic" in2="effect1_dropShadow" result="shape"/></filter></defs></svg>