<svg width="232" height="34" fill="none" xmlns="http://www.w3.org/2000/svg"><g opacity=".95" fill="#fff"><path d="M117.984 29.997c-.524 0-1.077-.116-1.456-.407-.233-.203-.553-.61-.553-1.277V14.46h2.941v12.37c0 .175-.029.465.204.669.087.058.262.174.728.174h8.563v2.323h-10.427z"/><path d="M133.188 16.026c.553-1.307 1.165-1.743 2.563-1.743 1.34 0 2.01.436 2.563 1.743l5.883 13.967h-3.087l-1.602-3.92h-7.514l-1.573 3.92h-3.087l5.854-13.967zm-.437 7.956h6l-2.534-6.33c-.087-.233-.233-.64-.437-.64s-.349.436-.437.64l-2.592 6.33zm21.929-9.521c.845 0 2.01.088 2.826.93.873.9.99 2.323.99 3.339 0 .842-.058 1.713-.728 2.526-.437.523-.903.755-1.457.813v.088a2.67 2.67 0 011.719.813c.728.813.728 1.916.728 2.787 0 1.016 0 2.265-.903 3.252-.903.988-1.893.988-2.854.988h-7.456c-.786 0-1.485.087-2.126-.61-.146-.174-.524-.697-.524-1.568V16.697c0-.58.145-1.19.495-1.597.466-.551 1.165-.639 1.66-.639h7.63zm-6.873 6.505h5.708c.583 0 1.195 0 1.602-.552.117-.145.321-.523.321-1.568 0-.435-.029-1.19-.525-1.655-.436-.406-.961-.406-1.456-.406h-4.805c-.233 0-.496-.03-.67.174-.175.203-.204.522-.204.697l.029 3.31zm0 5.546c0 .523.058.784.175.9.233.262.728.233.961.233h4.631c.466 0 1.281-.03 1.718-.552.32-.407.408-1.074.408-1.568 0-.436-.058-1.162-.321-1.568-.174-.232-.611-.639-1.572-.639h-5.971l-.029 3.194zm12.668 1.162h8.65c1.398 0 1.457-1.162 1.457-1.684 0-.61-.146-1.336-1.515-1.743l-6.145-1.945c-.233-.058-1.223-.407-1.835-1.162-.699-.842-.816-2.062-.816-2.933 0-.929.117-2.061.991-2.874.815-.755 1.805-.872 2.563-.872h8.97v2.324h-7.951c-.408 0-.874.029-1.223.348-.379.348-.408.9-.408 1.19 0 .697.204 1.365 1.456 1.743l5.709 1.8c1.048.32 1.747.668 2.213 1.104.932.9 1.02 2.265 1.02 2.99 0 .988-.146 2.062-.787 2.875-.786.988-1.747 1.104-2.796 1.104h-9.553v-2.265zm19.02-11.65c.553-1.306 1.165-1.742 2.563-1.742 1.339 0 2.009.436 2.563 1.742l5.883 13.968h-3.087l-1.602-3.92h-7.514l-1.573 3.92h-3.087l5.854-13.968zm-.437 7.957h5.999l-2.533-6.33c-.088-.233-.233-.64-.437-.64s-.35.436-.437.64l-2.592 6.33zm14.125 6.016c-.524 0-1.077-.116-1.456-.407-.233-.203-.553-.61-.553-1.277V14.46h2.941v12.37c0 .175-.029.465.204.669.088.058.262.174.728.174h8.563v2.323h-10.427zm13.69 0c-.67 0-1.282 0-1.777-.494-.524-.523-.582-1.22-.582-1.83V16.669c0-.61.204-1.249.524-1.626.524-.552 1.281-.61 1.864-.61h9.99v2.323h-8.417c-.263 0-.583.03-.816.233-.233.232-.233.522-.233.755v3.136h9.262v2.323h-9.233v3.63c0 .232.088.493.233.61.175.173.524.202.99.202h8.33v2.324h-10.135v.029zm11.678-2.323h8.621c1.398 0 1.456-1.162 1.456-1.684 0-.61-.145-1.336-1.514-1.743l-6.145-1.945c-.233-.058-1.224-.407-1.835-1.162-.699-.842-.816-2.062-.816-2.933 0-.929.117-2.061.991-2.874.815-.755 1.805-.872 2.563-.872h8.97v2.324h-7.98c-.408 0-.874.029-1.223.348-.379.348-.408.9-.408 1.19 0 .697.204 1.365 1.456 1.743l5.708 1.8c1.049.32 1.748.668 2.214 1.104.932.9 1.019 2.265 1.019 2.99 0 .988-.145 2.062-.786 2.875-.786.988-1.748 1.104-2.796 1.104h-9.582v-2.265h.087zm-108.633-14.2l-5.126-12.312c-.175-.407-.321-.697-.495-.843-.204-.203-.496-.319-.845-.319-.35 0-.641.116-.845.32-.174.145-.32.435-.495.842l-5.126 12.34v14.23c0 .754.146 1.277.466 1.625.32.349.787.494 1.398.494h9.233c.611 0 1.077-.174 1.398-.494.32-.348.466-.87.466-1.626l-.029-14.257zm-1.253 0v2.207a1.81 1.81 0 00-.699-.233 1.608 1.608 0 00-1.165.29l-2.388-2.497a1.85 1.85 0 00.175-.522 1.677 1.677 0 00-1.456-1.888 1.68 1.68 0 00-1.894 1.452 1.778 1.778 0 00.525 1.452l-1.078 2.236c-.058 0-.116-.03-.175-.03-.262-.028-.553 0-.786.088l-1.369-2.817 4.689-11.818c.117-.29.262-.436.408-.436.146 0 .262.145.408.436l4.805 12.08z"/><path d="M108.665 18.528v9.292c0 .348-.058.58-.175.697-.116.116-.349.174-.67.174h-8.737c-.32 0-.553-.058-.67-.174-.117-.116-.175-.349-.175-.697V14.927l.758 1.568c-.204.232-.32.523-.38.871a1.676 1.676 0 001.457 1.888 1.68 1.68 0 001.893-1.452 1.757 1.757 0 00-.495-1.423l1.078-2.236c.058 0 .116.029.174.029.408.058.816-.058 1.136-.261l2.418 2.497c-.088.145-.117.32-.146.494a1.677 1.677 0 001.456 1.887c.379.03.758-.058 1.078-.261z"/></g><path d="M9.688 26.39c-.141 1.204-.586 2.133-1.336 2.79-.745.65-1.737.976-2.977.976-1.344 0-2.422-.482-3.234-1.445C1.333 27.747.93 26.458.93 24.844V23.75c0-1.057.187-1.987.562-2.79.38-.801.917-1.416 1.61-1.843.692-.432 1.494-.648 2.406-.648 1.208 0 2.177.338 2.906 1.015.73.672 1.154 1.604 1.274 2.797H8.18c-.13-.906-.414-1.562-.852-1.968-.432-.407-1.039-.61-1.82-.61-.959 0-1.711.354-2.258 1.063-.542.708-.813 1.716-.813 3.023v1.102c0 1.234.258 2.216.774 2.945.516.73 1.237 1.094 2.164 1.094.833 0 1.471-.188 1.914-.563.448-.38.745-1.039.89-1.976h1.508zm1.757 2.43l.5-.617c.563-.729.883-1.823.961-3.281l.133-3.375h5.445v7.273h1.086v3.664h-1.445V30h-5.898v2.484H10.78l.008-3.664h.656zm1.711 0h3.883v-5.937h-2.602l-.085 2.015c-.089 1.683-.487 2.99-1.196 3.922zm11.524 1.336c-1.146 0-2.078-.375-2.797-1.125-.719-.755-1.078-1.763-1.078-3.023v-.266c0-.838.159-1.586.476-2.242.323-.662.771-1.177 1.344-1.547a3.38 3.38 0 011.875-.562c1.099 0 1.953.362 2.563 1.086.609.724.914 1.76.914 3.109v.602H22.25c.02.833.263 1.507.727 2.023.468.51 1.062.766 1.78.766.511 0 .944-.105 1.298-.313.354-.208.664-.484.93-.828l.882.687c-.708 1.089-1.77 1.633-3.187 1.633zm-.18-7.578c-.583 0-1.073.214-1.469.64-.396.423-.64 1.016-.734 1.782h4.234v-.11c-.041-.734-.24-1.302-.593-1.703-.355-.406-.834-.609-1.438-.609zm12.086-1.031V30h-1.453v-7.258h-2.875l-.172 3.164c-.094 1.453-.339 2.492-.734 3.117-.391.625-1.014.951-1.868.977h-.578v-1.273l.414-.032c.47-.052.805-.323 1.008-.812.203-.49.334-1.396.39-2.719l.157-3.617h5.71zM44.125 30c-.083-.167-.151-.463-.203-.89-.672.697-1.474 1.046-2.406 1.046-.834 0-1.519-.234-2.055-.703-.531-.474-.797-1.073-.797-1.797 0-.88.333-1.562 1-2.047.672-.49 1.615-.734 2.828-.734h1.406v-.664c0-.505-.15-.906-.453-1.203-.302-.302-.747-.453-1.336-.453-.515 0-.948.13-1.297.39-.348.26-.523.576-.523.946h-1.453c0-.422.148-.828.445-1.22.302-.395.709-.707 1.219-.937a4.126 4.126 0 011.695-.343c.974 0 1.737.244 2.29.734.551.484.838 1.154.859 2.008v3.89c0 .776.099 1.394.297 1.852V30h-1.516zm-2.398-1.102a2.54 2.54 0 001.289-.351c.406-.235.7-.54.882-.914v-1.735h-1.132c-1.771 0-2.657.519-2.657 1.555 0 .453.151.807.453 1.063.303.255.69.382 1.165.382zM54.516 30H53.07v-3.61h-3.883V30h-1.453v-8.453h1.453v3.664h3.883v-3.664h1.446V30zm1.945-4.305c0-.828.161-1.573.484-2.234.328-.662.782-1.172 1.36-1.531.583-.36 1.247-.54 1.992-.54 1.15 0 2.08.4 2.789 1.196.714.797 1.07 1.857 1.07 3.18v.101c0 .823-.159 1.563-.476 2.219a3.56 3.56 0 01-1.352 1.523c-.583.365-1.255.547-2.016.547-1.145 0-2.075-.398-2.789-1.195-.708-.797-1.062-1.852-1.062-3.164v-.102zm1.453.172c0 .938.216 1.69.648 2.258.438.568 1.021.852 1.75.852.735 0 1.318-.287 1.75-.86.433-.578.649-1.385.649-2.422 0-.927-.221-1.677-.664-2.25-.438-.578-1.021-.867-1.75-.867-.714 0-1.29.284-1.727.852-.437.567-.656 1.38-.656 2.437zM70.07 30v-8.453h3.297c1.125 0 1.987.198 2.586.594.604.39.906.966.906 1.726 0 .39-.117.745-.351 1.063-.235.312-.58.552-1.04.718.511.12.92.355 1.227.704.313.349.47.765.47 1.25 0 .776-.287 1.37-.86 1.78-.568.412-1.373.618-2.414.618h-3.82zm1.446-3.71v2.546h2.39c.604 0 1.055-.112 1.352-.336.302-.224.453-.54.453-.945 0-.844-.62-1.266-1.86-1.266h-2.335zm0-1.157h1.867c1.354 0 2.031-.396 2.031-1.188 0-.791-.64-1.2-1.922-1.226h-1.976v2.414z" fill="#fff"/></svg>